<?xml version="1.0" encoding="utf-8"?>
<!-- Generator: Adobe Illustrator 24.1.1, SVG Export Plug-In . SVG Version: 6.00 Build 0)  -->
<svg version="1.1" id="Layer_1" xmlns="http://www.w3.org/2000/svg" xmlns:xlink="http://www.w3.org/1999/xlink" x="0px" y="0px"
	 viewBox="0 0 288 288" style="enable-background:new 0 0 288 288;" xml:space="preserve">
<style type="text/css">
	.st0{fill:#FFFFFF;}
	.st1{opacity:0.5;}
	.st2{fill:url(#SVGID_1_);}
	.st3{fill:url(#SVGID_2_);}
	.st4{fill:#0275D8;}
	.st5{opacity:0.9;fill:#FFB400;}
</style>
<g>
	<rect x="0" class="st0" width="288" height="288"/>
	<g>
		<g class="st1">
			<radialGradient id="SVGID_1_" cx="158.8215" cy="179.1941" r="87.675" gradientUnits="userSpaceOnUse">
				<stop  offset="0.5549" style="stop-color:#FF9C06"/>
				<stop  offset="0.6383" style="stop-color:#FFB544"/>
				<stop  offset="0.7355" style="stop-color:#FFCF86"/>
				<stop  offset="0.8239" style="stop-color:#FFE4BA"/>
				<stop  offset="0.9002" style="stop-color:#FFF3E0"/>
				<stop  offset="0.9614" style="stop-color:#FFFCF7"/>
				<stop  offset="1" style="stop-color:#FFFFFF"/>
			</radialGradient>
			<circle class="st2" cx="158.82" cy="179.19" r="87.68"/>
		</g>
		<g class="st1">
			<radialGradient id="SVGID_2_" cx="105.9113" cy="142.0552" r="87.675" gradientUnits="userSpaceOnUse">
				<stop  offset="0.5549" style="stop-color:#FF9C06"/>
				<stop  offset="0.6383" style="stop-color:#FFB544"/>
				<stop  offset="0.7355" style="stop-color:#FFCF86"/>
				<stop  offset="0.8239" style="stop-color:#FFE4BA"/>
				<stop  offset="0.9002" style="stop-color:#FFF3E0"/>
				<stop  offset="0.9614" style="stop-color:#FFFCF7"/>
				<stop  offset="1" style="stop-color:#FFFFFF"/>
			</radialGradient>
			<circle class="st3" cx="105.91" cy="142.06" r="87.68"/>
		</g>
		<path class="st4" d="M85.41,75.71c-4.47,15.71,9.18,32.55,4.24,48.12c-2.56,8.07-9.66,13.87-17.03,18.04
			c-7.37,4.17-15.42,7.26-22.11,12.46c-6.15,4.78-11.03,11.41-12.92,18.96c-1.89,7.56-0.59,16.03,4.18,22.2
			c5.14,6.65,13.39,9.9,20.76,13.95c13.31,7.32,24.55,17.96,37.82,25.36c13.27,7.4,30.14,11.2,43.44,3.86
			c13.42-7.4,19.08-23.57,22.38-38.54c1.91-8.67,3.61-17.85,9.31-24.66c4.22-5.04,10.18-8.22,15.9-11.47
			c7.2-4.09,14.24-8.48,21.08-13.15c9.48-6.47,18.83-13.75,24.57-23.68c5.75-9.93,7.18-23.11,0.81-32.65c-2.67-4-6.6-7.3-8.01-11.9
			c-1.19-3.91-0.35-8.1-0.16-12.18c0.33-7.26-1.61-14.74-6.13-20.43c-4.53-5.68-11.78-9.33-19.02-8.73
			c-8.65,0.71-15.68,6.9-22.72,11.97c-7.05,5.07-16.17,9.39-24.14,5.95C116.75,41.54,90.61,57.4,85.41,75.71z"/>
		<path class="st5" d="M124.58,78.99c-5.69,3.75-12.5,5.32-19.14,6.83c-9.74,2.2-19.48,4.4-29.22,6.6
			c-9,2.03-18.96,4.72-23.79,12.58c-7.14,11.6,0.18,29.41-9.71,38.77c-2.41,2.28-5.53,3.64-8.17,5.65
			c-5.57,4.22-8.76,11.41-8.13,18.37c0.63,6.96,5.04,13.47,11.28,16.63c13.6,6.89,32.56-1.92,44.18,7.95
			c5.21,4.42,7.3,11.56,7.74,18.38c0.44,6.82-0.5,13.67-0.1,20.49c0.42,7.28,2.97,15.23,9.39,18.69c8.07,4.35,18.2-0.48,24.64-7
			s11.23-14.84,18.91-19.86c6.6-4.31,14.62-5.7,22.36-7.21c7.58-1.48,15.13-3.17,22.61-5.07c7.12-1.81,14.4-3.9,20.19-8.43
			c9.2-7.2,13.02-19.21,15.52-30.62c1.38-6.31,2.61-12.92,6.53-18.05c2.44-3.2,5.77-5.59,8.88-8.14
			c7.33-6.01,13.84-13.46,16.82-22.46c2.97-9,1.84-19.74-4.57-26.73c-5.88-6.41-14.9-8.69-22.3-13.26
			c-8.14-5.03-14.18-12.74-21.1-19.35c-9.8-9.36-22.01-16.77-35.46-18.35c-11.39-1.34-23.88,2.08-32.07,10.36
			C132.97,62.71,133.47,73.13,124.58,78.99z"/>
		<g>
			<g>
				<path class="st4" d="M150.32,91.38c5.65,0.58,10.73,1.83,15.24,3.74c4.51,1.91,8.3,4.35,11.36,7.32
					c3.06,2.98,5.31,6.43,6.76,10.36c1.45,3.93,1.93,8.19,1.46,12.78c-0.35,3.38-1.29,6.31-2.81,8.79
					c-1.53,2.48-3.34,4.67-5.44,6.57c-2.1,1.91-4.32,3.57-6.66,4.98c-2.34,1.42-4.53,2.72-6.55,3.9c-2.03,1.18-3.73,2.33-5.12,3.46
					c-1.39,1.13-2.15,2.34-2.28,3.64l-0.46,4.4c-0.11,1.05-1.05,1.81-2.1,1.71l-21.54-2.23c-1.05-0.11-1.81-1.05-1.71-2.1l0.9-8.68
					c0.18-1.79,0.83-3.43,1.94-4.92c1.11-1.5,2.46-2.92,4.06-4.26c1.6-1.35,3.3-2.66,5.09-3.94c1.79-1.28,3.49-2.63,5.1-4.05
					c1.61-1.42,2.97-2.92,4.09-4.52c1.12-1.59,1.78-3.4,1.99-5.43c0.14-1.35,0.06-2.68-0.25-3.98c-0.3-1.3-0.83-2.46-1.58-3.49
					c-0.75-1.03-1.7-1.9-2.84-2.6c-1.15-0.7-2.49-1.14-4.04-1.3c-2.03-0.21-3.71-0.02-5.04,0.58c-1.33,0.59-2.41,1.43-3.23,2.52
					c-0.82,1.09-1.43,2.37-1.82,3.84c-0.4,1.47-0.67,2.98-0.83,4.52c-0.07,0.68-0.14,1.34-0.21,1.99c0,0.01,0,0.01,0,0.02
					c-0.11,1.08-1.03,1.89-2.1,1.78l-23.54-2.43c-0.97-0.1-1.71-0.92-1.72-1.9c0-0.37,0-0.73,0-1.09c0-0.9,0.04-1.84,0.14-2.8
					c0.5-4.83,1.96-9.07,4.39-12.72c2.43-3.65,5.58-6.66,9.46-9.01c3.88-2.36,8.37-4,13.47-4.94
					C139.01,90.94,144.48,90.78,150.32,91.38z"/>
				<path class="st4" d="M150.64,196.32l-21.82-2.26c-1.05-0.11-1.81-1.05-1.71-2.1l2.08-20.11c0.11-1.05,1.05-1.81,2.1-1.71
					l21.82,2.26c1.05,0.11,1.81,1.05,1.71,2.1l-2.08,20.11C152.63,195.66,151.69,196.43,150.64,196.32z"/>
			</g>
			<g>
				<g>
					<g>
						<path class="st0" d="M153.93,169.24c-0.28,0-0.56-0.01-0.84-0.04l-21.54-2.23c-4.15-0.43-7.28-3.9-7.28-8.07
							c0-0.28,0.01-0.56,0.04-0.84l0.9-8.67c0.13-1.25,0.4-2.49,0.82-3.66l1.89,0.66c-0.36,1.03-0.6,2.1-0.71,3.2l-0.9,8.67
							c-0.02,0.21-0.03,0.43-0.03,0.64c0,3.14,2.36,5.75,5.49,6.08l21.54,2.23c0.21,0.02,0.42,0.03,0.63,0.03l0.16,0l0.05,2
							L153.93,169.24z M175.54,149.87l-1.12-1.65c1.83-1.25,3.62-2.65,5.29-4.17c1.99-1.81,3.78-3.87,5.32-6.14l1.65,1.12
							c-1.63,2.4-3.53,4.59-5.64,6.5C179.31,147.11,177.46,148.58,175.54,149.87z M118.51,131.65l-10.98-1.13
							c-1.63-0.17-3.14-0.81-4.39-1.85l1.29-1.53c0.94,0.79,2.08,1.27,3.3,1.39l10.98,1.13L118.51,131.65z M109.69,100.56
							l-1.53-1.28c2.53-3.03,5.59-5.64,9.07-7.76c4.51-2.74,9.75-4.67,15.57-5.74c5.61-1.03,11.67-1.23,18.05-0.58l-0.2,1.99
							c-6.19-0.63-12.06-0.44-17.48,0.56c-5.58,1.02-10.59,2.87-14.89,5.48C114.97,95.23,112.08,97.7,109.69,100.56z"/>
					</g>
				</g>
				<g>
					<g>
						<path class="st0" d="M150.84,202.53c-0.28,0-0.55-0.01-0.83-0.04l-21.82-2.26c-4.15-0.43-7.28-3.9-7.28-8.07
							c0-0.28,0.01-0.56,0.04-0.84l0.14-1.32l1.99,0.21l-0.14,1.32c-0.02,0.21-0.03,0.42-0.03,0.63c0,3.14,2.36,5.75,5.49,6.08
							l21.82,2.26c0.21,0.02,0.42,0.03,0.63,0.03l0.09,2L150.84,202.53z M160.26,182.25l-1.99-0.21l0.74-7.11
							c0.02-0.22,0.03-0.43,0.03-0.64c0-1.1-0.3-2.18-0.87-3.13l1.71-1.03c0.76,1.25,1.15,2.69,1.15,4.16
							c0,0.28-0.01,0.56-0.04,0.85L160.26,182.25z"/>
					</g>
				</g>
			</g>
		</g>
		<g>
			<g>
				<path class="st4" d="M195.96,193.04c-0.12,0-0.23-0.04-0.32-0.13c-0.17-0.18-0.17-0.46,0-0.63l46.3-46.3
					c0.18-0.18,0.46-0.18,0.63,0c0.17,0.18,0.17,0.46,0,0.63l-46.3,46.3C196.19,193,196.08,193.04,195.96,193.04z"/>
			</g>
			<g>
				<path class="st4" d="M208.85,124.87c-0.12,0-0.23-0.04-0.32-0.13c-0.17-0.18-0.17-0.46,0-0.63l46.97-46.97
					c0.18-0.18,0.46-0.18,0.63,0c0.17,0.18,0.17,0.46,0,0.63l-46.97,46.97C209.08,124.82,208.96,124.87,208.85,124.87z"/>
			</g>
			<g>
				<path class="st4" d="M66.57,118.25c-0.12,0-0.23-0.04-0.32-0.13c-0.17-0.18-0.17-0.46,0-0.63l46.64-46.64
					c0.18-0.18,0.46-0.18,0.63,0c0.17,0.18,0.17,0.46,0,0.63l-46.64,46.64C66.8,118.21,66.68,118.25,66.57,118.25z"/>
			</g>
			<g>
				<path class="st4" d="M33.16,203.89c-0.12,0-0.23-0.04-0.32-0.13c-0.17-0.18-0.17-0.46,0-0.63l33.58-33.58
					c0.18-0.18,0.46-0.18,0.63,0c0.17,0.18,0.17,0.46,0,0.63l-33.58,33.58C33.39,203.85,33.27,203.89,33.16,203.89z"/>
			</g>
			<g>
				<path class="st4" d="M89.97,194.23c-0.12,0-0.23-0.04-0.32-0.13c-0.17-0.18-0.17-0.46,0-0.63l6.61-6.61
					c0.18-0.18,0.46-0.18,0.63,0c0.17,0.18,0.17,0.46,0,0.63l-6.61,6.61C90.2,194.18,90.09,194.23,89.97,194.23z"/>
			</g>
			<g>
				<path class="st4" d="M161.53,249.85c-0.12,0-0.23-0.04-0.32-0.13c-0.17-0.18-0.17-0.46,0-0.63l28.32-28.32
					c0.18-0.18,0.46-0.18,0.63,0c0.17,0.18,0.17,0.46,0,0.63l-28.32,28.32C161.76,249.81,161.65,249.85,161.53,249.85z"/>
			</g>
			<g>
				<path class="st4" d="M191.55,89.59c-0.12,0-0.23-0.04-0.32-0.13c-0.17-0.18-0.17-0.46,0-0.63l13.4-13.4
					c0.18-0.18,0.46-0.18,0.63,0c0.17,0.18,0.17,0.46,0,0.63l-13.4,13.4C191.78,89.55,191.67,89.59,191.55,89.59z"/>
			</g>
		</g>
		<g>
			<g>
				<path class="st0" d="M55.38,157.43c-0.12,0-0.23-0.04-0.32-0.13c-0.17-0.18-0.17-0.46,0-0.63l46.3-46.3
					c0.18-0.18,0.46-0.18,0.63,0c0.17,0.18,0.17,0.46,0,0.63l-46.3,46.3C55.6,157.38,55.49,157.43,55.38,157.43z"/>
			</g>
			<g>
				<path class="st0" d="M41.81,226.28c-0.12,0-0.23-0.04-0.32-0.13c-0.17-0.18-0.17-0.46,0-0.63l46.98-46.98
					c0.18-0.18,0.46-0.18,0.63,0c0.17,0.18,0.17,0.46,0,0.63l-46.98,46.98C42.04,226.24,41.92,226.28,41.81,226.28z"/>
			</g>
			<g>
				<path class="st0" d="M184.43,232.55c-0.12,0-0.23-0.04-0.32-0.13c-0.17-0.18-0.17-0.46,0-0.63l46.64-46.64
					c0.18-0.18,0.46-0.18,0.63,0c0.17,0.18,0.17,0.46,0,0.63l-46.64,46.64C184.66,232.51,184.54,232.55,184.43,232.55z"/>
			</g>
			<g>
				<path class="st0" d="M230.9,133.85c-0.12,0-0.23-0.04-0.32-0.13c-0.17-0.18-0.17-0.46,0-0.63l33.58-33.58
					c0.18-0.18,0.46-0.18,0.63,0c0.17,0.18,0.17,0.46,0,0.63l-33.58,33.58C231.12,133.81,231.01,133.85,230.9,133.85z"/>
			</g>
			<g>
				<path class="st0" d="M201.05,116.56c-0.12,0-0.23-0.04-0.32-0.13c-0.17-0.18-0.17-0.46,0-0.63l6.61-6.61
					c0.18-0.18,0.46-0.18,0.63,0c0.17,0.18,0.17,0.46,0,0.63l-6.61,6.61C201.28,116.51,201.16,116.56,201.05,116.56z"/>
			</g>
			<g>
				<path class="st0" d="M107.78,82.64c-0.12,0-0.23-0.04-0.32-0.13c-0.17-0.18-0.17-0.46,0-0.63l28.32-28.32
					c0.18-0.18,0.46-0.18,0.63,0c0.17,0.18,0.17,0.46,0,0.63l-28.32,28.32C108.01,82.6,107.89,82.64,107.78,82.64z"/>
			</g>
			<g>
				<path class="st0" d="M92.68,227.97c-0.12,0-0.23-0.04-0.32-0.13c-0.17-0.18-0.17-0.46,0-0.63l13.4-13.4
					c0.18-0.18,0.46-0.18,0.63,0c0.17,0.18,0.17,0.46,0,0.63L93,227.84C92.91,227.93,92.8,227.97,92.68,227.97z"/>
			</g>
		</g>
	</g>
</g>
</svg>
