<?xml version="1.0" encoding="utf-8"?>
<!-- Generator: Adobe Illustrator 24.1.1, SVG Export Plug-In . SVG Version: 6.00 Build 0)  -->
<svg version="1.1" xmlns="http://www.w3.org/2000/svg" xmlns:xlink="http://www.w3.org/1999/xlink" x="0px" y="0px"
	 viewBox="0 0 500 500" style="enable-background:new 0 0 500 500;" xml:space="preserve">
<style type="text/css">
	.st0{fill:#0275D8;}
	.st1{opacity:0.3;}
	.st2{fill:#5FBAA7;}
	.st3{opacity:0.65;}
	.st4{fill:#FAFAFA;}
	.st5{fill:#E6E6E6;}
	.st6{fill:#EBEBEB;}
	.st7{opacity:0.2;fill:#0275D8;}
	.st8{opacity:0.6;fill:#0275D8;}
	.st9{opacity:0.5;fill:#5FBAA7;}
	.st10{fill:#806550;}
	.st11{opacity:0.3;fill:#806550;}
	.st12{opacity:0.6;fill:#806550;}
	.st13{opacity:0.4;fill:#FFFFFF;}
	.st14{fill:#FFFFFF;}
	.st15{fill:#37474F;}
	.st16{fill:#263238;}
	.st17{fill:#455A64;}
	.st18{opacity:0.2;}
	.st19{opacity:0.15;}
	.st20{opacity:0.15;fill:#0275D8;}
	.st21{fill:#E0E0E0;}
	.st22{opacity:0.1;fill:#0275D8;}
	.st23{opacity:0.25;fill:#0275D8;}
	.st24{opacity:0.5;fill:#0275D8;}
	.st25{fill:#FAFAFA;stroke:#0275D8;stroke-miterlimit:10;}
	.st26{fill:#BA68C8;stroke:#0275D8;stroke-miterlimit:10;}
	.st27{opacity:0.3;fill:#0275D8;}
	.st28{opacity:0.1;}
</style>
<g id="Plants">
	<g id="Plants_6_">
		<g id="XMLID_1180_">
			<g id="XMLID_1185_">
				<path id="XMLID_1186_" class="st0" d="M55,301.93l8.65-5.6c0,0,4.19-22.31,1.08-42.04c-4.38-27.74-23.27-37.31-30.13-34.55
					c-6.86,2.76-8.47,10.98,3.92,27C45.83,256.2,55.23,276.19,55,301.93z"/>
			</g>
			<g id="XMLID_1183_" class="st1">
				<path id="XMLID_1184_" class="st0" d="M55,301.93l8.65-5.6c0,0,4.19-22.31,1.08-42.04c-4.38-27.74-23.27-37.31-30.13-34.55
					c-6.86,2.76-8.47,10.98,3.92,27C45.83,256.2,55.23,276.19,55,301.93z"/>
			</g>
			<g id="XMLID_1181_">
				<path id="XMLID_1182_" class="st0" d="M58.15,290.92c-0.03,0-0.06,0-0.09-0.01c-0.34-0.05-0.58-0.36-0.53-0.7
					c3.59-25.97-6.86-54.43-18.59-65.89c-0.24-0.24-0.25-0.63-0.01-0.88c0.24-0.24,0.63-0.25,0.88-0.01
					c11.95,11.68,22.59,40.59,18.95,66.95C58.72,290.69,58.45,290.92,58.15,290.92z"/>
			</g>
		</g>
		<g id="XMLID_1169_">
			<g id="XMLID_1178_">
				<path id="XMLID_1179_" class="st2" d="M33.22,316.02c-1.3,0.74-4.99-2.11-6.02-2.8c-1.75-1.18-3.17-2.84-4.12-4.73
					c-1.1-2.19-1.38-4.54-1.03-6.97c0.18-1.26,0.53-2.48,0.88-3.71c0.34-1.2,0.69-2.4,1.03-3.6c0.34-1.18,0.68-2.41,0.53-3.63
					c-0.31-2.46-2.5-4.18-4.48-5.67c-2.2-1.64-4.48-3.81-4.47-6.78c0.01-2.29,1.19-4.41,2.61-6.2c1.42-1.79,3.1-3.38,4.38-5.27
					c0.92-1.36,1.64-2.96,1.49-4.6c-0.09-1.02-0.52-1.98-1-2.88c-1.05-1.93-2.43-3.69-3.15-5.77c-0.72-2.07-0.62-4.65,1-6.13
					c1.33-1.22,3.3-1.39,5.1-1.27c1.66,0.11,3.29,0.86,4.74,1.67c4.7,2.61,7.39,8.18,12.38,10.2c1.92,0.78,4.03,0.95,6.04,1.48
					c2.01,0.53,4.05,1.55,4.98,3.41c1.83,3.66-1.57,8.17-0.28,12.05c1.14,3.44,4.48,4.75,6.35,7.85c0.82,1.35,1.01,2.92,0.88,4.5
					c-0.22,2.67-0.62,4.63-1.9,7.6c-1.06,2.46-4.15,7.15-4.15,7.15S33.41,315.9,33.22,316.02z"/>
			</g>
			<g id="XMLID_1176_" class="st3">
				<path id="XMLID_1177_" class="st2" d="M33.22,316.02c-1.3,0.74-4.99-2.11-6.02-2.8c-1.75-1.18-3.17-2.84-4.12-4.73
					c-1.1-2.19-1.38-4.54-1.03-6.97c0.18-1.26,0.53-2.48,0.88-3.71c0.34-1.2,0.69-2.4,1.03-3.6c0.34-1.18,0.68-2.41,0.53-3.63
					c-0.31-2.46-2.5-4.18-4.48-5.67c-2.2-1.64-4.48-3.81-4.47-6.78c0.01-2.29,1.19-4.41,2.61-6.2c1.42-1.79,3.1-3.38,4.38-5.27
					c0.92-1.36,1.64-2.96,1.49-4.6c-0.09-1.02-0.52-1.98-1-2.88c-1.05-1.93-2.43-3.69-3.15-5.77c-0.72-2.07-0.62-4.65,1-6.13
					c1.33-1.22,3.3-1.39,5.1-1.27c1.66,0.11,3.29,0.86,4.74,1.67c4.7,2.61,7.39,8.18,12.38,10.2c1.92,0.78,4.03,0.95,6.04,1.48
					c2.01,0.53,4.05,1.55,4.98,3.41c1.83,3.66-1.57,8.17-0.28,12.05c1.14,3.44,4.48,4.75,6.35,7.85c0.82,1.35,1.01,2.92,0.88,4.5
					c-0.22,2.67-0.62,4.63-1.9,7.6c-1.06,2.46-4.15,7.15-4.15,7.15S33.41,315.9,33.22,316.02z"/>
			</g>
			<g id="XMLID_1174_">
				<path id="XMLID_1175_" class="st2" d="M45.78,308.64c-0.01,0-0.02,0-0.02,0c-0.33-0.01-0.58-0.29-0.57-0.61
					c0.97-23.25-9.99-48.91-17.95-56.36c-0.24-0.22-0.25-0.59-0.03-0.83c0.22-0.24,0.59-0.25,0.83-0.03
					c8.12,7.61,19.3,33.7,18.32,57.27C46.35,308.4,46.09,308.64,45.78,308.64z"/>
			</g>
			<g id="XMLID_1171_">
				<path id="XMLID_1173_" class="st2" d="M42.04,280.23c-0.06,0-0.12-0.01-0.17-0.03c-7.47-2.31-16.78-2.72-16.87-2.72
					c-0.32-0.01-0.57-0.29-0.56-0.61c0.01-0.32,0.26-0.58,0.61-0.56c0.09,0,9.55,0.42,17.17,2.77c0.31,0.1,0.48,0.42,0.39,0.73
					C42.52,280.07,42.29,280.23,42.04,280.23z"/>
			</g>
		</g>
	</g>
</g>
<g id="Floor">
	<ellipse id="Floor_5_" class="st4" cx="253.68" cy="351.66" rx="230.99" ry="133.36"/>
</g>
<g id="Shadows">
	<path id="Shadow_11_" class="st5" d="M130.92,294.81c48.92-28.25,128.24-28.25,177.17,0c41.47,23.94,47.77,60.49,18.93,88.28
		l107.65,61.36c6.56,3.79,6.56,9.93,0,13.72l-9.67,5.59c-6.56,3.79-17.02,3.5-23.36-0.65l-94.03-65.74
		c-48.96,27.98-127.92,27.89-176.69-0.26C82,368.85,82,323.06,130.92,294.81z"/>
</g>
<g id="Clouds">
	<path id="Cloud_2_" class="st6" d="M467.34,18.08l-8.49,4.9c0.04-0.38,0.07-0.76,0.07-1.12V19.4c0-4.38-3.07-6.15-6.86-3.96
		c-1.54,0.89-2.95,2.29-4.09,3.93c-0.62-5.5-4.94-7.55-10.18-4.52c-5.67,3.27-10.27,11.23-10.27,17.78v3.68
		c0,1.7,0.31,3.12,0.87,4.26l-7.05,4.07c-2.1,1.21-3.81,4.17-3.81,6.59c0,2.43,1.7,3.41,3.81,2.2l46-26.56
		c2.1-1.21,3.81-4.17,3.81-6.59C471.15,17.85,469.44,16.87,467.34,18.08z"/>
	<path id="Cloud_1_" class="st6" d="M38.9,71.56l4.78-3.68V57.33c0-8.36,6.67-18.06,13.9-22.23l0,0c7.24-4.18,13.1-0.79,13.1,7.57
		v1.53c1.64-2.55,3.76-4.75,6.08-6.08l0,0c5.21-3.01,9.43-0.57,9.43,5.44v0.7l6.67-3.85c3.43-1.98,6.21-0.38,6.21,3.58
		s-2.78,8.78-6.21,10.76L38.9,85.9c-3.43,1.98-6.21,0.38-6.21-3.58S35.47,73.54,38.9,71.56z"/>
	<path id="Cloud_3_" class="st6" d="M435.66,477.95l4.79-3.68v-10.54c0-8.36,6.67-18.06,13.9-22.23l0,0
		c7.24-4.18,13.1-0.79,13.1,7.57v1.53c1.64-2.55,3.76-4.75,6.08-6.08l0,0c5.21-3.01,9.43-0.57,9.43,5.44v0.7l6.67-3.85
		c3.43-1.98,6.21-0.38,6.21,3.58s-2.78,8.78-6.21,10.76l-53.97,31.16c-3.43,1.98-6.21,0.38-6.21-3.58S432.23,479.93,435.66,477.95z"
		/>
	<path id="Cloud_4_" class="st6" d="M195.7,452.19l5.66,2.1l8.93-5.6c7.08-4.44,18.84-3.95,26.22-0.04l0,0
		c7.38,3.91,7.63,10.68,0.55,15.12l-1.3,0.81c3.03,0.04,6.02,0.67,8.39,1.92l0,0c5.31,2.81,5.49,7.69,0.4,10.88l-0.59,0.37
		l6.81,3.61c3.5,1.85,3.62,5.06,0.26,7.17c-3.35,2.1-8.91,2.31-12.41,0.45l-55.08-29.17c-3.5-1.85-3.62-5.06-0.26-7.17
		C186.64,450.54,192.2,450.34,195.7,452.19z"/>
	<path id="Cloud_5_" class="st6" d="M35.45,456.62l5.89,1.33l8.12-6.73c6.43-5.33,18.16-6.39,25.99-3.48l0,0
		c7.83,2.91,8.97,9.58,2.54,14.92l-1.18,0.98c3.01-0.36,6.05-0.13,8.56,0.8l0,0c5.64,2.09,6.45,6.9,1.82,10.73l-0.54,0.44l7.22,2.68
		c3.71,1.38,4.25,4.54,1.2,7.07c-3.05,2.53-8.53,3.46-12.24,2.08l-58.43-21.68c-3.71-1.38-4.25-4.54-1.2-7.07
		S31.74,455.24,35.45,456.62z"/>
</g>
<g id="Glass">
	<g id="Glass_1_">
		<g id="XMLID_283_">
			<g>
				<path id="XMLID_296_" class="st0" d="M109.83,313.19v30.43c0,16.52,10.92,33.04,32.75,45.64c43.66,25.21,114.46,25.21,158.12,0
					c21.83-12.6,32.75-29.12,32.75-45.64v-30.43l0,0c0-16.52-10.92-33.04-32.75-45.64c-43.66-25.21-114.46-25.21-158.12,0
					C120.75,280.15,109.83,296.67,109.83,313.19L109.83,313.19z M322.63,313.19c0,13.22-9.71,26.1-27.34,36.28
					c-19.5,11.26-45.66,17.46-73.65,17.46c-28,0-54.15-6.2-73.65-17.46c-17.63-10.18-27.34-23.06-27.34-36.28
					c0-13.22,9.71-26.1,27.34-36.28c19.5-11.26,45.66-17.46,73.65-17.46c28,0,54.15,6.2,73.65,17.46
					C312.93,287.09,322.63,299.98,322.63,313.19z"/>
				<path id="XMLID_276_" class="st7" d="M109.83,313.19v30.43c0,16.52,10.92,33.04,32.75,45.64c43.66,25.21,114.46,25.21,158.12,0
					c21.83-12.6,32.75-29.12,32.75-45.64v-30.43l0,0c0-16.52-10.92-33.04-32.75-45.64c-43.66-25.21-114.46-25.21-158.12,0
					C120.75,280.15,109.83,296.67,109.83,313.19L109.83,313.19z M322.63,313.19c0,13.22-9.71,26.1-27.34,36.28
					c-19.5,11.26-45.66,17.46-73.65,17.46c-28,0-54.15-6.2-73.65-17.46c-17.63-10.18-27.34-23.06-27.34-36.28
					c0-13.22,9.71-26.1,27.34-36.28c19.5-11.26,45.66-17.46,73.65-17.46c28,0,54.15,6.2,73.65,17.46
					C312.93,287.09,322.63,299.98,322.63,313.19z"/>
				<path class="st8" d="M333.34,346.46c-1.74,10.46-6.35,18.34-24.91,32.84c-26.26,20.5-92.72,28.87-131.31,16.13
					c-36.38-12.01-47.98-35.48-47.98-51.6l0.09-9.47c-5.62-6.69-8.58-13.89-8.58-21.18c0-7.48,3.11-14.85,9-21.69l0.13-13.33h-2.09
					c-11.9,10.62-17.86,22.82-17.86,35.02v30.43c0,16.52,10.92,33.04,32.75,45.64c43.66,25.21,114.46,25.21,158.12,0
					C321.28,377.39,332.16,362.02,333.34,346.46z"/>
			</g>
			<g>
				<path id="XMLID_291_" class="st2" d="M300.71,267.55c-43.66-25.21-114.46-25.21-158.12,0c-43.66,25.21-43.66,66.08,0,91.29
					c43.66,25.21,114.46,25.21,158.12,0C344.37,333.63,344.37,292.76,300.71,267.55z M295.3,349.47
					c-19.5,11.26-45.66,17.46-73.65,17.46c-27.99,0-54.15-6.2-73.65-17.46c-17.63-10.18-27.34-23.06-27.34-36.28
					c0-13.22,9.71-26.1,27.34-36.28c19.5-11.26,45.66-17.46,73.65-17.46c28,0,54.15,6.2,73.65,17.46
					c17.63,10.18,27.34,23.06,27.34,36.28C322.64,326.41,312.93,339.29,295.3,349.47z"/>
				<path id="XMLID_273_" class="st9" d="M300.71,267.55c-43.66-25.21-114.46-25.21-158.12,0c-43.66,25.21-43.66,66.08,0,91.29
					c43.66,25.21,114.46,25.21,158.12,0C344.37,333.63,344.37,292.76,300.71,267.55z M295.3,349.47
					c-19.5,11.26-45.66,17.46-73.65,17.46c-27.99,0-54.15-6.2-73.65-17.46c-17.63-10.18-27.34-23.06-27.34-36.28
					c0-13.22,9.71-26.1,27.34-36.28c19.5-11.26,45.66-17.46,73.65-17.46c28,0,54.15,6.2,73.65,17.46
					c17.63,10.18,27.34,23.06,27.34,36.28C322.64,326.41,312.93,339.29,295.3,349.47z"/>
			</g>
			<g id="XMLID_286_">
				<path id="XMLID_288_" class="st10" d="M322.65,313.19c0,5.19-1.49,10.29-4.37,15.22c-4.43-7.68-12.24-14.88-22.99-21.06
					c-19.48-11.27-45.65-17.47-73.66-17.47c-27.98,0-54.15,6.21-73.63,17.47c-10.75,6.18-18.55,13.39-23.01,21.06
					c-2.85-4.93-4.35-10.03-4.35-15.22c0-13.21,9.71-26.1,27.36-36.29c19.48-11.25,45.65-17.45,73.63-17.45
					c28,0,54.17,6.21,73.66,17.45C312.94,287.09,322.65,299.98,322.65,313.19z"/>
				<path id="XMLID_287_" class="st11" d="M322.65,313.19c0,5.19-1.49,10.29-4.37,15.22c-4.43-7.68-12.24-14.88-22.99-21.06
					c-19.48-11.27-45.65-17.47-73.66-17.47c-27.98,0-54.15,6.21-73.63,17.47c-10.75,6.18-18.55,13.39-23.01,21.06
					c-2.85-4.93-4.35-10.03-4.35-15.22c0-13.21,9.71-26.1,27.36-36.29c19.48-11.25,45.65-17.45,73.63-17.45
					c28,0,54.17,6.21,73.66,17.45C312.94,287.09,322.65,299.98,322.65,313.19z"/>
				<path class="st12" d="M148,276.9c-17.65,10.19-27.36,23.07-27.36,36.29c0,5.19,1.49,10.29,4.35,15.22
					c4.46-7.68,12.26-14.88,23.01-21.06c4.38-2.53,9.12-4.8,14.12-6.81c-4.26,1.65-17.34,5.86-12.57-6.61
					c5.67-14.82,33.33-30.85,53.67-33.52l0.01-0.03C182.31,262.49,163.14,268.17,148,276.9z"/>
			</g>
		</g>
		<path id="XMLID_285_" class="st13" d="M295.3,290.69c-19.5-11.26-45.66-17.46-73.65-17.46c-28,0-54.15,6.2-73.65,17.46
			c-14.55,8.4-23.68,18.64-26.44,29.39c2.76,10.75,11.89,20.99,26.44,29.39c19.5,11.26,45.66,17.46,73.65,17.46
			c28,0,54.15-6.2,73.65-17.46c14.55-8.4,23.68-18.64,26.44-29.39C318.99,309.33,309.85,299.09,295.3,290.69z"/>
		<path class="st14" d="M140.52,327.06c6.25,4.9,13.34,7.98,20.57,10.46c7.25,2.45,14.7,4.19,22.21,5.48
			c15.04,2.53,30.34,3.24,45.56,2.6c7.61-0.33,15.23-1.04,22.8-2.07c7.55-1.08,15.06-2.43,22.39-4.41
			c7.32-1.96,14.51-4.45,21.13-8.02c1.66-0.89,3.26-1.87,4.8-2.93c1.56-1.05,3.02-2.23,4.39-3.5c1.37-1.28,2.63-2.7,3.69-4.27
			c1.09-1.56,1.92-3.32,2.49-5.22c0.06,1.99-0.35,4.02-1.02,5.96c-0.7,1.93-1.7,3.76-2.85,5.48c-1.14,1.73-2.48,3.32-3.93,4.8
			c-1.43,1.5-2.99,2.85-4.59,4.15c-6.47,5.13-13.86,8.83-21.43,11.77c-7.59,2.91-15.44,5-23.36,6.51
			c-7.92,1.51-15.93,2.44-23.99,2.84c-16.11,0.75-32.4-0.78-48-5.11c-7.78-2.21-15.4-5.1-22.51-9.01c-3.54-1.97-6.96-4.17-10.1-6.73
			c-0.79-0.63-1.54-1.32-2.3-1.98c-0.73-0.7-1.48-1.37-2.17-2.11C142.9,330.26,141.63,328.71,140.52,327.06z"/>
		<g id="XMLID_259_">
			<g id="XMLID_280_">
				<path id="XMLID_282_" class="st15" d="M297.38,378.21c-0.02-5,3.46-11.09,7.78-13.6c2.15-1.25,4.09-1.38,5.51-0.58l0,0
					l0.02,0.01l0,0l24.91,14.25c0.01,0.01,0.02,0.01,0.03,0.01l0.01,0l0,0c1.41,0.82,2.29,2.56,2.3,5.05
					c0.02,5-3.46,11.09-7.78,13.6c-2.16,1.26-4.12,1.38-5.54,0.57l0,0l-24.91-14.24l0,0C298.28,382.47,297.39,380.72,297.38,378.21z
					"/>
				<path id="XMLID_281_" class="st16" d="M299.71,383.28c-1.43-0.81-2.33-2.56-2.34-5.07c-0.01-1.88,0.48-3.92,1.33-5.86
					l35.81,20.52c-1.24,1.7-2.74,3.14-4.36,4.08c-2.16,1.26-4.12,1.38-5.54,0.57L299.71,383.28L299.71,383.28z"/>
			</g>
			<g>
				<path class="st17" d="M420.44,418.81L420.44,418.81L420.44,418.81c-0.02-0.01-0.03-0.02-0.04-0.02l-79.26-40.39c0,0,0,0-0.01,0
					l-0.11-0.06l-0.01,0.01c-1.84-0.99-4.33-0.82-7.09,0.79c-5.62,3.27-10.15,11.2-10.12,17.7c0.01,3.26,1.17,5.54,3.03,6.6
					l74.53,47.98l0,0c2.91,1.83,6.35,2.89,10.05,2.89c10.44,0,18.9-8.46,18.9-18.9C430.31,428.25,426.32,422.01,420.44,418.81z"/>
				<path class="st15" d="M326.84,403.44l74.53,47.98c2.91,1.83,6.35,2.89,10.05,2.89c10.03,0,18.21-7.81,18.83-17.68
					c-1.43,6.2-11.69,11.49-24.41,4.37c-12.79-7.15-59.83-36.88-81.25-49.21c-0.51,1.71-0.79,3.42-0.78,5.05
					C323.82,400.1,324.98,402.38,326.84,403.44z"/>
				<path class="st2" d="M326.84,403.44c-1.86-1.06-3.01-3.34-3.03-6.6c-0.03-6.5,4.51-14.43,10.12-17.7
					c2.75-1.61,5.25-1.78,7.09-0.79l7.02,3.56c-1.89-1.02-4.45-0.84-7.27,0.81c-5.76,3.36-10.41,11.49-10.38,18.15
					c0.01,3.34,1.15,5.73,3.05,6.82"/>
				<path class="st18" d="M333.44,407.69c-1.9-1.08-3.04-3.47-3.05-6.82c-0.01-1.68,0.28-3.45,0.81-5.21
					c-2.39-1.42-4.62-2.72-6.61-3.87c-0.25,0.85-0.45,1.71-0.58,2.56c-0.07,0.42-0.12,0.84-0.15,1.26
					c-0.03,0.42-0.05,0.83-0.05,1.23c0.01,3.26,1.17,5.54,3.03,6.6L333.44,407.69z"/>
			</g>
		</g>
	</g>
</g>
<g id="Paper_Planes">
	<g id="Paper_Plane_3_">
		<g>
			<g id="XMLID_373_">
				<polygon class="st0" points="137.21,449.76 77.21,419.75 53.31,430.33 				"/>
			</g>
			<g id="XMLID_372_" class="st19">
				<polygon class="st0" points="137.21,449.76 77.21,419.75 53.31,430.33 				"/>
			</g>
			<g id="XMLID_359_">
				<polygon class="st0" points="137.21,449.76 84.36,414.43 93.82,400.83 				"/>
			</g>
			<g id="XMLID_358_" class="st19">
				<polygon class="st0" points="137.21,449.76 84.36,414.43 93.82,400.83 				"/>
			</g>
			<g id="XMLID_357_">
				<polygon class="st0" points="84.36,414.43 85.35,423.83 137.21,449.76 				"/>
			</g>
			<g id="XMLID_356_" class="st18">
				<polygon class="st0" points="84.36,414.43 85.35,423.83 137.21,449.76 				"/>
			</g>
		</g>
		<g>
			<g>
				<g>
					<path class="st17" d="M75.8,412.63c0.14,0,0.28-0.05,0.39-0.16c0.25-0.24,0.27-0.65,0.06-0.93c-0.39-0.5-0.77-0.99-1.16-1.5
						c-0.21-0.28-0.59-0.31-0.84-0.08c-0.25,0.23-0.28,0.65-0.07,0.93c0.38,0.51,0.77,1.01,1.16,1.51
						C75.47,412.55,75.64,412.63,75.8,412.63z"/>
				</g>
			</g>
			<g>
				<g>
					<path class="st17" d="M70.53,405.81c-0.71-1.04-1.4-2.09-2.07-3.15c-0.19-0.3-0.12-0.71,0.14-0.92
						c0.27-0.21,0.64-0.14,0.83,0.16c0.66,1.05,1.34,2.09,2.05,3.12c0.2,0.29,0.15,0.7-0.12,0.92c-0.11,0.09-0.23,0.13-0.36,0.13
						C70.83,406.07,70.65,405.98,70.53,405.81z M65.24,397.22c-0.62-1.12-1.21-2.24-1.78-3.37c-0.16-0.32-0.06-0.72,0.23-0.9
						c0.28-0.18,0.65-0.06,0.81,0.25c0.56,1.12,1.15,2.22,1.76,3.32c0.17,0.31,0.08,0.72-0.2,0.91c-0.1,0.07-0.21,0.1-0.31,0.1
						C65.55,397.54,65.35,397.42,65.24,397.22z M60.78,388.06c-0.5-1.18-0.98-2.39-1.42-3.58c-0.13-0.34,0.02-0.72,0.32-0.86
						c0.3-0.14,0.65,0.02,0.78,0.36c0.44,1.17,0.91,2.36,1.4,3.52c0.14,0.33,0.01,0.72-0.29,0.88c-0.08,0.04-0.17,0.06-0.25,0.06
						C61.1,388.44,60.88,388.3,60.78,388.06z M57.32,378.38c-0.37-1.25-0.7-2.51-1-3.75c-0.09-0.35,0.1-0.71,0.42-0.81
						c0.32-0.1,0.64,0.11,0.73,0.46c0.3,1.22,0.63,2.46,0.99,3.68c0.1,0.35-0.07,0.72-0.38,0.83c-0.06,0.02-0.12,0.03-0.18,0.03
						C57.64,378.83,57.4,378.65,57.32,378.38z M55.02,368.27c-0.21-1.27-0.39-2.57-0.54-3.86c-0.04-0.36,0.19-0.69,0.51-0.74
						c0.32-0.04,0.62,0.21,0.66,0.57c0.15,1.27,0.32,2.55,0.53,3.8c0.06,0.36-0.16,0.7-0.48,0.77c-0.04,0.01-0.07,0.01-0.11,0.01
						C55.33,368.81,55.08,368.59,55.02,368.27z M54,357.91c-0.04-1.02-0.05-2.04-0.06-3.07l0-0.84c0-0.36,0.27-0.65,0.59-0.65
						c0,0,0.01,0,0.01,0c0.33,0.01,0.59,0.3,0.59,0.67l0,0.82c0,1.01,0.02,2.02,0.06,3.02c0.01,0.36-0.24,0.67-0.57,0.69
						c-0.01,0-0.02,0-0.02,0C54.27,358.55,54.01,358.27,54,357.91z M54.79,348.22c-0.33-0.03-0.57-0.36-0.54-0.72
						c0.11-1.29,0.25-2.59,0.42-3.88c0.05-0.36,0.35-0.61,0.67-0.56c0.32,0.05,0.55,0.39,0.5,0.75c-0.16,1.27-0.3,2.55-0.41,3.82
						c-0.03,0.34-0.29,0.6-0.59,0.6C54.83,348.22,54.81,348.22,54.79,348.22z M56.19,338c-0.32-0.08-0.52-0.43-0.45-0.79
						c0.26-1.27,0.56-2.54,0.89-3.79c0.09-0.35,0.42-0.55,0.74-0.45c0.32,0.1,0.5,0.47,0.4,0.82c-0.32,1.22-0.62,2.47-0.87,3.71
						c-0.06,0.3-0.31,0.51-0.58,0.51C56.28,338.02,56.24,338.01,56.19,338z M58.89,328.11c-0.31-0.14-0.45-0.52-0.33-0.86
						c0.44-1.2,0.91-2.41,1.41-3.59c0.14-0.33,0.5-0.47,0.79-0.32c0.3,0.16,0.42,0.55,0.28,0.88c-0.49,1.16-0.96,2.34-1.38,3.52
						c-0.09,0.26-0.32,0.41-0.55,0.41C59.04,328.16,58.96,328.15,58.89,328.11z M62.95,318.82c-0.28-0.19-0.37-0.59-0.2-0.9
						c0.6-1.12,1.24-2.23,1.9-3.3c0.19-0.3,0.56-0.38,0.83-0.17c0.27,0.21,0.34,0.62,0.16,0.92c-0.65,1.05-1.27,2.14-1.87,3.23
						c-0.11,0.21-0.31,0.32-0.51,0.32C63.15,318.91,63.04,318.88,62.95,318.82z M68.26,310.33c-0.25-0.23-0.29-0.65-0.08-0.93
						c0.75-1,1.54-1.99,2.34-2.94c0.23-0.27,0.6-0.28,0.84-0.03c0.24,0.25,0.25,0.67,0.03,0.93c-0.78,0.93-1.55,1.89-2.29,2.88
						c-0.12,0.16-0.29,0.24-0.46,0.24C68.51,310.49,68.37,310.44,68.26,310.33z M74.69,302.85c-0.22-0.27-0.19-0.69,0.05-0.93
						c0.88-0.87,1.79-1.71,2.7-2.52c0.26-0.23,0.63-0.18,0.84,0.11c0.2,0.29,0.16,0.7-0.1,0.93c-0.9,0.79-1.79,1.62-2.65,2.47
						c-0.11,0.11-0.25,0.17-0.39,0.17C74.97,303.07,74.8,302.99,74.69,302.85z M82.05,296.52c-0.18-0.31-0.1-0.71,0.18-0.91
						c1.01-0.72,2.03-1.39,3.04-2c0.29-0.17,0.65-0.06,0.81,0.26c0.16,0.32,0.05,0.72-0.24,0.9c-0.99,0.6-1.99,1.26-2.97,1.95
						c-0.1,0.07-0.21,0.1-0.32,0.1C82.36,296.82,82.17,296.71,82.05,296.52z"/>
				</g>
			</g>
			<g>
				<g>
					<path class="st17" d="M90.9,292.2c0.06,0,0.12-0.01,0.18-0.03c0.63-0.23,1.18-0.38,1.63-0.45c0.32-0.05,0.55-0.39,0.5-0.75
						c-0.05-0.36-0.36-0.62-0.67-0.56c-0.51,0.08-1.13,0.25-1.82,0.5c-0.31,0.11-0.48,0.48-0.38,0.83
						C90.41,292.02,90.65,292.2,90.9,292.2z"/>
				</g>
			</g>
		</g>
	</g>
	<g id="Paper_Plane_2_">
		<g id="XMLID_16655_">
			<polygon id="XMLID_16653_" class="st0" points="371.7,62.15 310.2,43.3 357.58,75.85 			"/>
			<polygon id="XMLID_383_" class="st20" points="371.7,62.15 310.2,43.3 357.58,75.85 			"/>
			<polygon id="XMLID_16654_" class="st0" points="310.2,43.3 376.39,53.95 390.51,40.25 			"/>
			<polygon id="XMLID_386_" class="st20" points="310.2,43.3 376.39,53.95 390.51,40.25 			"/>
			<polygon id="XMLID_16619_" class="st0" points="376.39,53.95 376.46,70.31 371.7,62.15 310.2,43.3 			"/>
			<polygon id="XMLID_382_" class="st7" points="376.39,53.95 376.46,70.31 371.7,62.15 310.2,43.3 			"/>
			<polygon id="XMLID_16671_" class="st0" points="376.46,70.31 366.99,66.71 371.7,62.15 			"/>
			<polygon id="XMLID_377_" class="st7" points="371.7,62.15 366.99,66.71 368.5,67.29 			"/>
		</g>
		<g>
			<g>
				<g>
					<path class="st17" d="M388.86,59.27c-0.11,0.08-0.19,0.21-0.21,0.36c-0.05,0.34,0.18,0.69,0.52,0.78
						c0.61,0.16,1.22,0.32,1.83,0.49c0.34,0.09,0.66-0.11,0.71-0.44c0.06-0.34-0.17-0.69-0.51-0.78c-0.61-0.17-1.23-0.33-1.84-0.5
						C389.17,59.13,388.99,59.17,388.86,59.27z"/>
				</g>
			</g>
			<g>
				<g>
					<path class="st17" d="M397.19,61.5c1.2,0.4,2.38,0.82,3.56,1.25c0.33,0.12,0.53,0.49,0.44,0.82c-0.08,0.33-0.43,0.49-0.76,0.37
						c-1.16-0.43-2.33-0.85-3.52-1.24c-0.33-0.11-0.54-0.47-0.47-0.8c0.03-0.14,0.1-0.25,0.2-0.32
						C396.79,61.47,396.99,61.43,397.19,61.5z M406.6,65.12c1.17,0.51,2.32,1.05,3.46,1.6c0.32,0.15,0.48,0.54,0.36,0.85
						c-0.12,0.32-0.48,0.44-0.8,0.29c-1.12-0.55-2.26-1.08-3.41-1.58c-0.32-0.14-0.5-0.52-0.39-0.84c0.04-0.11,0.1-0.2,0.19-0.27
						C406.16,65.06,406.39,65.03,406.6,65.12z M415.7,69.71c1.12,0.64,2.23,1.31,3.3,1.98c0.3,0.19,0.42,0.59,0.27,0.88
						c-0.16,0.29-0.53,0.38-0.83,0.19c-1.06-0.67-2.15-1.32-3.25-1.95c-0.31-0.18-0.45-0.57-0.3-0.87c0.04-0.08,0.1-0.15,0.16-0.2
						C415.22,69.6,415.48,69.58,415.7,69.71z M424.32,75.32c1.05,0.77,2.08,1.57,3.07,2.37c0.28,0.23,0.35,0.63,0.16,0.9
						c-0.19,0.27-0.58,0.3-0.86,0.07c-0.97-0.79-1.99-1.57-3.02-2.33c-0.29-0.21-0.38-0.61-0.2-0.89c0.03-0.05,0.08-0.1,0.13-0.14
						C423.79,75.15,424.08,75.15,424.32,75.32z M432.27,81.96c0.94,0.89,1.87,1.81,2.77,2.75c0.25,0.26,0.27,0.66,0.04,0.9
						c-0.22,0.23-0.62,0.21-0.87-0.05c-0.88-0.92-1.8-1.83-2.72-2.7c-0.26-0.25-0.3-0.65-0.08-0.9c0.02-0.03,0.05-0.05,0.08-0.07
						C431.7,81.71,432.03,81.74,432.27,81.96z M439.36,89.58c0.65,0.79,1.28,1.59,1.9,2.41l0.51,0.67c0.22,0.29,0.18,0.68-0.08,0.88
						c0,0,0,0-0.01,0c-0.26,0.19-0.65,0.12-0.87-0.18l-0.49-0.66c-0.61-0.8-1.24-1.59-1.87-2.37c-0.23-0.28-0.21-0.68,0.04-0.89
						c0.01,0,0.01-0.01,0.02-0.01C438.76,89.24,439.14,89.31,439.36,89.58z M444.61,97.78c0.28-0.17,0.67-0.06,0.86,0.25
						c0.69,1.09,1.37,2.22,2.02,3.34c0.18,0.31,0.09,0.7-0.2,0.85c-0.29,0.16-0.67,0.03-0.85-0.29c-0.64-1.11-1.31-2.22-1.99-3.29
						c-0.18-0.29-0.13-0.65,0.11-0.83C444.58,97.8,444.59,97.79,444.61,97.78z M449.68,106.75c0.3-0.13,0.68,0.03,0.83,0.36
						c0.56,1.17,1.09,2.36,1.59,3.55c0.14,0.33,0,0.69-0.31,0.8c-0.31,0.11-0.68-0.07-0.82-0.41c-0.48-1.17-1.01-2.34-1.56-3.48
						c-0.13-0.28-0.07-0.59,0.15-0.76C449.6,106.79,449.64,106.77,449.68,106.75z M453.53,116.25c0.33-0.08,0.67,0.14,0.78,0.48
						c0.38,1.22,0.74,2.47,1.05,3.71c0.09,0.35-0.12,0.67-0.44,0.73c-0.33,0.06-0.67-0.18-0.76-0.53c-0.31-1.22-0.66-2.44-1.03-3.64
						c-0.08-0.26,0-0.52,0.19-0.66C453.38,116.3,453.45,116.27,453.53,116.25z M455.93,126.1c0.34-0.02,0.65,0.24,0.71,0.6
						c0.2,1.25,0.36,2.52,0.49,3.78c0.04,0.35-0.21,0.64-0.55,0.64c-0.34,0-0.64-0.28-0.68-0.63c-0.12-1.23-0.28-2.47-0.47-3.7
						c-0.04-0.23,0.05-0.44,0.21-0.56C455.72,126.15,455.82,126.11,455.93,126.1z"/>
				</g>
			</g>
		</g>
	</g>
</g>
<g id="Stars_1_">
	<g id="Stars">
		<g>
			<path class="st21" d="M466.88,285.83c-2.68-1.6-6.46-1.38-10.66,1.04l-76.17,43.98c-8.13,4.69-14.72,15.85-14.72,24.92
				c0,4.43,1.57,7.54,4.13,9.01c1.39,0.8,6.78,3.91,8.18,4.71c2.67,1.52,6.4,1.28,10.54-1.11l76.17-43.98
				c8.13-4.69,14.72-15.85,14.72-24.92c0-4.41-1.56-7.51-4.1-8.99C473.58,289.67,468.22,286.63,466.88,285.83z"/>
			<g>
				<path class="st4" d="M381.42,369.95c-4.6,0-7.46-3.64-7.46-9.49c0-8.89,6.49-19.88,14.47-24.48L464.6,292
					c2.27-1.31,4.53-2.01,6.51-2.01c4.6,0,7.46,3.64,7.46,9.49c0,8.89-6.49,19.88-14.47,24.48l-76.17,43.98
					C385.66,369.26,383.41,369.95,381.42,369.95z"/>
				<path class="st6" d="M471.11,290.49L471.11,290.49c4.29,0,6.96,3.44,6.96,8.99c0,8.73-6.38,19.52-14.22,24.05l-76.17,43.98
					c-2.2,1.27-4.36,1.94-6.26,1.94c-2.05,0-3.77-0.78-4.98-2.25c-1.3-1.58-1.98-3.91-1.98-6.74c0-8.73,6.38-19.52,14.22-24.05
					l76.17-43.98C467.05,291.16,469.21,290.49,471.11,290.49 M471.11,289.49c-2.02,0-4.32,0.67-6.76,2.07l-76.17,43.98
					c-8.13,4.69-14.72,15.85-14.72,24.92c0,6.35,3.23,9.99,7.96,9.99c2.02,0,4.32-0.67,6.76-2.07l76.17-43.98
					c8.13-4.69,14.72-15.85,14.72-24.92C479.07,293.13,475.84,289.49,471.11,289.49L471.11,289.49z"/>
			</g>
		</g>
		<g id="Stars_4_">
			<g>
				<path class="st0" d="M400.12,345.36c0.31-0.58,0.26-1.17-0.03-1.34c-0.09-0.05-2.26-1.3-2.55-1.47
					c-0.09-0.06-0.21-0.07-0.36-0.01l-2.34,0.9l-0.77-1.64c-0.04-0.09-0.1-0.16-0.17-0.2c-0.32-0.18-2.48-1.44-2.55-1.47
					c-0.32-0.18-0.86,0.22-1.06,0.91l-1.59,5.21c-0.1,0.33-0.29,0.63-0.52,0.8l-3.55,2.74c-0.56,0.44-0.79,1.49-0.38,1.79l2.57,1.86
					c0.16,0.12,0.24,0.38,0.2,0.7l-0.61,5.07c-0.04,0.37,0.06,0.62,0.23,0.72c0.2,0.12,2.38,1.38,2.55,1.48
					c0.2,0.12,0.5,0.02,0.77-0.33l3.18-4.06c0.2-0.26,0.44-0.39,0.64-0.37l3.18,0.39c0.51,0.06,1.1-0.85,1-1.54l-0.61-4.37
					c-0.04-0.28,0.04-0.62,0.2-0.93L400.12,345.36z"/>
				<g>
					<path class="st20" d="M400.09,344.01c-0.09-0.05-0.21-0.06-0.35-0.01l-3.56,1.36c-0.22,0.09-0.41,0.01-0.52-0.2l-0.82-1.74
						l2.34-0.89c0.14-0.06,0.26-0.05,0.35,0.01C397.82,342.71,400,343.96,400.09,344.01z"/>
					<path class="st20" d="M391.25,347.72c-0.1,0.33-0.3,0.63-0.52,0.8l-3.55,2.74c-0.16,0.12-0.29,0.29-0.38,0.48l-2.55-1.48
						c0.09-0.18,0.23-0.35,0.38-0.48l3.55-2.74c0.23-0.17,0.42-0.47,0.52-0.8v-0.01L391.25,347.72z"/>
					<path class="st22" d="M393.92,341.61c-0.32-0.21-0.87,0.2-1.08,0.9l-1.59,5.21l-2.55-1.48l1.59-5.21
						c0.21-0.68,0.74-1.09,1.06-0.9c0.07,0.04,2.22,1.29,2.55,1.47C393.91,341.6,393.92,341.6,393.92,341.61z"/>
					<path class="st23" d="M389.37,354.91l-2.53-1.45c-0.01-0.01-0.01-0.02-0.03-0.03l-2.57-1.86c-0.3-0.21-0.26-0.82,0-1.31
						l2.55,1.48c-0.26,0.48-0.3,1.09,0,1.31L389.37,354.91z"/>
					<path class="st20" d="M388.96,360.67c-0.04,0.38,0.06,0.63,0.25,0.72c-0.01,0-0.01,0-0.02-0.01c-0.17-0.1-2.35-1.36-2.55-1.48
						c-0.17-0.1-0.27-0.35-0.23-0.72l0.61-5.07c0.03-0.3-0.03-0.55-0.18-0.67l2.53,1.45c0.01,0.01,0.01,0.01,0.02,0.01l0.01,0.01
						v0.01c0.14,0.13,0.21,0.38,0.18,0.67L388.96,360.67z"/>
				</g>
				<g>
					<path id="XMLID_1150_" class="st0" d="M394.08,341.79l1.59,3.38c0.1,0.21,0.29,0.29,0.52,0.2l3.55-1.36
						c0.56-0.22,0.79,0.58,0.38,1.35l-2.57,4.83c-0.16,0.3-0.24,0.65-0.2,0.93l0.61,4.37c0.1,0.69-0.49,1.61-1,1.54l-3.18-0.39
						c-0.2-0.02-0.44,0.11-0.64,0.37l-3.18,4.06c-0.5,0.65-1.1,0.41-1-0.39l0.61-5.07c0.04-0.32-0.04-0.58-0.2-0.7l-2.57-1.86
						c-0.41-0.3-0.18-1.35,0.38-1.79l3.55-2.74c0.22-0.17,0.42-0.47,0.52-0.8l1.59-5.21C393.09,341.68,393.82,341.26,394.08,341.79z
						"/>
					<path id="XMLID_707_" class="st24" d="M394.08,341.79l1.59,3.38c0.1,0.21,0.29,0.29,0.52,0.2l3.55-1.36
						c0.56-0.22,0.79,0.58,0.38,1.35l-2.57,4.83c-0.16,0.3-0.24,0.65-0.2,0.93l0.61,4.37c0.1,0.69-0.49,1.61-1,1.54l-3.18-0.39
						c-0.2-0.02-0.44,0.11-0.64,0.37l-3.18,4.06c-0.5,0.65-1.1,0.41-1-0.39l0.61-5.07c0.04-0.32-0.04-0.58-0.2-0.7l-2.57-1.86
						c-0.41-0.3-0.18-1.35,0.38-1.79l3.55-2.74c0.22-0.17,0.42-0.47,0.52-0.8l1.59-5.21C393.09,341.68,393.82,341.26,394.08,341.79z
						"/>
				</g>
			</g>
			<g>
				<path class="st0" d="M417.97,335.06c0.31-0.58,0.26-1.17-0.03-1.34c-0.09-0.05-2.26-1.3-2.55-1.47
					c-0.09-0.06-0.21-0.07-0.36-0.01l-2.34,0.9l-0.77-1.64c-0.04-0.09-0.1-0.16-0.17-0.2c-0.32-0.18-2.48-1.44-2.55-1.47
					c-0.32-0.18-0.86,0.22-1.06,0.91l-1.59,5.21c-0.1,0.33-0.29,0.63-0.52,0.8l-3.55,2.74c-0.56,0.44-0.79,1.49-0.38,1.79l2.57,1.86
					c0.16,0.12,0.24,0.38,0.2,0.7l-0.61,5.07c-0.04,0.37,0.06,0.62,0.23,0.72c0.2,0.12,2.38,1.38,2.55,1.48
					c0.2,0.12,0.5,0.02,0.77-0.33l3.18-4.06c0.2-0.26,0.44-0.39,0.64-0.37l3.18,0.39c0.51,0.06,1.1-0.85,1-1.54l-0.61-4.37
					c-0.04-0.28,0.04-0.62,0.2-0.93L417.97,335.06z"/>
				<g>
					<path class="st20" d="M417.94,333.72c-0.09-0.05-0.21-0.06-0.35-0.01l-3.56,1.36c-0.22,0.09-0.41,0.01-0.52-0.2l-0.82-1.74
						l2.34-0.89c0.14-0.06,0.26-0.05,0.35,0.01C415.67,332.42,417.84,333.67,417.94,333.72z"/>
					<path class="st20" d="M409.1,337.43c-0.1,0.33-0.3,0.63-0.52,0.8l-3.55,2.74c-0.16,0.12-0.29,0.29-0.38,0.48l-2.55-1.48
						c0.09-0.18,0.23-0.35,0.38-0.48l3.55-2.74c0.23-0.17,0.42-0.47,0.52-0.8v-0.01L409.1,337.43z"/>
					<path class="st22" d="M411.77,331.32c-0.32-0.21-0.87,0.2-1.08,0.9l-1.59,5.21l-2.55-1.48l1.59-5.21
						c0.21-0.68,0.74-1.09,1.06-0.9c0.07,0.04,2.22,1.29,2.55,1.47C411.76,331.31,411.77,331.31,411.77,331.32z"/>
					<path class="st23" d="M407.22,344.61l-2.53-1.45c-0.01-0.01-0.01-0.02-0.03-0.03l-2.57-1.86c-0.3-0.21-0.26-0.82,0-1.31
						l2.55,1.48c-0.26,0.48-0.3,1.09,0,1.31L407.22,344.61z"/>
					<path class="st20" d="M406.81,350.38c-0.04,0.38,0.06,0.63,0.25,0.72c-0.01,0-0.01,0-0.02-0.01c-0.17-0.1-2.35-1.36-2.55-1.48
						c-0.17-0.1-0.27-0.35-0.23-0.72l0.61-5.07c0.03-0.3-0.03-0.55-0.18-0.67l2.53,1.45c0.01,0.01,0.01,0.01,0.02,0.01l0.01,0.01
						v0.01c0.14,0.13,0.21,0.38,0.18,0.67L406.81,350.38z"/>
				</g>
				<g>
					<path id="XMLID_704_" class="st0" d="M411.92,331.5l1.59,3.38c0.1,0.21,0.29,0.29,0.52,0.2l3.55-1.36
						c0.56-0.22,0.79,0.58,0.38,1.35l-2.57,4.83c-0.16,0.3-0.24,0.65-0.2,0.93l0.61,4.37c0.1,0.69-0.49,1.61-1,1.54l-3.18-0.39
						c-0.2-0.02-0.44,0.11-0.64,0.37l-3.18,4.06c-0.5,0.65-1.1,0.41-1-0.39l0.61-5.07c0.04-0.32-0.04-0.58-0.2-0.7l-2.57-1.86
						c-0.41-0.3-0.18-1.35,0.38-1.79l3.55-2.74c0.22-0.17,0.42-0.47,0.52-0.8l1.59-5.21C410.94,331.39,411.67,330.97,411.92,331.5z"
						/>
					<path id="XMLID_410_" class="st24" d="M411.92,331.5l1.59,3.38c0.1,0.21,0.29,0.29,0.52,0.2l3.55-1.36
						c0.56-0.22,0.79,0.58,0.38,1.35l-2.57,4.83c-0.16,0.3-0.24,0.65-0.2,0.93l0.61,4.37c0.1,0.69-0.49,1.61-1,1.54l-3.18-0.39
						c-0.2-0.02-0.44,0.11-0.64,0.37l-3.18,4.06c-0.5,0.65-1.1,0.41-1-0.39l0.61-5.07c0.04-0.32-0.04-0.58-0.2-0.7l-2.57-1.86
						c-0.41-0.3-0.18-1.35,0.38-1.79l3.55-2.74c0.22-0.17,0.42-0.47,0.52-0.8l1.59-5.21C410.94,331.39,411.67,330.97,411.92,331.5z"
						/>
				</g>
			</g>
			<g>
				<path class="st0" d="M435.82,324.77c0.31-0.58,0.26-1.17-0.03-1.34c-0.09-0.05-2.26-1.3-2.55-1.47
					c-0.09-0.06-0.21-0.07-0.36-0.01l-2.34,0.9l-0.77-1.64c-0.04-0.09-0.1-0.16-0.17-0.2c-0.32-0.18-2.48-1.44-2.55-1.47
					c-0.32-0.18-0.86,0.22-1.07,0.91l-1.59,5.21c-0.1,0.33-0.29,0.63-0.52,0.8l-3.55,2.74c-0.56,0.44-0.79,1.49-0.38,1.79l2.57,1.86
					c0.16,0.12,0.24,0.38,0.2,0.7l-0.61,5.07c-0.04,0.37,0.06,0.62,0.23,0.72c0.2,0.12,2.38,1.38,2.55,1.48
					c0.2,0.12,0.5,0.02,0.77-0.33l3.18-4.06c0.2-0.26,0.44-0.39,0.64-0.37l3.18,0.39c0.5,0.06,1.1-0.85,1-1.54l-0.61-4.37
					c-0.04-0.28,0.04-0.62,0.2-0.93L435.82,324.77z"/>
				<g>
					<path class="st20" d="M435.79,323.43c-0.09-0.05-0.21-0.06-0.35-0.01l-3.56,1.36c-0.22,0.09-0.41,0.01-0.52-0.2l-0.82-1.74
						l2.34-0.89c0.14-0.06,0.26-0.05,0.35,0.01C433.52,322.13,435.69,323.38,435.79,323.43z"/>
					<path class="st20" d="M426.95,327.13c-0.1,0.33-0.3,0.63-0.52,0.8l-3.55,2.74c-0.16,0.12-0.29,0.29-0.38,0.48l-2.55-1.48
						c0.09-0.18,0.23-0.35,0.38-0.48l3.55-2.74c0.23-0.17,0.42-0.47,0.52-0.8v-0.01L426.95,327.13z"/>
					<path class="st22" d="M429.62,321.03c-0.32-0.21-0.87,0.2-1.08,0.9l-1.59,5.21l-2.55-1.48l1.59-5.21
						c0.21-0.68,0.74-1.09,1.06-0.9c0.07,0.04,2.22,1.29,2.55,1.47C429.61,321.02,429.61,321.02,429.62,321.03z"/>
					<path class="st23" d="M425.06,334.32l-2.53-1.45c-0.01-0.01-0.01-0.02-0.03-0.03l-2.57-1.86c-0.3-0.21-0.26-0.82,0-1.31
						l2.55,1.48c-0.26,0.48-0.3,1.09,0,1.31L425.06,334.32z"/>
					<path class="st20" d="M424.66,340.09c-0.04,0.38,0.06,0.63,0.25,0.72c-0.01,0-0.01,0-0.02-0.01c-0.17-0.1-2.35-1.36-2.55-1.48
						c-0.17-0.1-0.27-0.35-0.23-0.72l0.61-5.07c0.03-0.3-0.03-0.55-0.18-0.67l2.53,1.45c0.01,0.01,0.01,0.01,0.02,0.01l0.01,0.01
						v0.01c0.14,0.13,0.21,0.38,0.18,0.67L424.66,340.09z"/>
				</g>
				<g>
					<path id="XMLID_409_" class="st0" d="M429.77,321.21l1.59,3.38c0.1,0.21,0.29,0.29,0.52,0.2l3.55-1.36
						c0.56-0.22,0.79,0.58,0.38,1.35l-2.57,4.83c-0.16,0.3-0.24,0.65-0.2,0.93l0.61,4.37c0.1,0.69-0.49,1.61-1,1.54l-3.18-0.39
						c-0.2-0.02-0.44,0.11-0.64,0.37l-3.18,4.06c-0.5,0.65-1.1,0.41-1-0.39l0.61-5.07c0.04-0.32-0.04-0.58-0.2-0.7l-2.57-1.86
						c-0.41-0.3-0.18-1.35,0.38-1.79l3.55-2.74c0.22-0.17,0.42-0.47,0.52-0.8l1.59-5.21C428.79,321.1,429.52,320.68,429.77,321.21z"
						/>
					<path id="XMLID_395_" class="st24" d="M429.77,321.21l1.59,3.38c0.1,0.21,0.29,0.29,0.52,0.2l3.55-1.36
						c0.56-0.22,0.79,0.58,0.38,1.35l-2.57,4.83c-0.16,0.3-0.24,0.65-0.2,0.93l0.61,4.37c0.1,0.69-0.49,1.61-1,1.54l-3.18-0.39
						c-0.2-0.02-0.44,0.11-0.64,0.37l-3.18,4.06c-0.5,0.65-1.1,0.41-1-0.39l0.61-5.07c0.04-0.32-0.04-0.58-0.2-0.7l-2.57-1.86
						c-0.41-0.3-0.18-1.35,0.38-1.79l3.55-2.74c0.22-0.17,0.42-0.47,0.52-0.8l1.59-5.21C428.79,321.1,429.52,320.68,429.77,321.21z"
						/>
				</g>
			</g>
			<g>
				<path class="st0" d="M453.66,314.48c0.31-0.58,0.26-1.17-0.03-1.34c-0.09-0.05-2.26-1.3-2.55-1.47
					c-0.09-0.06-0.21-0.07-0.36-0.01l-2.34,0.9l-0.77-1.64c-0.04-0.09-0.1-0.16-0.17-0.2c-0.32-0.18-2.48-1.44-2.55-1.47
					c-0.32-0.18-0.86,0.22-1.06,0.91l-1.59,5.21c-0.1,0.33-0.29,0.63-0.52,0.8l-3.55,2.74c-0.56,0.44-0.79,1.49-0.38,1.79l2.57,1.86
					c0.16,0.12,0.24,0.38,0.2,0.7l-0.61,5.07c-0.04,0.37,0.06,0.62,0.23,0.72c0.2,0.12,2.38,1.38,2.55,1.48
					c0.2,0.12,0.5,0.02,0.77-0.33l3.18-4.06c0.2-0.26,0.44-0.39,0.64-0.37l3.18,0.39c0.51,0.06,1.1-0.85,1-1.54l-0.61-4.37
					c-0.04-0.28,0.04-0.62,0.2-0.93L453.66,314.48z"/>
				<g>
					<path class="st20" d="M453.63,313.14c-0.09-0.05-0.21-0.06-0.35-0.01l-3.56,1.36c-0.22,0.09-0.41,0.01-0.52-0.2l-0.82-1.74
						l2.34-0.89c0.14-0.06,0.26-0.05,0.35,0.01C451.36,311.84,453.54,313.09,453.63,313.14z"/>
					<path class="st20" d="M444.8,316.84c-0.1,0.33-0.3,0.63-0.52,0.8l-3.55,2.74c-0.16,0.12-0.29,0.29-0.38,0.48l-2.55-1.48
						c0.09-0.18,0.23-0.35,0.38-0.48l3.55-2.74c0.23-0.17,0.42-0.47,0.52-0.8v-0.01L444.8,316.84z"/>
					<path class="st22" d="M447.47,310.74c-0.32-0.21-0.87,0.2-1.08,0.9l-1.59,5.21l-2.55-1.48l1.59-5.21
						c0.21-0.68,0.74-1.09,1.06-0.91c0.07,0.04,2.22,1.29,2.55,1.47C447.46,310.73,447.46,310.73,447.47,310.74z"/>
					<path class="st23" d="M442.91,324.03l-2.53-1.45c-0.01-0.01-0.01-0.02-0.03-0.03l-2.57-1.86c-0.3-0.21-0.26-0.82,0-1.31
						l2.55,1.48c-0.26,0.48-0.3,1.09,0,1.31L442.91,324.03z"/>
					<path class="st20" d="M442.5,329.8c-0.04,0.38,0.06,0.63,0.25,0.72c-0.01,0-0.01,0-0.02-0.01c-0.17-0.1-2.35-1.36-2.55-1.48
						c-0.17-0.1-0.27-0.35-0.23-0.72l0.61-5.07c0.03-0.3-0.03-0.55-0.18-0.67l2.53,1.45c0.01,0.01,0.01,0.01,0.02,0.01l0.01,0.01
						v0.01c0.14,0.13,0.21,0.38,0.18,0.67L442.5,329.8z"/>
				</g>
				<g>
					<path id="XMLID_394_" class="st0" d="M447.62,310.92l1.59,3.38c0.1,0.21,0.29,0.29,0.52,0.2l3.55-1.36
						c0.56-0.22,0.79,0.58,0.38,1.35l-2.57,4.83c-0.16,0.3-0.24,0.65-0.2,0.93l0.61,4.37c0.1,0.69-0.49,1.61-1,1.54l-3.18-0.39
						c-0.2-0.02-0.44,0.11-0.64,0.37l-3.18,4.06c-0.5,0.65-1.1,0.41-1-0.39l0.61-5.07c0.04-0.32-0.04-0.58-0.2-0.7l-2.57-1.86
						c-0.41-0.29-0.18-1.35,0.38-1.79l3.55-2.74c0.22-0.17,0.42-0.47,0.52-0.8l1.59-5.21C446.64,310.81,447.37,310.39,447.62,310.92
						z"/>
					<path id="XMLID_392_" class="st24" d="M447.62,310.92l1.59,3.38c0.1,0.21,0.29,0.29,0.52,0.2l3.55-1.36
						c0.56-0.22,0.79,0.58,0.38,1.35l-2.57,4.83c-0.16,0.3-0.24,0.65-0.2,0.93l0.61,4.37c0.1,0.69-0.49,1.61-1,1.54l-3.18-0.39
						c-0.2-0.02-0.44,0.11-0.64,0.37l-3.18,4.06c-0.5,0.65-1.1,0.41-1-0.39l0.61-5.07c0.04-0.32-0.04-0.58-0.2-0.7l-2.57-1.86
						c-0.41-0.29-0.18-1.35,0.38-1.79l3.55-2.74c0.22-0.17,0.42-0.47,0.52-0.8l1.59-5.21C446.64,310.81,447.37,310.39,447.62,310.92
						z"/>
				</g>
			</g>
			<g>
				<path class="st0" d="M471.51,304.19c0.31-0.58,0.26-1.17-0.03-1.34c-0.09-0.05-2.26-1.3-2.55-1.47
					c-0.09-0.06-0.21-0.07-0.36-0.01l-2.34,0.9l-0.77-1.64c-0.04-0.09-0.1-0.16-0.17-0.2c-0.32-0.18-2.48-1.44-2.55-1.47
					c-0.32-0.18-0.86,0.22-1.06,0.91l-1.59,5.21c-0.1,0.33-0.29,0.63-0.52,0.8l-3.55,2.74c-0.56,0.44-0.79,1.49-0.38,1.79l2.57,1.86
					c0.16,0.12,0.24,0.38,0.2,0.7l-0.61,5.07c-0.04,0.37,0.06,0.62,0.23,0.72c0.2,0.12,2.38,1.38,2.55,1.48
					c0.2,0.12,0.5,0.02,0.77-0.33l3.18-4.06c0.2-0.26,0.44-0.39,0.64-0.37l3.18,0.39c0.51,0.06,1.1-0.85,1-1.54l-0.61-4.37
					c-0.04-0.28,0.04-0.62,0.2-0.93L471.51,304.19z"/>
				<g>
					<path class="st20" d="M471.48,302.85c-0.09-0.05-0.21-0.06-0.35-0.01l-3.56,1.36c-0.22,0.09-0.41,0.01-0.52-0.2l-0.82-1.74
						l2.34-0.89c0.14-0.06,0.26-0.05,0.35,0.01C469.21,301.55,471.39,302.8,471.48,302.85z"/>
					<path class="st20" d="M462.65,306.55c-0.1,0.33-0.3,0.63-0.52,0.8l-3.55,2.74c-0.16,0.12-0.29,0.29-0.38,0.48l-2.55-1.48
						c0.09-0.18,0.23-0.35,0.38-0.48l3.55-2.74c0.23-0.17,0.42-0.47,0.52-0.8v-0.01L462.65,306.55z"/>
					<path class="st22" d="M465.32,300.44c-0.32-0.21-0.87,0.2-1.08,0.9l-1.59,5.21l-2.55-1.48l1.59-5.21
						c0.21-0.68,0.74-1.09,1.06-0.91c0.07,0.04,2.22,1.29,2.55,1.47C465.3,300.44,465.31,300.44,465.32,300.44z"/>
					<path class="st23" d="M460.76,313.74l-2.53-1.45c-0.01-0.01-0.01-0.02-0.03-0.03l-2.57-1.86c-0.3-0.21-0.26-0.82,0-1.31
						l2.55,1.48c-0.26,0.48-0.3,1.09,0,1.31L460.76,313.74z"/>
					<path class="st20" d="M460.35,319.51c-0.04,0.38,0.06,0.63,0.25,0.72c-0.01,0-0.01,0-0.02-0.01c-0.17-0.1-2.35-1.36-2.55-1.48
						c-0.17-0.1-0.27-0.35-0.23-0.72l0.61-5.07c0.03-0.3-0.03-0.55-0.18-0.67l2.53,1.45c0.01,0.01,0.01,0.01,0.02,0.01l0.01,0.01
						v0.01c0.14,0.13,0.21,0.38,0.18,0.67L460.35,319.51z"/>
				</g>
				<g>
					<path id="XMLID_389_" class="st0" d="M465.47,300.63l1.59,3.38c0.1,0.21,0.29,0.29,0.52,0.2l3.55-1.36
						c0.56-0.22,0.79,0.58,0.38,1.35l-2.57,4.83c-0.16,0.3-0.24,0.65-0.2,0.93l0.61,4.37c0.1,0.69-0.49,1.61-1,1.54l-3.18-0.39
						c-0.2-0.02-0.44,0.11-0.64,0.37l-3.18,4.06c-0.5,0.65-1.1,0.41-1-0.39l0.61-5.07c0.04-0.32-0.04-0.58-0.2-0.7l-2.57-1.86
						c-0.41-0.3-0.18-1.35,0.38-1.79l3.55-2.74c0.22-0.17,0.42-0.47,0.52-0.8l1.59-5.21C464.49,300.52,465.22,300.09,465.47,300.63z
						"/>
					<path id="XMLID_387_" class="st24" d="M465.47,300.63l1.59,3.38c0.1,0.21,0.29,0.29,0.52,0.2l3.55-1.36
						c0.56-0.22,0.79,0.58,0.38,1.35l-2.57,4.83c-0.16,0.3-0.24,0.65-0.2,0.93l0.61,4.37c0.1,0.69-0.49,1.61-1,1.54l-3.18-0.39
						c-0.2-0.02-0.44,0.11-0.64,0.37l-3.18,4.06c-0.5,0.65-1.1,0.41-1-0.39l0.61-5.07c0.04-0.32-0.04-0.58-0.2-0.7l-2.57-1.86
						c-0.41-0.3-0.18-1.35,0.38-1.79l3.55-2.74c0.22-0.17,0.42-0.47,0.52-0.8l1.59-5.21C464.49,300.52,465.22,300.09,465.47,300.63z
						"/>
				</g>
			</g>
		</g>
	</g>
</g>
<g id="Speech_Bubbles_1_">
	<g id="Speech_Bubbles">
		<g id="Speech_Bubble_15_">
			<g id="Speech_Bubble_1_">
				<path class="st15" d="M378.54,109c-7.53-4.36-17.89-3.77-29.32,2.83c-23.02,13.29-41.69,45.87-41.69,72.76
					c0,13.53,4.74,23.02,12.37,27.43c1.76,1.02,8.69,4.97,8.68,5.01c-0.76,5.18-2.92,10.64-9.71,14.66
					c-0.44,0.26-0.16,0.68,0.22,0.91c0.16,0.09,10.18,5.88,10.57,6.1c0.16,0.09,0.33,0.15,0.48,0.15
					c10.4,0.02,22.46-6.99,25.81-21.55c1.26-0.59,2.53-1.25,3.82-1.99c23.02-13.29,41.69-45.87,41.69-72.76
					c0-13.53-4.73-23.04-12.36-27.46C387.33,114.06,380.3,110.02,378.54,109z"/>
				<path class="st17" d="M359.78,117.93c-23.02,13.29-41.69,45.87-41.69,72.76c0,18.24,8.6,29.17,21.31,30.17
					c-0.47,5.8-2.17,12.32-9.97,16.93c-0.62,0.36,0.19,1.06,0.71,1.06c10.4,0.02,22.46-6.99,25.81-21.55
					c1.26-0.59,2.53-1.25,3.82-1.99c23.02-13.29,41.69-45.87,41.69-72.76C401.47,115.66,382.8,104.64,359.78,117.93z"/>
				<path class="st16" d="M329.43,237.78c-0.38,0.23-0.21,0.58,0.1,0.83c-1.25-0.71-10.29-5.92-10.43-6.02
					c-0.39-0.23-0.66-0.65-0.22-0.91c6.8-4.01,8.95-9.48,9.71-14.66l1.16,0.68l1.05,0.62c2.57,1.43,5.46,2.27,8.6,2.52
					C338.93,226.65,337.23,233.17,329.43,237.78z"/>
			</g>
			<g>
				<g>
					<path class="st4" d="M355.38,194.89c-1.12-0.79-1.67-2.21-1.67-4.26c0-2.05,0.55-4.08,1.64-6.09c1.09-2.01,2.49-3.51,4.19-4.49
						c1.7-0.98,3.1-1.1,4.19-0.35c1.09,0.75,1.64,2.15,1.64,4.2c0,2.05-0.56,4.12-1.67,6.19c-1.11,2.07-2.5,3.59-4.16,4.55
						C357.89,195.59,356.5,195.68,355.38,194.89z M353.89,140.53L365.2,134l-1.89,38.12l-7.53,4.35L353.89,140.53z"/>
				</g>
			</g>
		</g>
		<path class="st18" d="M365.34,211.65c12.28-9,22.86-23.26,29.35-38.58C382.41,182.07,371.82,196.33,365.34,211.65z"/>
		<g id="Speech_Bubble_16_">
			<g id="Speech_Bubble_13_">
				<path class="st21" d="M443.86,263.75c-4.25,0.04-7.42-2.93-9.41-6.68c12.76-15.69,21.39-36.59,21.39-54.87
					c0-13.56-4.75-23.07-12.4-27.48c-1.77-1.02-8.78-5.06-10.55-6.08c-7.53-4.35-17.87-3.75-29.3,2.85
					c-23.02,13.29-41.69,45.87-41.69,72.76c0,13.53,4.73,23.04,12.36,27.45c1.78,1.03,8.79,5.05,10.53,6.07
					c7.53,4.39,17.91,3.81,29.36-2.81c2.99-1.72,5.9-3.78,8.71-6.1c7.75,6.13,17.19-0.55,20.93-3.75
					C444.27,264.69,444.33,263.75,443.86,263.75z"/>
				<g>
					<path class="st25" d="M395.69,279.95c-13.93,0-22.59-11.34-22.59-29.6c0-26.64,18.56-59.03,41.37-72.19
						c6.38-3.68,12.48-5.55,18.13-5.55c13.93,0,22.59,11.34,22.59,29.6c0,17.48-8.14,38.34-21.24,54.46l-0.27,0.33l0.2,0.38
						c2.35,4.43,5.76,6.91,9.62,7.02c-0.03,0.08-0.08,0.16-0.14,0.22c-2.66,2.27-7.94,6.09-13.41,6.09c0,0,0,0,0,0
						c-2.46,0-4.71-0.79-6.69-2.36l-0.41-0.33l-0.41,0.33c-2.83,2.34-5.73,4.37-8.62,6.04
						C407.44,278.08,401.34,279.95,395.69,279.95z"/>
					<path class="st26" d="M432.59,171.95l0,1.3c13.53,0,21.94,11.1,21.94,28.96c0,17.33-8.08,38.04-21.09,54.05l-0.54,0.67
						l0.4,0.76c2.16,4.08,5.21,6.59,8.7,7.22c-2.78,2.21-7.37,5.16-12.06,5.16c-2.31,0-4.43-0.75-6.29-2.22l-0.82-0.65l-0.81,0.67
						c-2.81,2.32-5.68,4.33-8.53,5.97c-6.28,3.62-12.27,5.46-17.8,5.46c-13.53,0-21.94-11.1-21.94-28.96
						c0-26.43,18.41-58.57,41.04-71.63c6.28-3.62,12.27-5.46,17.8-5.46V171.95 M432.59,171.95c-5.56,0-11.83,1.81-18.45,5.64
						c-23.02,13.29-41.69,45.87-41.69,72.76c0,19.15,9.47,30.25,23.24,30.25c5.56,0,11.83-1.81,18.45-5.64
						c2.99-1.72,5.9-3.78,8.71-6.1c2.28,1.8,4.71,2.5,7.09,2.5c5.72,0,11.2-3.99,13.84-6.25c0.5-0.43,0.56-1.36,0.09-1.36
						c0,0,0,0,0,0c-0.03,0-0.06,0-0.09,0c-4.21,0-7.34-2.96-9.32-6.68c12.76-15.69,21.39-36.59,21.39-54.87
						C455.83,183.05,446.36,171.95,432.59,171.95L432.59,171.95z"/>
				</g>
			</g>
			<g>
				<path class="st17" d="M412.02,230.85c0.95-2.39,2.34-5.21,4.16-8.48c1.34-2.39,2.32-4.32,2.95-5.79
					c0.63-1.47,0.94-2.91,0.94-4.31c0-2-0.6-3.23-1.79-3.71c-1.19-0.47-2.79-0.13-4.77,1.01c-1.9,1.1-3.6,2.6-5.07,4.51
					c-1.48,1.91-2.72,4.1-3.74,6.57l-7.35-1.51c1.7-4.44,4-8.44,6.9-12c2.9-3.56,6.33-6.49,10.3-8.78c4.66-2.69,8.4-3.52,11.21-2.5
					c2.82,1.02,4.22,3.88,4.22,8.58c0,2.22-0.27,4.32-0.82,6.31c-0.55,1.99-1.22,3.8-2.01,5.41c-0.79,1.62-1.81,3.55-3.07,5.78
					c-1.5,2.65-2.59,4.78-3.28,6.39c-0.69,1.61-1.03,3.28-1.03,5.01l-9.18,5.3C410.6,235.84,411.07,233.24,412.02,230.85z
					 M411.05,256.58c-1.11-0.79-1.67-2.21-1.67-4.26c0-2.05,0.55-4.08,1.64-6.09c1.09-2.01,2.49-3.5,4.19-4.49
					c1.7-0.98,3.1-1.1,4.19-0.35c1.09,0.74,1.64,2.15,1.64,4.2c0,2.05-0.56,4.12-1.67,6.19c-1.11,2.08-2.5,3.59-4.16,4.55
					C413.55,257.28,412.17,257.36,411.05,256.58z"/>
			</g>
		</g>
	</g>
</g>
<g id="FAQ_1_">
	<g id="Speech_Bubble_3_">
		<g id="Speech_Bubble_12_">
			<g>
				<path class="st0" d="M200.78,185.3l-46,26.64L173.05,243c0.4,0.89,1.02,1.54,1.75,1.96c2.18,1.24,15.09,8.71,15.8,9.12
					c2.18,1.26,5.34,0.37,6.17-2.46l19.84-57.18L200.78,185.3z"/>
				<path class="st7" d="M200.78,185.3l-46,26.64L173.05,243c0.4,0.89,1.02,1.54,1.75,1.96c2.18,1.24,15.09,8.71,15.8,9.12
					c2.18,1.26,5.34,0.37,6.17-2.46l19.84-57.18L200.78,185.3z"/>
				<path class="st0" d="M170.61,221.08l18.27,31.06c1.59,3.58,6.78,3.24,7.89-0.52l19.84-57.18L170.61,221.08z"/>
			</g>
			<g>
				<path id="XMLID_355_" class="st0" d="M252.1,25.98L78.63,126.13c-2.2,1.27-3.98,4.36-3.98,6.9v120.4c0,2.54,1.79,5.61,4,6.86
					l14.26,8c2.21,1.25,5.79,1.23,7.99-0.04l173.47-100.15c2.2-1.27,3.98-4.36,3.98-6.9V40.8c0-2.54-1.79-5.61-4-6.86l-14.27-8
					C257.88,24.69,254.3,24.71,252.1,25.98z"/>
				<path id="XMLID_345_" class="st27" d="M278.3,40.07c-0.31-2.01-1.95-2.72-3.94-1.58L100.91,138.65c-1.1,0.64-2.1,1.73-2.81,2.98
					l-22.2-12.67c0.72-1.2,1.67-2.23,2.74-2.83L252.11,25.97c2.19-1.27,5.76-1.29,7.98-0.04l14.26,7.99
					C276.36,35.07,278.03,37.7,278.3,40.07z"/>
				<path id="XMLID_304_" class="st0" d="M96.92,266.4V146c0-2.54,1.78-5.63,3.98-6.9L274.38,38.96c2.2-1.27,3.98-0.24,3.98,2.3
					v120.4c0,2.54-1.78,5.63-3.98,6.9L100.9,268.7C98.7,269.97,96.92,268.94,96.92,266.4z"/>
				<path id="XMLID_284_" class="st7" d="M100.9,268.24c-2.12,1.23-5.99,1.27-7.99,0.05l-14.26-8.01c-2.21-1.23-4.01-4.3-4.01-6.84
					V133.03c0-1.32,0.5-2.78,1.27-4.06l22.18,12.67c-0.74,1.23-1.18,2.65-1.18,3.92v120.39C96.92,268.26,98.56,269.6,100.9,268.24z"
					/>
			</g>
		</g>
		<g id="FAQ">
			<g>
				<path class="st21" d="M145.59,170.02l-1.74-1c-1.35-0.78-3-0.78-4.35,0l-10.56,6.1v-14.45l19.56-11.3
					c1.88-1.09,3.04-3.1,3.04-5.27v-8.1c0-2.18-1.16-4.19-3.05-5.27l0,0c-1.88-1.09-4.2-1.09-6.09,0l-27.13,15.67
					c-3.27,1.89-5.29,5.38-5.29,9.15v75.19c0,2.18,1.16,4.19,3.05,5.27l0,0c1.88,1.09,4.2,1.09,6.09,0l6.77-3.91
					c1.88-1.09,3.04-3.1,3.04-5.27v-29.49l16.65-9.61c1.35-0.78,2.18-2.21,2.18-3.77v-10.17
					C147.77,172.23,146.94,170.79,145.59,170.02z"/>
				<path class="st28" d="M119.71,235.66l-0.58,0.34c-0.94,0.55-2,0.82-3.05,0.82c-1.05,0-2.1-0.27-3.04-0.82
					c-1.89-1.08-3.05-3.1-3.05-5.27v-75.19c0-1.78,0.46-3.48,1.27-4.99l6.09,3.51c-0.82,1.51-1.27,3.22-1.27,4.99v74.49
					C116.08,235.4,118.1,236.58,119.71,235.66z"/>
				<path class="st4" d="M128.94,160.66v21.48l16.62-9.6c0.98-0.57,2.2,0.14,2.2,1.27v10.15c0,1.55-0.83,2.98-2.16,3.75l-16.66,9.62
					v29.5c0,2.17-1.16,4.18-3.04,5.26l-6.16,3.56c-1.63,0.94-3.66-0.23-3.66-2.11v-74.48c0-3.78,2.01-7.27,5.29-9.15l26.88-15.52
					c1.47-0.85,3.3,0.21,3.3,1.91v7.83c0,2.16-1.15,4.16-3.02,5.24L128.94,160.66z"/>
			</g>
			<g>
				<path class="st21" d="M186.99,115.24c-0.52-1.77-1.7-3.28-3.3-4.2c-1.12-0.64-2.36-0.96-3.6-0.96c-1.24,0-2.48,0.32-3.6,0.96
					l-6.73,3.89c-1.75,1.01-3,2.71-3.43,4.69l-20.06,91.34c-0.35,1.6,0.38,3.23,1.79,4.05l1.84,1.06c1.16,0.67,2.59,0.67,3.75,0
					l8.11-4.68c1.05-0.61,1.94-1.56,2.66-2.85c0.72-1.28,1.22-2.55,1.49-3.8l3.26-16.66l16.4-9.47l1.7,6.77
					c0.36,1.04,0.87,1.76,1.55,2.16c0.68,0.4,5.41,3.11,6.09,3.52c0.68,0.4,1.58,0.28,2.69-0.36l9.9-5.72L186.99,115.24z
					 M173.66,165.07l3.52-18.12c0.07-0.31,0.14-0.63,0.21-0.96l3.72,14.77L173.66,165.07z"/>
				<path class="st28" d="M194.83,191.01c-0.89-0.53-5.35-3.08-6.01-3.47c-0.68-0.4-1.19-1.12-1.55-2.16l-1.7-6.77l4.54-2.62
					l3.25,12.9C193.71,189.89,194.19,190.59,194.83,191.01z"/>
				<path class="st28" d="M187.2,164.28l-6.09-3.52l-3.72-14.77c0,0,0,0,0-0.01c0-0.02,0.01-0.04,0.01-0.06
					c0.32-1.44,0.64-3.08,0.99-4.9c0.43-2.27,0.83-4.69,1.21-7.28c0.43,2.08,0.86,4,1.29,5.75c0.43,1.75,0.83,3.25,1.21,4.51
					L187.2,164.28z"/>
				<path class="st28" d="M152.47,213.99c-0.24,1.09,0.79,1.97,1.77,1.68l-0.02,0.08l-0.57,0.32c-1.16,0.67-2.59,0.67-3.75,0
					l-1.84-1.06c-1.41-0.82-2.14-2.45-1.79-4.05l20.06-91.34c0.18-0.85,0.53-1.65,1-2.37l6.09,3.52c-0.48,0.71-0.82,1.51-1,2.36
					L152.47,213.99z"/>
				<path class="st4" d="M207.51,184.98l-9.91,5.72c-1.11,0.64-2,0.76-2.68,0.36c-0.68-0.4-1.2-1.12-1.55-2.16l-3.25-12.91
					l-20.95,12.09l-3.25,16.66c-0.28,1.25-0.77,2.51-1.49,3.8c-0.72,1.29-1.61,2.24-2.67,2.85l-7.17,4.14
					c-1.08,0.62-2.38-0.33-2.11-1.55l19.95-90.86c0.43-1.98,1.68-3.68,3.43-4.69l6.47-3.73c1.97-1.14,4.48-0.13,5.12,2.05
					L207.51,184.98z M187.2,164.28L182.1,144c-0.38-1.25-0.78-2.76-1.21-4.51c-0.43-1.75-0.86-3.67-1.29-5.75
					c-0.38,2.59-0.78,5.01-1.21,7.28c-0.43,2.27-0.83,4.25-1.21,5.94l-5.07,26.03L187.2,164.28z"/>
			</g>
			<g>
				<path class="st21" d="M254.91,150.04c1.71-2.93,3.24-6.04,4.59-9.34c1.35-3.3,2.48-6.7,3.4-10.18
					c0.92-3.48,1.63-7.04,2.12-10.68c0.49-3.64,0.74-7.28,0.74-10.93c0-6.09-0.69-11.38-2.06-15.87c-1.38-4.48-3.31-7.94-5.8-10.38
					c-0.9-0.87-1.85-1.6-2.88-2.18c-1-0.57-5.01-2.9-6-3.47c-1.86-1.09-3.94-1.7-6.23-1.83c-3.52-0.2-7.42,0.94-11.7,3.41
					c-4.29,2.47-8.2,5.83-11.72,10.08c-3.53,4.25-6.55,9.04-9.06,14.37c-2.51,5.33-4.45,11.03-5.82,17.1
					c-1.38,6.07-2.06,12.17-2.06,18.3s0.68,11.44,2.06,15.93c1.37,4.48,3.31,7.95,5.82,10.4c0.9,0.89,1.88,1.62,2.91,2.2
					c0.99,0.56,4.95,2.86,5.93,3.43c1.88,1.1,3.98,1.71,6.31,1.83c3.52,0.17,7.43-0.98,11.72-3.45c1.82-1.05,3.55-2.25,5.19-3.6
					l2.48,2.85c0.37,0.37,0.75,0.67,1.14,0.89c0.7,0.41,5.68,3.27,6.06,3.5c0.71,0.42,1.45,0.6,2.23,0.54
					c1.2-0.09,2.56-0.57,4.07-1.45l10.51-6.06L254.91,150.04z M245.53,124.94c-0.71,3.76-1.72,7.19-3.05,10.28
					c-1.32,3.1-2.94,5.81-4.85,8.13c-1.92,2.33-4.1,4.2-6.54,5.61c-2.27,1.32-4.31,1.97-6.12,1.98c-0.97-1.47-1.74-3.39-2.31-5.77
					c-0.71-2.95-1.06-6.53-1.06-10.76c0-4.2,0.35-8.17,1.06-11.94c0.7-3.76,1.72-7.19,3.04-10.28c1.32-3.09,2.95-5.82,4.88-8.17
					c1.93-2.36,4.13-4.25,6.6-5.68c2.22-1.28,4.22-1.92,6.01-1.92c0.98,1.48,1.76,3.42,2.34,5.82c0.7,2.95,1.06,6.52,1.06,10.71
					C246.59,117.18,246.23,121.17,245.53,124.94z"/>
				<path class="st28" d="M218.9,170.25c-1.27-0.73-4.76-2.76-5.68-3.28c-1.03-0.58-2.01-1.31-2.91-2.2
					c-2.51-2.45-4.45-5.92-5.82-10.4c-1.38-4.49-2.06-9.8-2.06-15.93s0.68-12.23,2.06-18.3c1.27-5.62,3.03-10.92,5.28-15.91
					l6.09,3.52c-2.25,4.98-4.01,10.28-5.28,15.91c-1.38,6.07-2.06,12.17-2.06,18.3c0,6.13,0.68,11.44,2.06,15.92
					c1.37,4.49,3.31,7.96,5.82,10.41C217.18,169.05,218.02,169.71,218.9,170.25z"/>
				<path class="st28" d="M248.57,98.98c-1.32-1.56-2.94-2.41-4.85-2.55c-0.17-0.01-0.35,0-0.53,0c0.98,1.48,1.76,3.42,2.34,5.81
					c0.7,2.95,1.06,6.52,1.06,10.71c0,4.23-0.36,8.22-1.06,11.99c-0.71,3.76-1.72,7.19-3.05,10.28c-1.32,3.1-2.94,5.81-4.85,8.13
					c-1.92,2.33-4.1,4.2-6.54,5.61c-2.27,1.32-4.31,1.97-6.12,1.98c0.22,0.36,0.47,0.69,0.73,1c1.32,1.57,2.95,2.41,4.88,2.51
					c1.93,0.11,4.13-0.54,6.6-1.97c2.44-1.41,4.62-3.28,6.54-5.61c1.91-2.33,3.53-5.04,4.85-8.13c1.33-3.09,2.34-6.52,3.05-10.29
					c0.7-3.76,1.06-7.76,1.06-11.99c0-4.19-0.36-7.76-1.06-10.71C250.91,102.8,249.9,100.54,248.57,98.98z"/>
				<path class="st28" d="M244.1,163.68c-0.57,0.52-1.14,1.02-1.73,1.5l2.48,2.85c0.37,0.37,0.75,0.67,1.14,0.89
					c0.68,0.4,5.37,3.09,6.01,3.47c-0.36-0.22-0.72-0.5-1.06-0.85L244.1,163.68z"/>
				<path class="st4" d="M268.86,165.45l-10.51,6.07c-1.51,0.87-2.87,1.35-4.06,1.44c-1.2,0.09-2.31-0.38-3.35-1.42l-6.84-7.87
					c-2.14,1.97-4.45,3.67-6.92,5.1c-4.29,2.47-8.19,3.62-11.72,3.45c-3.53-0.17-6.55-1.49-9.05-3.94
					c-2.51-2.45-4.45-5.92-5.82-10.41c-1.37-4.48-2.06-9.79-2.06-15.92c0-6.13,0.69-12.23,2.06-18.3c1.37-6.07,3.31-11.77,5.82-17.1
					c2.51-5.33,5.53-10.12,9.05-14.37c3.53-4.25,7.44-7.61,11.72-10.08c4.28-2.47,8.18-3.61,11.7-3.41c3.52,0.2,6.52,1.52,9.02,3.96
					c2.49,2.44,4.43,5.9,5.8,10.39c1.37,4.49,2.06,9.77,2.06,15.87c0,3.65-0.25,7.29-0.74,10.93c-0.49,3.64-1.2,7.2-2.12,10.68
					c-0.92,3.48-2.05,6.87-3.4,10.17c-1.35,3.3-2.88,6.42-4.59,9.35L268.86,165.45z M221.6,134.41c0,4.23,0.35,7.82,1.06,10.77
					c0.71,2.95,1.72,5.21,3.04,6.77c1.32,1.57,2.95,2.4,4.88,2.51c1.93,0.11,4.13-0.55,6.6-1.98c2.44-1.41,4.63-3.28,6.54-5.61
					c1.91-2.33,3.54-5.04,4.86-8.13c1.32-3.09,2.34-6.52,3.04-10.29c0.71-3.76,1.06-7.76,1.06-11.99c0-4.19-0.35-7.76-1.06-10.71
					c-0.71-2.95-1.72-5.21-3.04-6.77c-1.32-1.56-2.94-2.41-4.86-2.55c-1.92-0.14-4.1,0.5-6.54,1.91c-2.47,1.43-4.67,3.32-6.6,5.67
					c-1.93,2.36-3.55,5.08-4.88,8.17c-1.32,3.09-2.34,6.52-3.04,10.29C221.96,126.24,221.6,130.22,221.6,134.41z"/>
			</g>
		</g>
	</g>
</g>
</svg>
