<?xml version="1.0" encoding="utf-8"?>
<!-- Generator: Adobe Illustrator 24.1.1, SVG Export Plug-In . SVG Version: 6.00 Build 0)  -->
<svg version="1.1" id="Слой_1" xmlns="http://www.w3.org/2000/svg" xmlns:xlink="http://www.w3.org/1999/xlink" x="0px" y="0px"
	 viewBox="0 0 2300 2000" style="enable-background:new 0 0 2300 2000;" xml:space="preserve">
<style type="text/css">
	.st0{fill:#2B478B;}
	.st1{fill:#FFB27D;}
	.st2{fill:#F99746;}
	.st3{fill:#EFA26F;}
	.st4{fill:#FFC197;}
	.st5{fill:#0275D8;}
	.st6{fill:#C0D8FB;}
	.st7{fill:#CBE1FD;}
	.st8{fill:#FFD3B6;}
	.st9{fill:#ED7D2B;}
	.st10{fill:#DCEAFF;}
	.st11{fill:#699DEE;}
	.st12{fill:#9ABFF6;}
	.st13{fill:#FFFFFF;}
	.st14{fill:#D2E3FC;}
</style>
<rect x="-1" y="-1" class="st0" width="2300" height="2000"/>
<g>
	<path class="st1" d="M1344.51,991.91c0,0-95.75,191.54-193,323.76c-38.7,52.62-77.64,95.84-110.87,113.87
		c-32.53,17.64-60.07,45.04-82.86,75.41c-59.02,78.63-86.25,177.07-86.25,177.07l-248.7-376.25c0,0,8.49-367.78,38.35-429.31
		c43.52-89.65,64.54-270.79,81.26-306.86c12.4-26.75,47.82-164.94,51.22-175.1c1.48-4.38,13.26-11.09,28.57-11.07
		c12.28,0,33.14,11.87,38.39,36.27c26.6,123.31-5.42,204.64-5.05,208.26c9.38,94.77-18.82,165.11,0.96,183.74
		c0.74,0.69,2.1,0.36,4.04-0.87c34.28-22.01,247.08-332.24,273.28-338.94C1161.53,464.82,1344.51,991.91,1344.51,991.91z"/>
	<path class="st2" d="M946.35,1607.55c0,0-3.39,167.2-13.08,392.38H305.95c143.39-305.78,268.05-563.15,268.05-563.15
		S931.19,1447.7,946.35,1607.55z"/>
	<path class="st1" d="M1561.95,343.67l-77.02,112.9l-75.57,110.8c-4.61,5.56-9.94,7.49-15.71,6.94
		c-18.13-1.72-40.57-27.88-58.06-42.36l-1.77-1.46c-23.06-19.08-26.32-53.55-7.24-76.59l115.51-139.63v-0.01l34.26-41.41
		c19.08-23.06,53.54-26.32,76.59-7.24l1.77,1.46C1577.77,286.14,1581.02,320.61,1561.95,343.67z"/>
	<path class="st3" d="M1484.93,456.57l-75.57,110.8c-4.61,5.56-9.94,7.49-15.71,6.94l48.44-260.04
		C1442.19,315.73,1450.42,432.4,1484.93,456.57z"/>
	<path class="st3" d="M1151.51,1315.66c-38.7,52.62-77.64,95.84-110.87,113.87c-32.53,17.64-60.07,45.04-82.86,75.41
		c-26.21-12.22-56.09-26.55-85.29-40.75c-35.56-17.28-36.93-67.78-2.09-86.49c0.34-0.18,0.67-0.37,1-0.55
		c32.64-18.68,66.09-84.62,66.09-84.62L1151.51,1315.66z"/>
	<path class="st4" d="M791.93,400.22l-20.15,81.35c0,0,17.62,7.21,28.93,1.61S821.25,404.6,791.93,400.22z"/>
	<g>
		<path class="st5" d="M1371.42,1354.1h-433.3c-42.62,0-77.49-34.87-77.49-77.49V324.19c0-42.62,34.87-77.49,77.49-77.49h433.3
			c42.62,0,77.49,34.87,77.49,77.49v952.42C1448.91,1319.23,1414.04,1354.1,1371.42,1354.1z"/>
		<g>
			<path class="st6" d="M1419.76,331.52v930.35c0,31.56-25.64,57.38-56.96,57.38H946.74c-31.32,0-56.95-25.82-56.95-57.38V331.52
				c0-31.56,25.63-57.38,56.95-57.38h416.06C1394.12,274.14,1419.76,299.96,1419.76,331.52z"/>
			<path class="st7" d="M1362.8,274.14L951.89,1319.25h-5.15c-31.32,0-56.95-25.82-56.95-57.38V331.52
				c0-31.56,25.63-57.38,56.95-57.38H1362.8z"/>
		</g>
		<path class="st5" d="M1241.72,308.74h-173.89c-14.16,0-25.75-11.59-25.75-25.75v-4.05c0-14.16,11.59-25.75,25.75-25.75h173.89
			c14.16,0,25.75,11.59,25.75,25.75v4.05C1267.47,297.15,1255.88,308.74,1241.72,308.74z"/>
	</g>
	<g>
		<path class="st1" d="M1523.61,770.03l-11.49,4.36l-77.23,29.35c-1.81,0.69-3.64,1.27-5.47,1.73
			c-25.57,6.65-52.78-6.99-62.37-32.22l-1.13-2.97c-10.28-27.04,3.44-57.58,30.48-67.86l72-27.36l5.23-1.99l11.49-4.36
			c27.04-10.28,57.57,3.44,67.84,30.49l1.13,2.97C1564.37,729.22,1550.66,759.75,1523.61,770.03z"/>
		<path class="st8" d="M1460.89,771.8c-12.89,4.88-36.22,13.55-48.7,15.34c-3.53,0.51-10.04-1.41-16.11-8.06
			c-3.64-3.98-7.13-9.66-9.71-17.52c-1.21-3.7-2.22-7.38-2.64-11.18c-0.48-4.45-0.35-8.89,0.42-13.3c0.71-3.97,3.42-7.58,7.37-9.49
			c0.01-0.01,0.04-0.01,0.06-0.03c13.27-6.34,31.15-14.06,46.84-18.37c10.84-2.99,21.81,1.79,25.24,11.28l1.62,4.43l8.29,22.7
			C1477,757.05,1471.42,767.83,1460.89,771.8z"/>
		<path class="st4" d="M1460.89,771.8c-12.89,4.88-36.22,13.55-48.7,15.34c-3.53,0.51-10.04-1.41-16.11-8.06
			c-0.65-1.51-1.24-3.11-1.81-4.81c-1.21-3.7-2.22-7.38-2.64-11.18c-0.48-4.45-0.35-8.89,0.42-13.3c0.71-3.97,3.42-7.58,7.37-9.49
			c0.01-0.01,0.04-0.01,0.06-0.03c13.27-6.34,31.16-14.06,46.84-18.37c6.95-1.92,13.93-0.65,18.96,3.01l8.29,22.7
			C1477,757.05,1471.42,767.83,1460.89,771.8z"/>
	</g>
	<g>
		<path class="st1" d="M1488.57,878.61l-59.56,16.21c-18.1,4.93-36.93-5.85-41.86-23.95l-1.83-6.74
			c-4.93-18.1,5.85-36.93,23.95-41.86l59.56-16.21c18.1-4.93,36.93,5.85,41.86,23.95l1.84,6.74
			C1517.44,854.84,1506.66,873.68,1488.57,878.61z"/>
		<path class="st8" d="M1456.36,875.69c-10.94,2.92-30.72,8.08-41.08,8.64c-3.77,0.21-11.32-2.98-16.25-12.89
			c-1.21-2.4-2.24-5.18-3.05-8.4c-0.72-2.92-1.27-5.82-1.33-8.75c-0.07-3.46,0.37-6.86,1.33-10.19c0.86-3.01,3.36-5.6,6.73-6.8
			c0.03-0.01,0.04-0.01,0.06-0.03c11.35-4.01,26.59-8.8,39.78-11.1c9.11-1.6,17.75,2.78,19.88,10.29l1.54,5.36l4.59,16.11
			C1470.68,865.38,1465.3,873.31,1456.36,875.69z"/>
		<path class="st4" d="M1456.36,875.69c-10.94,2.92-30.72,8.08-41.08,8.64c-3.77,0.21-11.32-2.98-16.25-12.89
			c-0.66-2.72-1.14-5.45-1.2-8.22c-0.07-3.44,0.37-6.86,1.33-10.19c0.86-2.99,3.36-5.6,6.73-6.8c0.03-0.01,0.04-0.01,0.06-0.03
			c11.35-4.01,26.6-8.79,39.78-11.08c7.54-1.33,14.77,1.45,18.24,6.71l4.59,16.11C1470.68,865.38,1465.3,873.31,1456.36,875.69z"/>
	</g>
	<path class="st9" d="M512.94,1563.64c0,0,122.59,117.41,205.22,162.74l62.57-44.38v65.47c0,0,123.05,21.76,161.86,0v-178.53
		l-345.62-173.26L512.94,1563.64z"/>
	<path class="st10" d="M968.7,1733.26c-47.61,9.76-150.22-27.64-150.22-27.64l16.55-159.86l-115.95,132.8
		c-59.01-21.96-151.3-79.26-206.14-114.92c-27.3-17.76-45.32-30.15-45.32-30.15c77.38-124.52,155.22-240.98,155.22-240.98
		c22.85,45.7,76.92,85.39,135.53,117.13c97.41,52.76,207.36,83.58,207.36,83.58C965.69,1588.24,968.7,1733.26,968.7,1733.26z"/>
	<g>
		<path class="st1" d="M1521.73,655.89c-0.42,0.15-0.85,0.3-1.29,0.44l-78.08,20.05c-34.33,8.82-69.83-9.75-78.9-41.28l-4.64-16.15
			c-8.71-30.27,10.01-61.92,41.91-72.18l25.78-6.62l52.3-13.43c34.33-8.82,69.83,9.75,78.9,41.28l4.64,16.15
			C1570.94,614,1552.84,645.19,1521.73,655.89z"/>
		<path class="st8" d="M1485.95,634.09l-37.93,17.1c-0.06,0.01-0.13,0.03-0.24,0.06c-1.52,0.41-3.06,0.72-4.59,0.95
			c-0.64,0.1-1.29,0.17-1.92,0.24c-0.27,0.03-0.54,0.03-0.8,0.01c-4.18-0.14-7.04-4.57-5.24-8.53c3.58-7.81,4.56-16.84,2.15-25.72
			l-0.9-3.3c0-0.03-0.01-0.07-0.03-0.1l-2.94-10.77c-2.33-8.58-7.28-15.77-13.75-20.96c-0.78-0.64-1.58-1.23-2.4-1.79
			c-7.5-5.19-5.59-16.95,3.19-19.4c0.08-0.03,0.16-0.04,0.24-0.07l41.63-6.3c10.29-2.79,20.2,5.12,23.01,15.42l3.34,12.27
			l7.12,26.16C1498.68,619.65,1496.24,631.3,1485.95,634.09z"/>
		<path class="st4" d="M1485.95,634.09l-37.93,17.1c-0.06,0.01-0.13,0.03-0.24,0.06c-0.89,0.17-3.67,0.64-7.31,1.2
			c-4.18-0.14-7.04-4.57-5.24-8.53c3.58-7.81,4.56-16.84,2.15-25.72l-0.9-3.3c0-0.03-0.01-0.07-0.03-0.1l-2.94-10.77
			c-2.33-8.58-7.28-15.77-13.75-20.96c1.34-1.96,3.35-3.52,5.97-4.25c0.07-0.03,0.16-0.04,0.24-0.07l41.63-6.3
			c8.67-2.36,17.05,2.89,21.17,10.74l7.12,26.16C1498.68,619.65,1496.24,631.3,1485.95,634.09z"/>
	</g>
	<path class="st3" d="M860.62,1062.02c0,0-17.03-148.69-32.75-177.68c-15.72-29-29.01-87.07-4.84-130.21
		c24.18-43.16,32.53-126.17,32.53-126.17c9.38,94.77-18.82,165.11,0.96,183.74c0.74,0.69,2.1,0.36,4.04-0.87L860.62,1062.02z"/>
	<path class="st11" d="M649.52,819.84h591.56c20.54,0,37.18-16.65,37.18-37.18V545.74c0-20.54-16.65-37.18-37.18-37.18H649.52
		c-20.54,0-37.18,16.65-37.18,37.18v236.92C612.34,803.19,628.99,819.84,649.52,819.84z"/>
	<g>
		<path class="st12" d="M1245.23,469.13h-231.54c-17.18,0-31.1-13.93-31.1-31.1v-43.91c0-17.18,13.93-31.1,31.1-31.1h231.54
			c17.18,0,31.1,13.93,31.1,31.1v43.91C1276.33,455.2,1262.41,469.13,1245.23,469.13z"/>
	</g>
	<g>
		<path class="st12" d="M1235.07,1247.2H968.13c-20.57,0-37.25-16.68-37.25-37.25v-56.43c0-20.57,16.68-37.25,37.25-37.25h266.94
			c20.57,0,37.25,16.68,37.25,37.25v56.43C1272.32,1230.52,1255.65,1247.2,1235.07,1247.2z"/>
	</g>
	<g>
		<path class="st2" d="M1338.83,1062.02h-252.19c-24.65,0-44.63-19.98-44.63-44.62v-98.68c0-24.65,19.98-44.63,44.63-44.63h252.19
			c24.65,0,44.62,19.98,44.62,44.63v98.68C1383.45,1042.04,1363.47,1062.02,1338.83,1062.02z"/>
	</g>
	<path class="st1" d="M2051.81,2000h-460.06c-22.06-14.79-136.63-92.94-184.04-151.2c-10.04-12.35-46.79-118.75-75.03-205.14
		c-17.63-53.96-31.95-100.14-34.37-110.73c-0.84-3.69-1.4-11-1.74-20.9v-0.1c-1.2-35.33,0.44-103.46,2.13-157.58l0.01-0.25
		l0.03-0.71c0.08-2.38,0.15-4.72,0.23-7.04v-0.08c0.01-0.23,0.01-0.47,0.02-0.7c0.31-9.4,0.61-18.26,0.89-26.32
		c0.71-20.14,1.31-35.29,1.56-41.22l0.1-2.76c0,0,0.01,0,0.02-0.01c0.73-0.41,22.86-12.22,52.44,9.09
		c7.14,5.15,13.74,17.59,19.76,33.82c3.85,10.36,7.46,22.26,10.82,34.8c12.92,48.23,22.19,105.89,27.14,121.33
		c7.98,24.95,102.04,134.67,107.92,141.49c0.09,0.12,0.19,0.23,0.28,0.34v-173.27l-71.01-190l-29.15-78l-14.65-39.2
		c0,0-22.47-36.89-41.32-81.27c-8.25-19.42-15.81-40.27-20.49-60.09c-1.12-4.72-2.07-9.39-2.83-13.96c0-0.01,0-0.01,0-0.02
		c-2.77-16.75-2.96-32.29,0.89-44.94c6.87-22.53,22.35-26.77,34.24-26.31c1.23,0.04,2.42,0.15,3.57,0.28
		c1.16,0.14,2.31,0.36,3.42,0.66c2.09,0.55,4.07,1.39,5.91,2.46c0.02,0,0.02,0.01,0.03,0.02c3.05,1.78,5.68,4.23,7.72,7.22
		c0,0,10.04,13.11,23.51,30.73c8.86,11.6,19.21,25.15,29.15,38.21c17.7,23.27,34.14,44.98,38.66,51.34
		c24.43,34.39,90.21,146.46,90.21,146.46l77,3.23c12.2,0.51,23.81,5.37,32.73,13.7c27.38,25.57,86.41,80.9,93.65,89.13
		c0,2.7,45.88,24.76,81.31,44.4c25.35,10.71,73.5,48.67,73.5,48.67c9.98,8.81,17.58,17.58,21.43,25.96
		c16.51,35.93,61.29,348.42,82.7,502.9C2046.99,1964.1,2051.46,1997.43,2051.81,2000z"/>
	<path class="st3" d="M1577.78,1186.45c0,0,71.33,116.44,80.77,121.69c9.44,5.25,46.16,12.59,50.35,0
		C1713.1,1295.54,1577.78,1186.45,1577.78,1186.45z"/>
	<path class="st3" d="M1936.33,1385.9c-0.12-0.11-0.24-0.21-0.36-0.32c0,0-48.15-37.96-73.5-48.67
		c-32.53-18.04-73.86-38.1-80.41-43.36c7.55,8.63,60.68,68.75,81.12,73.26C1881.13,1370.77,1921.9,1381.92,1936.33,1385.9z"/>
	<path class="st3" d="M1519.92,1616.13v-173.28c0,0,41.16,68.86,44.31,106.62C1567.38,1587.23,1547.13,1648.37,1519.92,1616.13z"/>
	<path class="st8" d="M1370.57,980.29c-6.02-10.32-16.8-29.03-20.5-39.5c-1.05-2.96-0.92-8.88,2.72-15.19
		c2.18-3.78,5.61-7.71,10.8-11.21c2.44-1.65,4.91-3.11,7.58-4.09c3.12-1.13,6.37-1.75,9.7-1.79c3.01-0.03,6.14,1.72,8.29,4.82
		c0.01,0.01,0.02,0.03,0.03,0.04c7.15,10.41,16.19,24.58,22.33,37.41c4.26,8.86,2.91,19.09-3.29,23.59l-2.89,2.12l-14.82,10.82
		C1384.35,991.79,1375.47,988.73,1370.57,980.29z"/>
	<path class="st4" d="M1370.57,980.29c-6.02-10.32-16.8-29.03-20.5-39.5c-1.05-2.96-0.92-8.88,2.72-15.19
		c0.97-0.8,2.01-1.57,3.13-2.34c2.44-1.65,4.91-3.11,7.58-4.09c3.13-1.13,6.37-1.74,9.7-1.79c3.01-0.03,6.14,1.72,8.29,4.82
		c0.01,0.01,0.02,0.03,0.03,0.04c7.15,10.41,16.19,24.58,22.33,37.41c2.73,5.68,3.16,11.91,1.48,16.83l-14.82,10.82
		C1384.35,991.79,1375.47,988.73,1370.57,980.29z"/>
	<path class="st13" d="M868.27,652.45c0,22.16-7.46,42.57-20.03,58.86c-4.17,5.41-8.9,10.36-14.1,14.76
		c-16.82,14.27-38.58,22.86-62.36,22.86c-21.61,0-41.55-7.09-57.63-19.1c-7.09-5.28-13.43-11.52-18.83-18.53
		c-12.57-16.29-20.03-36.7-20.03-58.86c0-53.29,43.2-96.49,96.49-96.49S868.27,599.16,868.27,652.45z"/>
	<path class="st0" d="M810.55,698.06c-0.26-0.29-0.51-0.56-0.75-0.81c-1.11-0.85-2.22-1.38-6.68-2.15
		c-2.27-0.38-5.42-0.83-9.89-1.41c0,0-0.96-0.11-1.47-0.15c-0.34-0.03-0.7-0.06-1.12-0.1c-1.28-0.67-1.61-5.98-1.6-11.58
		c0-0.42,0.01-0.84,0.01-1.26c0.02-2.12,0.09-4.21,0.17-6.09c0-0.12,0.01-0.23,0.01-0.35c2.76,0.23,4.59,0.21,4.59,0.21
		c5.14-0.41,8.35-14.19,9.5-25.33c0,0,2.54-6.11,2.54-12.72c0-3.72-0.8-7.59-3.3-10.63c-1.3-1.56-2.5-2.59-3.61-3.24
		c-0.32-0.32-0.65-0.61-0.97-0.89c-4.78-5.31-24.22-25.21-36.98-13.7c-0.33-1.15-4.48-14.07-24.6-9.84
		c1.25-0.13,10.17-0.97,12.75,2.64c-0.35-0.15-8.14-3.61-13.05-0.59c-2.27,1.38-3.68,4.25-4.48,7.27c-0.01,0.02-0.01,0.04-0.02,0.06
		c0,0.02-0.01,0.03-0.01,0.05v0.01c-0.01,0.03-0.02,0.06-0.02,0.09c-0.09,0.41-0.19,0.82-0.28,1.23c-0.01,0.06-0.03,0.12-0.04,0.19
		c0,0.02-0.01,0.03-0.01,0.05c0,0.01,0,0.01,0,0.02c-0.6,3.12-0.6,6.15-0.24,7.62c0.75,3.15,6.3,12.53,9.98,12.53
		c1.4,0,2.88-0.46,4.2-1.03c-0.57,1.66-1.08,3.48-1.5,5.46c-3.91,18.39,8.31,32.36,14.64,28.9c4.06-2.21,7.13,4.89,7.13,4.89
		l0.02-0.03c-0.6,13.45-4.29,22.23-7.03,24.42c-0.98,0.11-3.1,0.37-5.75,0.79v-0.01c0,0-9.33,1.02-16.43,4.11
		c-0.06,0.02-0.11,0.04-0.17,0.07c-1.62,0.67-3,1.42-4.03,2.24c-0.01,0.02-0.02,0.03-0.03,0.03v0.01c-0.54,0.42-0.98,0.87-1.3,1.35
		c-0.17,0.2-0.31,0.4-0.42,0.61c-2.37,4.52-4.76,11.31-7.05,19.27c13.64,10.18,30.55,16.2,48.88,16.2
		c20.17,0,38.63-7.29,52.89-19.39C819.79,706.16,813.81,700.53,810.55,698.06z"/>
	<path class="st13" d="M1043.96,603.84H934.35c-3.8,0-6.91-3.11-6.91-6.91v-3.3c0-3.8,3.11-6.91,6.91-6.91h109.61
		c3.8,0,6.91,3.11,6.91,6.91v3.3C1050.86,600.73,1047.76,603.84,1043.96,603.84z"/>
	<g>
		<path class="st13" d="M1045.28,665.37H933.01c-3.07,0-5.58-2.51-5.58-5.58l0,0c0-3.07,2.51-5.58,5.58-5.58h112.27
			c3.07,0,5.58,2.51,5.58,5.58l0,0C1050.86,662.85,1048.35,665.37,1045.28,665.37z"/>
		<path class="st13" d="M995.58,691.77h-63.88c-2.35,0-4.27-1.92-4.27-4.27v-2.61c0-2.35,1.92-4.27,4.27-4.27h63.88
			c2.35,0,4.27,1.92,4.27,4.27v2.61C999.86,689.85,997.93,691.77,995.58,691.77z"/>
		<path class="st13" d="M1125.76,691.77h-103.21c-2.95,0-5.36-2.41-5.36-5.36v-0.44c0-2.95,2.41-5.36,5.36-5.36h103.21
			c2.95,0,5.36,2.41,5.36,5.36v0.44C1131.12,689.36,1128.71,691.77,1125.76,691.77z"/>
		<path class="st13" d="M1222.2,665.37h-147.21c-3.07,0-5.58-2.51-5.58-5.58l0,0c0-3.07,2.51-5.58,5.58-5.58h147.21
			c3.07,0,5.58,2.51,5.58,5.58l0,0C1227.78,662.85,1225.26,665.37,1222.2,665.37z"/>
		<path class="st13" d="M1045.28,718.18H933.01c-3.07,0-5.58-2.51-5.58-5.58l0,0c0-3.07,2.51-5.58,5.58-5.58h112.27
			c3.07,0,5.58,2.51,5.58,5.58l0,0C1050.86,715.67,1048.35,718.18,1045.28,718.18z"/>
		<path class="st13" d="M1222.2,718.18h-147.21c-3.07,0-5.58-2.51-5.58-5.58l0,0c0-3.07,2.51-5.58,5.58-5.58h147.21
			c3.07,0,5.58,2.51,5.58,5.58l0,0C1227.78,715.67,1225.26,718.18,1222.2,718.18z"/>
	</g>
	<path class="st13" d="M1150.79,603.84h-78.72c-3.26,0-5.92-2.66-5.92-5.92v-5.28c0-3.25,2.66-5.92,5.92-5.92h78.72
		c3.25,0,5.92,2.66,5.92,5.92v5.28C1156.71,601.18,1154.05,603.84,1150.79,603.84z"/>
	<g>
		<path class="st11" d="M1051.54,1153.47h-77.93c-2.7,0-4.91-2.21-4.91-4.91v-2.34c0-2.7,2.21-4.91,4.91-4.91h77.93
			c2.7,0,4.91,2.21,4.91,4.91v2.34C1056.45,1151.26,1054.24,1153.47,1051.54,1153.47z"/>
		<g>
			<path class="st11" d="M1052.48,1184.63h-79.82c-2.18,0-3.97-1.79-3.97-3.97l0,0c0-2.18,1.79-3.97,3.97-3.97h79.82
				c2.18,0,3.97,1.78,3.97,3.97l0,0C1056.45,1182.84,1054.66,1184.63,1052.48,1184.63z"/>
			<path class="st11" d="M1017.15,1203.4h-45.41c-1.67,0-3.04-1.37-3.04-3.04v-1.86c0-1.67,1.37-3.04,3.04-3.04h45.41
				c1.67,0,3.04,1.37,3.04,3.04v1.86C1020.19,1202.03,1018.82,1203.4,1017.15,1203.4z"/>
			<path class="st11" d="M1109.7,1203.4h-73.38c-2.1,0-3.81-1.71-3.81-3.81v-0.31c0-2.1,1.72-3.81,3.81-3.81h73.38
				c2.1,0,3.81,1.71,3.81,3.81v0.31C1113.51,1201.68,1111.8,1203.4,1109.7,1203.4z"/>
			<path class="st11" d="M1178.26,1184.63H1073.6c-2.18,0-3.97-1.79-3.97-3.97l0,0c0-2.18,1.79-3.97,3.97-3.97h104.66
				c2.18,0,3.97,1.78,3.97,3.97l0,0C1182.23,1182.84,1180.44,1184.63,1178.26,1184.63z"/>
			<path class="st11" d="M1052.48,1222.17h-79.82c-2.18,0-3.97-1.79-3.97-3.97l0,0c0-2.18,1.79-3.97,3.97-3.97h79.82
				c2.18,0,3.97,1.79,3.97,3.97l0,0C1056.45,1220.39,1054.66,1222.17,1052.48,1222.17z"/>
			<path class="st11" d="M1178.26,1222.17H1073.6c-2.18,0-3.97-1.79-3.97-3.97l0,0c0-2.18,1.79-3.97,3.97-3.97h104.66
				c2.18,0,3.97,1.79,3.97,3.97l0,0C1182.23,1220.39,1180.44,1222.17,1178.26,1222.17z"/>
		</g>
		<path class="st11" d="M1127.5,1153.47h-55.97c-2.31,0-4.21-1.89-4.21-4.21v-3.75c0-2.31,1.89-4.21,4.21-4.21h55.97
			c2.31,0,4.21,1.89,4.21,4.21v3.75C1131.71,1151.58,1129.81,1153.47,1127.5,1153.47z"/>
	</g>
	<g>
		<path class="st11" d="M1103.23,395.65h-77.93c-2.7,0-4.91-2.21-4.91-4.91v-2.34c0-2.7,2.21-4.91,4.91-4.91h77.93
			c2.7,0,4.91,2.21,4.91,4.91v2.34C1108.15,393.43,1105.94,395.65,1103.23,395.65z"/>
		<g>
			<path class="st11" d="M1104.18,426.8h-79.82c-2.18,0-3.97-1.79-3.97-3.97l0,0c0-2.18,1.79-3.97,3.97-3.97h79.82
				c2.18,0,3.97,1.79,3.97,3.97l0,0C1108.15,425.01,1106.36,426.8,1104.18,426.8z"/>
			<path class="st11" d="M1068.84,445.57h-45.41c-1.67,0-3.04-1.37-3.04-3.04v-1.86c0-1.67,1.37-3.04,3.04-3.04h45.41
				c1.67,0,3.04,1.37,3.04,3.04v1.86C1071.88,444.21,1070.51,445.57,1068.84,445.57z"/>
			<path class="st11" d="M1161.4,445.57h-73.38c-2.1,0-3.81-1.71-3.81-3.81v-0.31c0-2.1,1.71-3.81,3.81-3.81h73.38
				c2.1,0,3.81,1.71,3.81,3.81v0.31C1165.21,443.86,1163.49,445.57,1161.4,445.57z"/>
			<path class="st11" d="M1229.96,426.8H1125.3c-2.18,0-3.97-1.79-3.97-3.97l0,0c0-2.18,1.79-3.97,3.97-3.97h104.66
				c2.18,0,3.97,1.79,3.97,3.97l0,0C1233.92,425.01,1232.14,426.8,1229.96,426.8z"/>
		</g>
		<path class="st11" d="M1179.19,395.65h-55.97c-2.31,0-4.21-1.89-4.21-4.21v-3.75c0-2.31,1.89-4.21,4.21-4.21h55.97
			c2.31,0,4.21,1.89,4.21,4.21v3.75C1183.4,393.75,1181.51,395.65,1179.19,395.65z"/>
	</g>
	<g>
		<path class="st9" d="M1172.12,921.86h-85.31c-2.96,0-5.38-2.42-5.38-5.38v-2.56c0-2.96,2.42-5.38,5.38-5.38h85.31
			c2.96,0,5.38,2.42,5.38,5.38v2.56C1177.49,919.44,1175.07,921.86,1172.12,921.86z"/>
		<g>
			<path class="st9" d="M1173.15,955.97h-87.39c-2.39,0-4.34-1.95-4.34-4.34l0,0c0-2.39,1.95-4.34,4.34-4.34h87.39
				c2.39,0,4.34,1.95,4.34,4.34l0,0C1177.49,954.01,1175.54,955.97,1173.15,955.97z"/>
			<path class="st9" d="M1134.46,976.52h-49.72c-1.83,0-3.33-1.5-3.33-3.33v-2.03c0-1.83,1.5-3.33,3.33-3.33h49.72
				c1.83,0,3.33,1.5,3.33,3.33v2.03C1137.79,975.02,1136.29,976.52,1134.46,976.52z"/>
			<path class="st9" d="M1235.79,976.52h-80.34c-2.29,0-4.17-1.88-4.17-4.17v-0.34c0-2.29,1.88-4.17,4.17-4.17h80.34
				c2.29,0,4.17,1.88,4.17,4.17v0.34C1239.96,974.64,1238.09,976.52,1235.79,976.52z"/>
			<path class="st9" d="M1310.85,955.97h-114.58c-2.39,0-4.34-1.95-4.34-4.34l0,0c0-2.39,1.95-4.34,4.34-4.34h114.58
				c2.39,0,4.34,1.95,4.34,4.34l0,0C1315.19,954.01,1313.24,955.97,1310.85,955.97z"/>
			<path class="st9" d="M1173.15,997.07h-87.39c-2.39,0-4.34-1.95-4.34-4.34l0,0c0-2.39,1.95-4.34,4.34-4.34h87.39
				c2.39,0,4.34,1.95,4.34,4.34l0,0C1177.49,995.12,1175.54,997.07,1173.15,997.07z"/>
			<path class="st9" d="M1310.85,997.07h-114.58c-2.39,0-4.34-1.95-4.34-4.34l0,0c0-2.39,1.95-4.34,4.34-4.34h114.58
				c2.39,0,4.34,1.95,4.34,4.34l0,0C1315.19,995.12,1313.24,997.07,1310.85,997.07z"/>
		</g>
		<g>
			<path class="st9" d="M1173.15,1018.47h-87.39c-2.39,0-4.34-1.95-4.34-4.34l0,0c0-2.39,1.95-4.34,4.34-4.34h87.39
				c2.39,0,4.34,1.95,4.34,4.34l0,0C1177.49,1016.52,1175.54,1018.47,1173.15,1018.47z"/>
			<path class="st9" d="M1310.85,1018.47h-114.58c-2.39,0-4.34-1.95-4.34-4.34l0,0c0-2.39,1.95-4.34,4.34-4.34h114.58
				c2.39,0,4.34,1.95,4.34,4.34l0,0C1315.19,1016.52,1313.24,1018.47,1310.85,1018.47z"/>
		</g>
		<path class="st9" d="M1255.27,921.86H1194c-2.53,0-4.61-2.07-4.61-4.61v-4.11c0-2.53,2.07-4.61,4.61-4.61h61.28
			c2.53,0,4.61,2.07,4.61,4.61v4.11C1259.88,919.79,1257.81,921.86,1255.27,921.86z"/>
	</g>
	<g>
		<path class="st13" d="M970.02,332.34l-5.93,4.25l-5.96-4.21c1.32-1.86,3.5-3.09,5.96-3.09C966.53,329.3,968.7,330.5,970.02,332.34
			z"/>
		<g>
			<path class="st13" d="M964.09,318.93c-5.96,0-11.23,2.97-14.42,7.5l3.76,2.64c2.37-3.35,6.27-5.53,10.66-5.53
				c4.36,0,8.24,2.15,10.6,5.45l3.75-2.69C975.23,321.83,969.99,318.93,964.09,318.93z"/>
		</g>
		<g>
			<path class="st13" d="M964.09,299.22c-12.61,0-23.76,6.27-30.52,15.86l3.77,2.64c5.92-8.39,15.71-13.89,26.75-13.89
				c10.95,0,20.68,5.41,26.62,13.69l3.73-2.69C987.67,305.38,976.6,299.22,964.09,299.22z"/>
		</g>
		<g>
			<path class="st13" d="M964.09,310.01c-8.97,0-16.92,4.44-21.76,11.24l3.76,2.64c4.01-5.6,10.58-9.27,18-9.27
				c7.36,0,13.89,3.61,17.91,9.13l3.73-2.67C980.88,314.37,972.99,310.01,964.09,310.01z"/>
		</g>
	</g>
	<path class="st13" d="M930.8,960.38c0,8.71,2.93,16.72,7.87,23.11c1.64,2.13,3.5,4.07,5.54,5.8c2.03,1.73,4.24,3.23,6.6,4.5
		c5.33,2.86,11.41,4.49,17.89,4.49c8.09,0,15.57-2.54,21.72-6.84c0.31-0.21,0.62-0.44,0.92-0.66c2.78-2.08,5.27-4.52,7.39-7.28
		c4.94-6.4,7.87-14.41,7.87-23.11c0-20.93-16.97-37.89-37.9-37.89C947.77,922.49,930.8,939.46,930.8,960.38z"/>
	<path class="st11" d="M978.96,984.69l-3.49-3.09c-0.29,0.06-0.58,0.11-0.87,0.16c-0.63-0.44-1.32-0.87-2.04-1.27
		c0.23-1.41,0.42-2.72,0.58-3.88c0.53-4.06,0.59-6.51,0.59-6.89c1.85-0.09,3.1-0.29,3.1-0.29c3.5-0.81,3.67-12.76,2.86-18.99
		c0.66,0.01,1.3-0.08,1.95-0.37c2.65-1.17,2.8-5.18,2.8-5.18s-0.77,1.43-1.9,1.89c0,0,4.43-6.07-0.71-10.22
		c-5.12-4.16-10.35-1.44-13.33-1.26c-6.54,0.4-10.77,0.79-12.9,5.09c-2.11,4.24-1.28,15.9,2.76,20.19c0.07,0.4,0.14,0.79,0.19,1.19
		c0.24,1.54,0.8,2.8,1.6,3.81c-0.91,5.02-2.98,8.77-4.84,11.26c-1.26,0.98-2.41,2.24-3.48,3.75c-0.03,0.02-0.07,0.05-0.07,0.05
		s0.01,0,0.03,0.01c-1.97,2.8-3.59,6.45-4.89,10.73c-0.01,0.02-0.01,0.04-0.02,0.06c2.14,1.51,4.46,2.78,6.91,3.8
		c0.16,0.07,0.32,0.13,0.48,0.2c0.04,0.01,0.07,0.03,0.11,0.04c0.26,0.11,0.53,0.21,0.79,0.31c0.64,0.25,1.28,0.48,1.93,0.69
		c0.68,0.22,1.37,0.42,2.06,0.6c0.32,0.08,0.64,0.16,0.96,0.23c0.28,0.07,0.56,0.13,0.85,0.18c0.04,0.01,0.08,0.02,0.12,0.03
		c0.19,0.04,0.38,0.07,0.57,0.11c0.44,0.08,0.89,0.16,1.34,0.23c0.1,0.01,0.21,0.03,0.31,0.04c0.25,0.04,0.49,0.07,0.74,0.1
		c0.35,0.04,0.7,0.08,1.05,0.12c0.39,0.04,0.79,0.07,1.19,0.09c0.37,0.03,0.75,0.05,1.13,0.06c0.39,0.01,0.79,0.02,1.19,0.02
		c0.43,0,0.85-0.01,1.28-0.02c0.04,0,0.07,0,0.11-0.01c0.1,0,0.21,0,0.31-0.01c0.21,0,0.42-0.01,0.63-0.03
		c0.03-0.01,0.05-0.01,0.08-0.01c0.4-0.02,0.79-0.05,1.19-0.09c5.12-0.48,9.95-2,14.28-4.32
		C984.29,990.03,981.55,987.09,978.96,984.69z"/>
	<path class="st13" d="M1302.88,1180.66c0,8.76,2.95,16.83,7.92,23.28c1.65,2.14,3.52,4.1,5.57,5.84
		c6.65,5.64,15.26,9.04,24.66,9.04c8.54,0,16.43-2.8,22.79-7.55c2.81-2.09,5.31-4.56,7.45-7.33c4.97-6.44,7.92-14.51,7.92-23.28
		c0-21.07-17.08-38.15-38.15-38.15S1302.88,1159.58,1302.88,1180.66z"/>
	<path class="st2" d="M1360.54,1202.28c-0.05-0.1-0.11-0.2-0.19-0.29c-0.15-0.22-0.36-0.43-0.61-0.63l-0.01-0.01
		c-0.48-0.39-1.13-0.74-1.88-1.05c-0.03-0.01-0.05-0.02-0.08-0.03c-3.31-1.45-7.66-1.92-7.66-1.92c-1.24-0.19-2.22-0.31-2.68-0.36
		c-1.28-1.03-3-5.12-3.28-11.39l0.01,0.02c0,0,1.43-3.32,3.32-2.28c2.95,1.61,8.65-4.91,6.83-13.48c-0.2-0.92-0.44-1.77-0.7-2.54
		c0.62,0.26,1.31,0.48,1.96,0.48c1.71,0,4.3-4.38,4.65-5.85c0.36-1.47-0.03-6.3-2.38-7.73c-2.29-1.41-5.92,0.21-6.08,0.27
		c1.17-1.64,5.17-1.31,5.9-1.23c-9.34-1.94-11.27,4.05-11.43,4.59c-5.94-5.37-15.01,3.91-17.24,6.39c-0.15,0.13-0.3,0.27-0.45,0.42
		c-0.51,0.29-1.08,0.78-1.68,1.5c-1.17,1.42-1.54,3.23-1.54,4.96c0,3.08,1.18,5.93,1.18,5.93c0.54,5.19,2.04,11.62,4.44,11.81
		c0,0,0.85,0.01,2.13-0.1c0,0.06,0.01,0.11,0.01,0.17c0.04,0.87,0.07,1.85,0.08,2.83v0.59c0.01,2.61-0.15,5.09-0.74,5.4
		c-0.2,0.02-0.37,0.03-0.52,0.05c-0.24,0.01-0.69,0.07-0.69,0.07c-2.08,0.27-3.56,0.48-4.61,0.66c-2.08,0.35-2.6,0.6-3.11,1
		c-0.12,0.11-0.24,0.24-0.36,0.38c-1.52,1.15-4.31,3.77-6.75,8.86c6.65,5.64,15.26,9.04,24.66,9.04c8.55,0,16.43-2.8,22.79-7.55
		C1362.76,1207.55,1361.65,1204.38,1360.54,1202.28z"/>
	<path class="st13" d="M1302.88,413.79c0,8.76,2.95,16.83,7.92,23.27c1.65,2.14,3.52,4.1,5.57,5.84c6.65,5.64,15.26,9.04,24.66,9.04
		c8.54,0,16.43-2.81,22.79-7.55c2.81-2.09,5.31-4.56,7.45-7.33c4.97-6.44,7.92-14.51,7.92-23.27c0-21.07-17.08-38.15-38.15-38.15
		S1302.88,392.72,1302.88,413.79z"/>
	<path class="st2" d="M1360.54,435.41c-0.05-0.1-0.11-0.19-0.19-0.29c-0.15-0.22-0.36-0.43-0.61-0.63l-0.01-0.01
		c-0.48-0.38-1.13-0.73-1.88-1.05c-0.03-0.01-0.05-0.02-0.08-0.03c-3.31-1.44-7.66-1.92-7.66-1.92v0.01
		c-1.24-0.2-2.22-0.32-2.68-0.37c-0.31-0.25-0.64-0.66-0.97-1.25v-0.01c-1.06-1.86-2.1-5.36-2.31-10.13l0.01,0.02
		c0,0,1.43-3.31,3.32-2.28c2.95,1.61,8.65-4.9,6.83-13.47c-0.2-0.93-0.44-1.78-0.7-2.55c0.62,0.26,1.31,0.48,1.96,0.48
		c1.71,0,4.3-4.38,4.65-5.84c0.36-1.48-0.03-6.31-2.38-7.74c-2.29-1.4-5.92,0.21-6.08,0.28c1.17-1.64,5.18-1.31,5.9-1.24
		c-9.34-1.94-11.27,4.06-11.43,4.59c-5.94-5.36-15.01,3.92-17.24,6.39c-0.15,0.13-0.3,0.27-0.45,0.42c-0.51,0.3-1.08,0.78-1.68,1.51
		c-1.17,1.41-1.54,3.22-1.54,4.95c0,3.09,1.18,5.93,1.18,5.93c0.54,5.2,2.04,11.62,4.44,11.81c0,0,0.85,0.01,2.13-0.09
		c0,0.05,0.01,0.1,0.01,0.16c0.04,0.87,0.07,1.85,0.08,2.84v0.59c0.01,2.61-0.15,5.08-0.74,5.4c-0.2,0.01-0.37,0.03-0.52,0.04
		c-0.24,0.02-0.69,0.07-0.69,0.07c-2.08,0.27-3.56,0.48-4.61,0.66c-2.08,0.36-2.6,0.6-3.11,1c-0.12,0.12-0.24,0.25-0.36,0.38
		c-1.52,1.15-4.31,3.78-6.75,8.87c0.36,0.31,0.73,0.61,1.11,0.9c0.06,0.05,0.13,0.1,0.19,0.15c0.28,0.22,0.56,0.43,0.85,0.63
		c0.2,0.16,0.4,0.31,0.61,0.45c0.21,0.15,0.42,0.29,0.63,0.42c0.3,0.22,0.61,0.42,0.93,0.61c0.21,0.14,0.42,0.27,0.64,0.4
		c0.26,0.16,0.53,0.32,0.8,0.47c0.3,0.17,0.6,0.34,0.9,0.5c0.03,0.01,0.05,0.03,0.08,0.04c0.01,0.01,0.03,0.02,0.05,0.03h0.01
		c0.04,0.02,0.09,0.05,0.13,0.07c0.24,0.13,0.48,0.25,0.72,0.37c0.02,0,0.03,0.01,0.05,0.02c0.07,0.04,0.15,0.08,0.22,0.11
		c0.13,0.07,0.27,0.14,0.41,0.2c0.13,0.06,0.26,0.12,0.4,0.19c0.3,0.14,0.62,0.28,0.93,0.41c0.31,0.13,0.63,0.26,0.94,0.38
		c0.15,0.06,0.29,0.12,0.43,0.17c0.14,0.05,0.28,0.11,0.43,0.16c0.29,0.11,0.59,0.21,0.88,0.31c0.31,0.11,0.61,0.2,0.92,0.3
		c0.26,0.08,0.52,0.16,0.78,0.24c0.03,0.01,0.05,0.01,0.08,0.02c0.16,0.05,0.33,0.1,0.5,0.14c0.91,0.25,1.84,0.47,2.78,0.65
		c0.41,0.08,0.82,0.16,1.23,0.22c0.11,0.02,0.21,0.04,0.32,0.05c0.02,0,0.05,0.01,0.07,0.01c0.01,0,0.03,0,0.04,0.01
		c0.27,0.04,0.52,0.07,0.8,0.1c0.06,0.01,0.11,0.02,0.17,0.02c0.04,0.01,0.08,0.01,0.12,0.02c0.25,0.04,0.5,0.06,0.74,0.08
		c0.04,0,0.09,0.01,0.13,0.01c0.07,0.01,0.15,0.02,0.23,0.03c0.45,0.04,0.89,0.07,1.34,0.09h0.07c0.14,0.01,0.27,0.02,0.42,0.02
		c0.09,0,0.17,0.01,0.26,0.01c0.44,0.02,0.88,0.03,1.32,0.03c8.55,0,16.43-2.81,22.79-7.56
		C1362.76,440.68,1361.65,437.52,1360.54,435.41z"/>
	<path class="st3" d="M1820.67,1928.85L1683.24,2000h-91.49c-22.06-14.79-136.63-92.94-184.04-151.2
		c-10.04-12.35-46.79-118.75-75.03-205.14v-0.04c3.75,11.47,82.56,179.32,105,198.4c22.44,19.07,140.26,130.16,172.8,129.03
		c31.52-1.08,199.32-39.7,209.72-42.09C1820.36,1928.93,1820.51,1928.89,1820.67,1928.85z"/>
	<path class="st14" d="M2097.19,2000h-495.46c24.85-9.75,119.92-46.07,218.47-71.04c0.16-0.03,0.31-0.07,0.47-0.11
		c84.64-21.41,171.77-34.39,219.09-14.92l0.34,0.51L2097.19,2000z"/>
	<path class="st3" d="M1298.98,1345.57c0.01,0,0.02,0,0.03-0.01c8.35-3.06,20.07-5.08,25.77,4.44
		c8.88,14.82-24.1,145.58-28.22,162.03L1298.98,1345.57z"/>
	<path class="st4" d="M1301.54,1275.26l-2.83,79.09c0,0,16.63,2.71,26.09-4.35S1329.24,1274.33,1301.54,1275.26z"/>
	<path class="st7" d="M968.7,1733.26c-47.61,9.76-150.22-27.64-150.22-27.64l16.55-159.86l-115.95,132.8
		c-59.01-21.96-151.3-79.26-206.14-114.92c140.52-15.32,245.43-153.99,245.43-153.99c97.41,52.76,207.36,83.58,207.36,83.58
		C965.69,1588.24,968.7,1733.26,968.7,1733.26z"/>
	<path class="st2" d="M641.99,1588.06c0.1-10.66,8.82-19.22,19.48-19.12c10.66,0.1,19.22,8.82,19.12,19.48
		c-0.1,10.66-8.82,19.22-19.48,19.12C650.45,1607.44,641.89,1598.72,641.99,1588.06z"/>
</g>
</svg>
