<?xml version="1.0" encoding="utf-8"?>
<!-- Generator: Adobe Illustrator 24.1.1, SVG Export Plug-In . SVG Version: 6.00 Build 0)  -->
<svg version="1.1" id="layer" xmlns="http://www.w3.org/2000/svg" xmlns:xlink="http://www.w3.org/1999/xlink" x="0px" y="0px"
	 viewBox="0 0 525 350" style="enable-background:new 0 0 525 350;" xml:space="preserve">
<style type="text/css">
	.st0{fill:#FFFFFF;}
	.st1{opacity:0.3;}
	.st2{fill:#4D0100;}
	.st3{fill:#3D0000;}
	.st4{fill:#A25742;}
	.st5{fill:#893D30;}
	.st6{fill:#AD5D4B;}
	.st7{fill:#003E4D;}
	.st8{opacity:0.3;fill:#E7EAE1;}
	.st9{fill:#DDDDDD;}
	.st10{fill:#16C4B3;}
	.st11{fill:#F4F4F4;}
	.st12{fill:#5B0909;}
	.st13{fill:#0EAF9C;}
	.st14{fill:#0275D8;}
	.st15{fill:#B7BDBD;}
	.st16{opacity:0.2;}
	.st17{fill:#48545B;}
	.st18{fill:#994D3C;}
	.st19{fill:#E7EAE1;}
	.st20{fill:#F6F7F5;}
	.st21{fill:#3A3A3A;}
	.st22{fill:#494949;}
	.st23{fill:#0269AF;}
	.st24{fill:#003E61;}
	.st25{fill:#3F5E77;}
	.st26{fill:#EAB794;}
	.st27{fill:#E29A59;}
	.st28{fill:#017DE1;}
	.st29{fill:#31ACFF;}
	.st30{fill:#D67F43;}
	.st31{fill:#EFAF6A;}
	.st32{fill:#606060;}
	.st33{fill:#474747;}
	.st34{fill:#EFF2F4;}
	.st35{fill:#0569B5;}
	.st36{fill:#0766A0;}
	.st37{fill:#0468B4;}
	.st38{fill:#FFB048;}
	.st39{fill:#EF9A33;}
	.st40{fill:#D19A75;}
	.st41{fill:#F4C3A2;}
	.st42{fill:#6CCBFF;}
	.st43{fill:#FFC176;}
	.st44{fill:#6A686B;}
	.st45{opacity:0.2;fill:#48545B;}
	.st46{fill:#69452B;}
	.st47{fill:#5FBAA7;}
	.st48{fill:#FED1AA;}
</style>
<rect class="st0" width="525" height="350"/>
<ellipse class="st1" cx="46.62" cy="299.76" rx="25.82" ry="5.7"/>
<g>
	<g>
		<g>
			<g>
				<g>
					<g>
						<g>
							<g>
								<g>
									<path class="st2" d="M51.06,106.29c2.18,0,3.95-1.77,3.95-3.95c0-0.12-0.01-0.24-0.02-0.36c0.52,0.58,1.27,0.95,2.11,0.95
										c1.56,0,2.82-1.26,2.82-2.82c0-0.01,0-0.02,0-0.02c0.6,0.36,1.3,0.57,2.05,0.57c2.18,0,3.95-1.77,3.95-3.95
										c0-0.99-0.37-1.9-0.97-2.6c1.5-0.06,2.7-1.3,2.7-2.81c0-0.16-0.02-0.32-0.04-0.47c1.39-0.61,2.36-2,2.36-3.62
										c0-1.04-0.4-1.99-1.06-2.69c1.04-0.57,1.74-1.68,1.74-2.94c0-1.24-0.68-2.33-1.68-2.91c0.7-0.71,1.14-1.69,1.14-2.77
										c0-1.71-1.08-3.16-2.59-3.71c0.09-0.28,0.14-0.57,0.14-0.88c0-1.52-1.2-2.75-2.7-2.81c0.61-0.69,0.97-1.6,0.97-2.6
										c0-2.18-1.77-3.95-3.95-3.95c-0.75,0-1.45,0.21-2.05,0.57c0-0.01,0-0.02,0-0.02c0-1.56-1.26-2.82-2.82-2.82
										c-0.84,0-1.59,0.37-2.11,0.95c0.01-0.12,0.02-0.24,0.02-0.36c0-2.18-1.77-3.95-3.95-3.95c-1.69,0-3.12,1.06-3.69,2.54
										c-0.5-0.76-1.37-1.27-2.35-1.27c-1.14,0-2.12,0.68-2.56,1.65c-0.72-1-1.89-1.65-3.21-1.65c-2.18,0-3.95,1.77-3.95,3.95
										c0,0.02,0,0.03,0,0.05c-0.31-0.12-0.65-0.19-1-0.19c-1.56,0-2.82,1.26-2.82,2.82c0,0.12,0.01,0.24,0.02,0.35
										c-0.26-0.05-0.52-0.08-0.8-0.08c-2.18,0-3.95,1.77-3.95,3.95c0,0.64,0.15,1.25,0.43,1.79c-1.19,0.33-2.06,1.42-2.06,2.71
										c0,0.93,0.46,1.76,1.16,2.27c-1.29,0.21-2.79,1.99-2.07,3.95c-0.35,0.47-0.56,1.05-0.56,1.68c0,0.91,0.43,1.71,1.1,2.23
										c-1.4,0-2.07,4.41,1.41,4.41c-0.63,0.52-1.04,1.3-1.04,2.18c0,1.29,0.87,2.38,2.06,2.71c-0.27,0.54-0.43,1.14-0.43,1.79
										c0,2.18,1.77,3.95,3.95,3.95c0.27,0,0.54-0.03,0.8-0.08c-0.01,0.12-0.02,0.23-0.02,0.35c0,1.56,1.26,2.82,2.82,2.82
										c0.35,0,0.69-0.07,1-0.19c0,0.02,0,0.03,0,0.05c0,2.18,1.77,3.95,3.95,3.95c1.32,0,2.49-0.65,3.21-1.65
										c0.44,0.97,1.42,1.65,2.56,1.65c0.98,0,1.85-0.5,2.35-1.27C47.93,105.24,49.37,106.29,51.06,106.29z"/>
								</g>
							</g>
							<path class="st3" d="M47.22,66.38c-8.72,0-15.79,6.27-15.79,16.51c0,12.78,3.91,19.14,8.27,22.1
								c1.13-0.13,2.11-0.74,2.75-1.62c0.44,0.97,1.42,1.65,2.56,1.65c0.98,0,1.85-0.5,2.35-1.27c0.57,1.49,2.01,2.54,3.69,2.54
								c2.18,0,3.95-1.77,3.95-3.95c0-0.12-0.01-0.24-0.02-0.36c0.52,0.58,1.27,0.95,2.11,0.95c0.01,0,0.02,0,0.03,0
								c3.3-3.53,5.88-9.67,5.88-20.04C63.01,72.64,55.94,66.38,47.22,66.38z"/>
							<g>
								<g>
									<g>
										<g>
											<g>
												<path class="st4" d="M68.6,112.53c-0.79-0.87-1.69-1.56-2.67-1.98l-12.77-5.39V84.38H41.18v20.77l-12.77,5.39
													c-0.97,0.41-1.88,1.11-2.67,1.98H68.6z"/>
											</g>
										</g>
									</g>
								</g>
							</g>
						</g>
					</g>
				</g>
				<path class="st5" d="M41.18,101.22c2.23,2.67,4.92,3.44,6.93,3.44c1.47,0,3.31-0.42,5.06-1.69V84.38H41.18V101.22z"/>
				<g>
					<path class="st6" d="M59.59,83.02c0,16.31-7.75,19.58-12.32,19.58c-4.57,0-12.32-3.26-12.32-19.58
						c0-8.21,5.52-13.23,12.32-13.23C54.07,69.79,59.59,74.81,59.59,83.02z"/>
				</g>
			</g>
			<path class="st7" d="M57.98,82.87c-0.06-0.22-0.19-0.37-0.42-0.37c0,0-6.99,0-7.75,0c-0.65,0-1.64,0.46-2.52,0.46
				c-0.88,0-1.87-0.46-2.52-0.46c-0.75,0-7.75,0-7.75,0c-0.23,0-0.36,0.14-0.42,0.37h-2.15v0.76h2.14c0.25,1.73,1.1,4.87,1.53,4.87
				h6c0.7,0,1.72-1.51,2.1-2.48c0.23-0.6,0.72-0.86,1.07-0.86c0.35,0,0.84,0.26,1.07,0.86c0.38,0.96,1.4,2.48,2.1,2.48h6
				c0.43,0,1.28-3.13,1.53-4.87h2.14v-0.76H57.98z M44.14,88.26c-0.56,0-5.24,0.01-5.71,0.01c-0.47,0-1.96-5.15-0.72-5.15
				c0,0,5.9,0,6.5,0C47.67,83.12,44.69,88.26,44.14,88.26z M56.15,88.27c-0.47,0-5.16-0.01-5.71-0.01c-0.56,0-3.53-5.14-0.07-5.14
				c0.6,0,6.5,0,6.5,0C58.1,83.12,56.62,88.27,56.15,88.27z"/>
			<path class="st8" d="M44.14,88.26c-0.56,0-5.24,0.01-5.71,0.01c-0.47,0-1.96-5.15-0.72-5.15c0,0,5.9,0,6.5,0
				C47.67,83.12,44.69,88.26,44.14,88.26z"/>
			<path class="st8" d="M56.15,88.27c-0.47,0-5.16-0.01-5.71-0.01c-0.56,0-3.53-5.14-0.07-5.14c0.6,0,6.5,0,6.5,0
				C58.1,83.12,56.62,88.27,56.15,88.27z"/>
			<path class="st3" d="M47.27,69.79c-6.81,0-12.32,5.02-12.32,13.23c0,0.51,0.01,1,0.02,1.48c0.14-0.28,0.26-0.57,0.32-0.9
				c0.06-0.33,0.06-0.67,0.01-0.98c1.14-0.22,2.09-1.06,2.41-2.22c0.06,0.01,0.11,0.03,0.17,0.04c1.41,0.24,2.78-0.21,3.77-1.11
				c0.45,0.48,1.05,0.83,1.75,0.95c0.85,0.15,1.68-0.07,2.33-0.54c0.62,1.02,1.65,1.77,2.91,1.99c1.3,0.22,2.57-0.17,3.5-0.98
				c0.45,0.71,1.19,1.23,2.08,1.38c0.73,0.12,1.45-0.02,2.05-0.36c0.54,1.32,1.72,2.33,3.22,2.59c0.02,0,0.03,0,0.05,0.01
				c0,0.15,0.02,0.3,0.04,0.45c0.02-0.58,0.04-1.18,0.04-1.8C59.59,74.81,54.07,69.79,47.27,69.79z"/>
			<path class="st2" d="M66.92,84.44c-0.7-8-7.02-19.64-14.15-20.85c-4.93-0.84-10.69-1.18-14.97,1.88
				c-4.4,3.15-4.88,6.31-6.29,11.15c-0.34,1.17-0.18,1.57-0.69,2.56c-0.43,0.84-1.42,1-1.63,2.19c-0.29,1.68,0.84,3.28,2.53,3.57
				c1.68,0.29,3.28-0.84,3.57-2.53c0.06-0.33,0.06-0.67,0.01-0.98c1.14-0.22,2.09-1.06,2.41-2.22c0.06,0.01,0.11,0.03,0.17,0.04
				c1.41,0.24,2.78-0.21,3.77-1.11c0.45,0.48,1.05,0.83,1.75,0.95c0.85,0.15,1.68-0.07,2.33-0.54c0.62,1.02,1.65,1.77,2.91,1.99
				c1.3,0.22,2.57-0.17,3.5-0.98c0.45,0.71,1.19,1.23,2.08,1.38c0.73,0.13,1.45-0.02,2.05-0.36c0.54,1.32,1.72,2.33,3.22,2.59
				c0.02,0,0.03,0,0.05,0.01c0.01,1.11,0.6,2.11,1.54,2.65c-0.15,0.28-0.26,0.6-0.32,0.93c-0.29,1.68,0.84,3.28,2.53,3.57
				c1.68,0.29,3.28-0.84,3.57-2.53C67,86.78,67.02,85.65,66.92,84.44z"/>
			<path class="st9" d="M47.72,53.44c-6.11,0-11.65,2.43-15.71,6.38l3.85,13.58c1.7-3.14,6.36-5.4,11.86-5.4
				c5.25,0,9.74,2.06,11.62,4.97l3.81-13.43C59.11,55.77,53.68,53.44,47.72,53.44z"/>
			<polygon class="st10" points="51.42,60.12 48.58,60.12 48.58,57.28 46.86,57.28 46.86,60.12 44.01,60.12 44.01,61.85 
				46.86,61.85 46.86,64.69 48.58,64.69 48.58,61.85 51.42,61.85 			"/>
			<path class="st11" d="M46.71,55.03c-2.57-0.3-10.87,1.78-13.28,5.3c0,0,0.34,2.4,1.45,4.96C39.65,61.27,46.71,55.03,46.71,55.03z
				"/>
			<path class="st12" d="M41.9,72.06c-1.56,1.83,6.64,3.46,11.52,3.9c3.91,0.36,7.26,0.59,4.48-2.77
				C52.9,67.17,43.36,70.34,41.9,72.06z"/>
		</g>
	</g>
	<path class="st4" d="M32.27,167.82l14.51,5.81l14.2-5.1c0,0,3.77,10.98,3.77,21.94c0,5.47-5.5,48.96-5.5,49.29l-6.62,51.71
		l-4.42,2.91l0.29-30.69l0.21-30.89c0,0-0.54-26.18-0.29-33.02c0.08-2.24,0.76-8.93,0.76-8.93l-1.52-0.05l-2.75-0.01
		c0,0,0.74,6.62,0.84,8.83c0.28,6.85-0.32,33.06-0.32,33.06l0.32,30.7l-0.19,30.86l-4.4-1.85l-6.45-51.86
		c0-2.26-5.41-46.25-5.67-50.18C28.65,184.89,32.27,167.82,32.27,167.82z"/>
	<path class="st10" d="M62.91,168.07l-0.24-6.29H30.44l-0.15,5.75c-0.18,0.61-4.67,15.57-4.5,20.77c0.06,1.97,2.05,14.3,4.08,26.88
		c0.92,5.71,2.71,13.47,2.71,17.01c0,7.22,28.51,7.21,28.87,0c0.63-12.54,6.71-39.85,6.52-43.82
		C67.49,178.11,62.95,168.17,62.91,168.07z"/>
	<path class="st13" d="M35.5,222.17c-2.67-10.74-5.89-23.67-6.26-26.01c-0.74-4.65-0.25-17.83,0.12-25.41
		c-1.34,4.8-3.69,13.77-3.57,17.54c0.06,1.97,1.48,14.16,3.51,26.74c0.92,5.71,1.91,11.76,2.69,16.95c0.55,3.64,6.38,4.65,6.38,4.65
		C37.64,233.7,36.38,225.71,35.5,222.17z"/>
	<path class="st13" d="M64.01,170.77c0.64,5.85,1.45,16.28,0.5,25.48c-0.53,5.1-7.15,30.12-9.86,40.58c0,0,4.47-0.8,6.17-3.01
		c2.36-3.07,7.34-41.47,7.15-45.45C67.64,181.31,65.39,174.4,64.01,170.77z"/>
	<path class="st13" d="M39.75,289.55c0,0-2.67,4.39-2.89,5.86c-0.22,1.47-0.69,5.6,0.52,6.12c1.21,0.52,6.28,0.61,6.97,0.17
		c0.69-0.43,2.16-3.35,2.29-5c0.13-1.65-0.86-8.23-0.86-8.23L39.75,289.55z"/>
	<path class="st4" d="M39.87,289.01c0,0-2.75,5.49-0.96,7.66c0.72,0.87,7.15-0.79,6.87-8.15C45.51,281.17,39.87,289.01,39.87,289.01
		z"/>
	<path class="st13" d="M53.99,289.55c0,0,2.67,4.39,2.89,5.86c0.22,1.47,0.69,5.6-0.52,6.12c-1.21,0.52-6.28,0.61-6.97,0.17
		c-0.69-0.43-2.16-3.35-2.29-5c-0.13-1.65,0.86-8.23,0.86-8.23L53.99,289.55z"/>
	<path class="st4" d="M53.87,289.01c0,0,2.75,5.49,0.96,7.66c-0.72,0.87-7.15-0.79-6.87-8.15
		C48.24,281.17,53.87,289.01,53.87,289.01z"/>
	<g>
		<g>
			<g>
				<g>
					<g>
						<path class="st14" d="M62.57,163.82l9.18-45.48c0-3.53-2.45-7.42-5.47-8.69l-12.85-5.4c-2.87,5.08-6.26,7.42-6.26,7.42
							s-3.37-2.49-6.16-7.42l-12.85,5.4c-3.02,1.27-5.47,5.16-5.47,8.69l9.93,45.48H62.57z"/>
						<path class="st14" d="M73.74,201.29c-1.24-11.55-8.28-35.25-8.37-44.32c-0.1-10.09,7.26-39.15,7.26-39.15
							c0-3.38-3.06-7.77-6.21-8.99l-10.03-3.86l-8.31,42l0.3,65.59C48.38,212.56,74.61,209.45,73.74,201.29z"/>
					</g>
					<g>
						<g>
							<g>
								<path class="st14" d="M60.46,110.87l-0.67-4.15l7.16,2.87C70.02,110.77,60.46,110.87,60.46,110.87z"/>
							</g>
						</g>
					</g>
				</g>
				<polygon class="st14" points="61.21,122.08 59.05,118.74 60.22,115.31 58.85,105.92 56.38,104.96 48.45,145.09 				"/>
			</g>
		</g>
	</g>
	<g>
		<g>
			<rect x="57.94" y="127.06" class="st7" width="10.49" height="5.26"/>
			<rect x="58.23" y="127.34" class="st11" width="9.93" height="4.69"/>
			<rect x="62.5" y="126.5" class="st15" width="1.38" height="1.16"/>
		</g>
		<rect x="58.89" y="127.8" class="st15" width="3.14" height="3.87"/>
	</g>
	<g class="st16">
		<path class="st17" d="M68.33,174.76c-1.48,3.22-3.38,6.77-5.77,10.76c-2.17,1.44,2.7,7.52,4.29,6.5c1.5-1.9,2.86-3.79,4.09-5.68
			C70.1,182.54,69.18,178.57,68.33,174.76z"/>
	</g>
	<path class="st4" d="M64.26,182.99c-1.77,0.86-5.39,2.75-4.84,3.61c0.73,1.13-1.59,3.22-2.54,4.41c-0.95,1.19,7.06,6.04,8.95,3.73
		c0.96-1.18,2.07-4.42,2.93-7.31C67.53,187.22,65.39,185.03,64.26,182.99z"/>
	<path class="st11" d="M56.9,184.67c0,0-1.24,22.16,0.8,21.87c2.04-0.29,10.49-2.64,12.24-6.12c1.75-3.49-1.75-11.37-1.75-11.37
		L56.9,184.67z"/>
	<path class="st9" d="M69.31,187.37c-1.59,1.01-7.5-6.19-5.33-7.63c15.66-26.19,11.29-29.03,5.28-47.48
		c1.2-7.13-3.68-17.48-1.4-18.13l-0.02-4.3c8.31,4.81,8.45,10.12,11.59,18.37C84.19,140.73,87.62,164.26,69.31,187.37z"/>
	<path class="st9" d="M20.92,201.29c1.24-11.55,8.28-35.25,8.37-44.32c0.1-10.09-7.26-39.15-7.26-39.15c0-3.38,3.06-7.77,6.21-8.99
		l10.04-3.86l11.23,44.34l-1.14,63.26C48.38,212.56,20.05,209.45,20.92,201.29z"/>
	<g>
		<g>
			<g>
				<path class="st11" d="M34.2,110.87l0.67-4.15l-7.16,2.87C24.64,110.77,34.2,110.87,34.2,110.87z"/>
			</g>
		</g>
	</g>
	<polygon class="st11" points="33.45,122.08 35.61,118.74 34.44,115.31 35.81,105.92 38.28,104.96 49.51,149.3 	"/>
	<g class="st16">
		<path class="st17" d="M26.33,174.76c1.48,3.22,3.38,6.77,5.77,10.76c2.17,1.44-2.7,7.52-4.29,6.5c-1.5-1.9-2.86-3.79-4.09-5.68
			C24.57,182.54,25.49,178.57,26.33,174.76z"/>
	</g>
	<path class="st4" d="M30.4,182.99c1.77,0.86,5.39,2.75,4.84,3.61c-0.73,1.13,1.59,3.22,2.54,4.41c0.95,1.19-7.06,6.04-8.95,3.73
		c-0.96-1.18-2.07-4.42-2.93-7.31C27.13,187.22,29.27,185.03,30.4,182.99z"/>
	<path class="st11" d="M37.76,184.67c0,0,1.24,22.16-0.8,21.87c-2.04-0.29-10.49-2.64-12.24-6.12c-1.75-3.49,1.75-11.37,1.75-11.37
		L37.76,184.67z"/>
	<path class="st9" d="M25.35,187.37c1.59,1.01,7.5-6.19,5.33-7.63c-15.66-26.19-11.29-29.03-5.28-47.48
		c-1.2-7.13,3.68-17.48,1.4-18.13l0.02-4.3c-8.31,4.81-8.45,10.12-11.59,18.37C10.47,140.73,7.04,164.26,25.35,187.37z"/>
</g>
<path class="st1" d="M504.34,299.76c0-3.76-13.81-6.81-30.85-6.81c-17.04,0-30.85,3.05-30.85,6.81c0,3.76,13.81,6.81,30.85,6.81
	C490.52,306.58,504.34,303.53,504.34,299.76z"/>
<g>
	<g>
		<g>
			<g>
				<g>
					<g>
						<g>
							<g>
								<g>
									<g>
										<path class="st18" d="M505.54,142.83V110.7c0-3.78-3.18-7.95-7.09-9.31l-16.21-5.3V73.81h-17.02V96.1l-16.21,5.3
											c-3.92,1.36-7.09,5.53-7.09,9.31v32.13H505.54z"/>
										<g>
											<path class="st6" d="M487.9,69.28c0,19.24-8.85,23.09-14.07,23.09c-5.22,0-14.07-3.85-14.07-23.09
												c0-9.68,6.3-15.61,14.07-15.61C481.6,53.67,487.9,59.59,487.9,69.28z"/>
										</g>
									</g>
								</g>
								<path class="st6" d="M462.32,73.03c0.57,3.04-0.1,5.73-1.51,5.99c-1.4,0.26-3-1.99-3.58-5.04c-0.57-3.04,0.1-5.73,1.51-5.99
									C460.15,67.74,461.75,69.99,462.32,73.03z"/>
								<path class="st6" d="M485.13,73.03c-0.57,3.04,0.1,5.73,1.51,5.99c1.4,0.26,3-1.99,3.58-5.04c0.57-3.04-0.1-5.73-1.51-5.99
									C487.3,67.74,485.7,69.99,485.13,73.03z"/>
							</g>
						</g>
					</g>
					<path class="st19" d="M490.5,177.77l15.13-67.07c0-3.8-3.21-8.01-7.15-9.38l-16.19-5.33l-8.36,5.23l-8.76-5.24l-16.19,5.33
						c-3.94,1.37-7.15,5.57-7.15,9.38l12.02,69.45L490.5,177.77z"/>
					<path class="st5" d="M465.21,76.61v12.36c2.6,4.35,6.11,6.17,8.51,6.6c2.4,0.43,5.91,0.13,8.51-3.13V79.65l-8.51-3.66
						L465.21,76.61z"/>
					<path class="st19" d="M486.45,75.26l-12.73-2.85l-12.73,2.85c0.43,4.11,1.61,10.04,1.61,10.04c3.03,5.59,7.92,7.22,11.12,7.22
						c3.2,0,8.09-1.26,11.12-6.71C484.84,85.81,486.03,79.31,486.45,75.26z"/>
					<path class="st20" d="M473.72,73.02v5.52c0,0-10.37,2.5-11.99-2.72L473.72,73.02z"/>
				</g>
			</g>
			<polygon class="st14" points="476.97,101.27 470.95,101.27 470.95,105.02 472.44,106.41 471.34,138.44 473.95,140.44 
				476.57,138.44 475.46,106.4 476.97,105.02 			"/>
			<polygon class="st20" points="473.92,101.23 469.15,107.45 462.05,97.2 465.21,94.14 			"/>
			<polygon class="st20" points="473.92,101.23 478.88,107.45 485.4,97.2 482.22,94.14 			"/>
			<path class="st18" d="M486.18,64.03c0.29-0.11,0.59-0.18,0.91-0.21c-1.95-6.27-7.15-9.95-13.27-9.95
				c-7.09,0-12.93,4.91-13.93,13.09c0.05,0.47,0.08,0.96,0.08,1.46c0,0,1.65-3.35,1.58-6.47c-0.04-1.62,4.45-5.03,12.13-0.97
				C481.8,59.11,485.52,62.47,486.18,64.03z"/>
			<path class="st21" d="M462.11,53.19c-5.21,6.86-2.15,9.94-2.15,15.14c0,0,1.65-3.51,1.58-6.63c-0.04-1.62,4.45-5.47,12.13-2.17
				c9.05-2.98,12.64,1.06,12.64,2.25c0,2.38-0.74,1.7,1.22,6.98c1.68-6.66,2.35-10.71-2.4-16.45
				C480.43,46.63,468.45,44.83,462.11,53.19z"/>
			<polygon class="st19" points="459.89,66.93 459.25,68.08 461.16,76.68 461.58,75.24 			"/>
			<polygon class="st19" points="487.5,66.93 488.14,68.08 486.23,76.68 485.81,75.24 			"/>
			<path class="st22" d="M479.05,52c-11.78,0.52-16.13,6.63-16.13,3.31c0-3.32,4.23-6.45,9.46-6.99
				C477.61,47.78,482.37,51.86,479.05,52z"/>
		</g>
	</g>
	<g>
		<path class="st23" d="M493,170.3l-19.07,0.57l-18.65,0.2c0,0-1.27,12.05-1.27,24.07c0,6,5.54,96.96,5.54,96.96l9.35-0.24
			l3.83-96.32l0.05-0.05l1.95-0.01l4.48,97.59l9.9,0.17c0,0,5.17-94.91,5.52-99.22C495.13,188.04,493,170.3,493,170.3z"/>
		<g>
			<g>
				<path class="st9" d="M500.88,209.52c0-32.56,4.24-98.42,4.24-98.42c0-4.21-3.2-8.87-7.13-10.39l-13.55-5.26
					c0,0-6.22,75.74,6.21,83.03C491.99,215.19,500.88,214.94,500.88,209.52z"/>
				<path class="st11" d="M490.53,115.92l-2.23-6.93l1.75-1.12l-1.17-10.97c0,0-4.26-2.91-4.44-1.73
					c-3.81,24.39-1.19,54.29-1.19,54.29L490.53,115.92z"/>
				<path class="st20" d="M498.25,101.23l-8.47-3.01l0.9,4.76C494.92,102.68,500.44,102.14,498.25,101.23z"/>
			</g>
			<g>
				<g>
					<rect x="488.38" y="119.36" class="st7" width="10.45" height="5.24"/>
					<rect x="488.66" y="119.64" class="st11" width="9.89" height="4.68"/>
					<rect x="492.92" y="118.8" class="st15" width="1.37" height="1.15"/>
				</g>
				<rect x="489.32" y="120.1" class="st15" width="3.13" height="3.85"/>
			</g>
		</g>
		<g>
			<path class="st24" d="M469.49,299.01c0,1.68-1.93,3.04-4.32,3.04h-2.88c-2.38,0-4.32-1.36-4.32-3.04v-6.48
				c0-1.68,1.93-1.95,4.32-1.95h2.88c2.38,0,4.32,0.27,4.32,1.95V299.01z"/>
			<path class="st25" d="M469.49,297.26c0,1.26-1.93,2.27-4.32,2.27h-2.88c-2.38,0-4.32-1.02-4.32-2.27v-4.85
				c0-1.26,1.93-3.96,4.32-3.96h2.88c2.38,0,4.32,2.7,4.32,3.96V297.26z"/>
		</g>
		<g>
			<path class="st24" d="M489.93,299.01c0,1.68-1.93,3.04-4.32,3.04h-2.88c-2.38,0-4.32-1.36-4.32-3.04v-6.48
				c0-1.68,1.93-1.95,4.32-1.95h2.88c2.38,0,4.32,0.27,4.32,1.95V299.01z"/>
			<path class="st25" d="M489.93,297.26c0,1.26-1.93,2.27-4.32,2.27h-2.88c-2.38,0-4.32-1.02-4.32-2.27v-4.85
				c0-1.26,1.93-3.96,4.32-3.96h2.88c2.38,0,4.32,2.7,4.32,3.96V297.26z"/>
		</g>
		<path class="st15" d="M498.13,129.05c2.18,18.16-1.05,22.22-8.69,47.81c-0.11,0.07-0.21,0.18-0.3,0.31c0.47,0.55,0.96,1,1.5,1.31
			c0.21,5.64,0.59,10.41,1.1,14.42c3.85-3.98,7.07-7.88,9.76-11.69c0.67-18.29,1.73-38.24,2.53-52.16H498.13z"/>
		<path class="st9" d="M497.76,183.72c-1.8,1.12-9.04-8.28-6.59-9.88c10.52-25.55,12.42-26.16,6.91-45.2
			c1.71-7.5-1.5-22.74,1.02-23.52l0.19-3.78c8.79,4.69,8.68,9.51,11.63,18C515.42,132.26,521.92,153.55,497.76,183.72z"/>
		<path class="st26" d="M483.44,185.51c2.63,1.68,5.25,3.38,8.02,4.85c0.88-1.64,3.92-5.67,4.71-7.85
			c-1.33-0.17-3.53-2.37-4.65-4.46c-1.98,0.97-5.6,2.03-6.13,2.92C484.33,182.74,484.03,184.73,483.44,185.51z"/>
		<path class="st9" d="M445.91,209.52c0-32.56-4.24-98.42-4.24-98.42c0-4.21,3.2-8.87,7.13-10.39l13.55-5.26
			c0,0,6.22,75.74-6.21,83.03C454.79,215.19,445.91,214.94,445.91,209.52z"/>
		<path class="st11" d="M456.26,115.92l2.23-6.93l-1.75-1.12l1.17-10.97c0,0,4.26-2.91,4.44-1.73c3.81,24.39,1.19,54.29,1.19,54.29
			L456.26,115.92z"/>
		<path class="st20" d="M448.54,101.23l8.47-3.01l-0.9,4.76C451.86,102.68,446.35,102.14,448.54,101.23z"/>
		<path class="st15" d="M448.65,129.05c-2.18,18.16,1.05,22.22,8.69,47.81c0.11,0.07,0.21,0.18,0.3,0.31c-0.47,0.55-0.96,1-1.5,1.31
			c-0.21,5.64-0.59,10.41-1.1,14.42c-3.85-3.98-7.07-7.88-9.76-11.69c-0.67-18.29-1.73-38.24-2.53-52.16H448.65z"/>
		<path class="st9" d="M449.02,183.72c1.8,1.12,9.04-8.28,6.59-9.88c-10.52-25.55-12.42-26.16-6.91-45.2
			c-1.71-7.5,1.5-22.74-1.02-23.52l-0.19-3.78c-8.79,4.69-8.68,9.51-11.63,18C431.36,132.26,424.86,153.55,449.02,183.72z"/>
		<path class="st26" d="M463.35,185.51c-2.63,1.68-5.25,3.38-8.02,4.85c-0.88-1.64-3.92-5.67-4.71-7.85
			c1.33-0.17,3.53-2.37,4.65-4.46c1.98,0.97,5.6,2.03,6.13,2.92C462.45,182.74,462.76,184.73,463.35,185.51z"/>
	</g>
</g>
<g>
	<ellipse class="st1" cx="412.61" cy="307.12" rx="30.85" ry="6.81"/>
	<g>
		<g>
			<g>
				<g>
					<g>
						<path class="st22" d="M428.42,74.26l-29.75,1.27c0,7.34,0.2,14.8-1.23,19.96c5.08,5.78,23.63,5.98,32.51-0.08
							C427.13,86.05,428.42,74.26,428.42,74.26z"/>
						<g>
							<path class="st21" d="M423.28,98.4c2.5-3.41,4.35-8.86,4.35-17.41c0-2.48-0.44-4.71-1.23-6.65l-26.47,1.13
								c-0.53,1.66-0.83,3.5-0.83,5.52c0,8.95,2.01,14.5,4.7,17.87C409.36,100.35,416.98,100.23,423.28,98.4z"/>
							<polygon class="st27" points="413.91,123.45 432.26,105.1 419.73,100.27 419.73,81.93 406.39,81.93 406.39,100.27 
								395.08,104.62 							"/>
							<path class="st9" d="M418.28,130.97l21.14-16.81c0-3.48-2.63-7.31-5.88-8.56l-9.55-3.68c-3.09,5-7.51,6.33-10.65,6.33
								c-3.17,0-7.66-1.36-10.76-6.52l-10.04,3.86c-3.25,1.25-5.88,5.08-5.88,8.56l20.64,15.63L418.28,130.97z"/>
							<path class="st28" d="M434.4,201.13c0,0,5.14-27.29,0.35-38.91c-9.91-24.05,5.1-48.07,5.1-48.07c0-3.63-2.76-7.65-6.15-8.96
								l-10.79-4.15l-9.61,26.22l-10.1-26.22l-10.79,4.15c-3.39,1.31-6.15,5.32-6.15,8.96c0,0,15.13,26.94,5.88,49.2
								c-5.19,12.5-0.7,38.43-0.7,38.43L434.4,201.13z"/>
						</g>
						<g>
							<g>
								<g>
									<path class="st29" d="M421.52,109.02l2.3-6.61l10.32,4.14C437.43,107.82,421.52,109.02,421.52,109.02z"/>
								</g>
							</g>
						</g>
						<path class="st30" d="M406.39,95.33c2.7,3.18,5.98,4.1,8.43,4.1c1.44,0,3.18-0.32,4.92-1.24v-13.3h-13.35V95.33z"/>
						<g>
							<path class="st31" d="M427.63,73.59c0,18.89-8.97,22.67-14.27,22.67c-5.29,0-14.27-3.78-14.27-22.67
								c0-9.51,6.39-15.32,14.27-15.32C421.24,58.27,427.63,64.09,427.63,73.59z"/>
						</g>
					</g>
					<path class="st27" d="M413.36,58.27c-7.62,0-13.82,5.44-14.23,14.39c10.76-0.83,15.66-2.8,17.83-6.63
						c2.33,3.48,5.82,5.22,10.57,5.63C426.72,63.31,420.69,58.27,413.36,58.27z"/>
					<path class="st22" d="M430.85,71.74c1.78-12.32-5.81-23.12-14.76-20.69c-6.49-4.68-21.95-4.3-20.82,21.85
						c13.5-0.65,19.28-5.49,21.69-9.75C419.81,67.4,424.38,71.94,430.85,71.74z"/>
					<path class="st31" d="M400.7,76.38c0.62,3.29-0.11,6.18-1.63,6.46c-1.51,0.28-3.24-2.15-3.86-5.44
						c-0.62-3.29,0.11-6.18,1.63-6.46C398.36,70.66,400.08,73.09,400.7,76.38z"/>
					<path class="st31" d="M425.31,76.38c-0.62,3.29,0.11,6.18,1.63,6.46c1.51,0.28,3.24-2.15,3.86-5.44s-0.11-6.18-1.63-6.46
						C427.66,70.66,425.93,73.09,425.31,76.38z"/>
				</g>
				<path class="st32" d="M401.49,53.39c-0.66,0.71-2.97,4.65-3.34,7.79c-0.17,1.44,18.53-8.29,16.03-9.48
					C412.7,50.99,406.18,48.35,401.49,53.39z"/>
			</g>
			<g>
				<g>
					<rect x="418.87" y="124.8" class="st7" width="11.28" height="5.65"/>
					<rect x="419.17" y="125.1" class="st11" width="10.67" height="5.05"/>
					<rect x="423.77" y="124.2" class="st15" width="1.48" height="1.24"/>
				</g>
				<rect x="419.89" y="125.6" class="st15" width="3.38" height="4.16"/>
			</g>
		</g>
		<path class="st23" d="M436.72,180.4c-6.76,2.64-14.36,4.12-23.47,4.12c-8.81,0-16.96-1.46-23.6-3.94c0,10.79,1.8,21.19,1.8,21.21
			l13.19,102.39h7.48l-0.4-102.69l2.33-0.04l-0.4,102.73h7.48l14.68-110.61C436.35,189.82,436.82,185.11,436.72,180.4z"/>
		<g>
			<path class="st24" d="M412.62,306.34c0,1.33-1.53,2.4-3.42,2.4h-2.28c-1.89,0-3.42-1.08-3.42-2.4v-5.13
				c0-1.33,1.53-1.54,3.42-1.54h2.28c1.89,0,3.42,0.22,3.42,1.54V306.34z"/>
			<path class="st9" d="M412.62,304.96c0,0.99-1.53,1.8-3.42,1.8h-2.28c-1.89,0-3.42-0.81-3.42-1.8v-3.84
				c0-0.99,1.53-3.13,3.42-3.13h2.28c1.89,0,3.42,2.14,3.42,3.13V304.96z"/>
		</g>
		<g>
			<path class="st24" d="M422.31,306.34c0,1.33-1.53,2.4-3.42,2.4h-2.28c-1.89,0-3.42-1.08-3.42-2.4v-5.13
				c0-1.33,1.53-1.54,3.42-1.54h2.28c1.89,0,3.42,0.22,3.42,1.54V306.34z"/>
			<path class="st9" d="M422.31,304.96c0,0.99-1.53,1.8-3.42,1.8h-2.28c-1.89,0-3.42-0.81-3.42-1.8v-3.84
				c0-0.99,1.53-3.13,3.42-3.13h2.28c1.89,0,3.42,2.14,3.42,3.13V304.96z"/>
		</g>
		<polygon class="st11" points="424.7,174.53 402.47,174.54 399.21,136.94 427.92,136.93 		"/>
		<path class="st26" d="M405.51,151.53c-1.42,0.06-4.12,0.06-4.78-0.96c-0.66-1.02-7.94,1.78-7.94,1.78l-0.1,5.18
			c0,0,5.79,1.39,8.58,1.35C411.43,158.74,419.25,150.93,405.51,151.53z"/>
		<path class="st28" d="M391.97,158.46c2.13-0.11,4.17-8.29,1.23-8.2c-5.36-1.94-8.7-3.9-9.57-6.42
			c-1.21-3.49,6.21-13.22,10.67-18.61c3.88-9.36-3.85-18.19-3.85-18.19c-6.21,3.94-20.76,34.17-18.37,43.28
			C373.06,154.07,382.03,155.94,391.97,158.46z"/>
		<path class="st26" d="M421.76,151.53c1.43,0.06,4.12,0.06,4.78-0.96c0.66-1.02,7.95,1.78,7.95,1.78l0.1,5.18
			c0,0-5.8,1.39-8.58,1.35C415.83,158.74,408.02,150.93,421.76,151.53z"/>
		<path class="st28" d="M435.31,158.46c-2.13-0.11-4.18-8.29-1.23-8.2c5.36-1.94,8.7-3.9,9.57-6.42
			c1.21-3.49-6.21-13.22-10.67-18.61c-3.88-9.36,2.42-18.36,2.42-18.36c6.21,3.94,22.2,34.34,19.81,43.44
			C454.23,154.07,445.26,155.94,435.31,158.46z"/>
		<path class="st29" d="M391.51,106.5l10.53-4.09l3.45,7.86C405.49,110.27,382.49,111.25,391.51,106.5z"/>
		<polygon class="st15" points="427.79,138.56 427.92,136.93 399.21,136.94 399.35,138.56 		"/>
	</g>
</g>
<ellipse class="st1" cx="116.34" cy="307.12" rx="37.79" ry="8.34"/>
<g>
	<g>
		<g>
			<g>
				<g>
					<g>
						<path class="st27" d="M145.04,116.33v-5.12c0-3.84-2.9-8.07-6.49-9.45l-13.97-5.38V73.76H107.3v22.62l-13.97,5.38
							c-3.58,1.38-6.49,5.61-6.49,9.45v5.12H145.04z"/>
					</g>
				</g>
			</g>
		</g>
	</g>
	<path class="st30" d="M107.3,76.6v12.55c2.64,4.41,6.2,6.27,8.64,6.7c2.44,0.44,6,0.13,8.64-3.18V79.69l-8.64-3.72L107.3,76.6z"/>
	<g>
		<path class="st31" d="M130.26,69.31c0,19.54-9.01,23.44-14.32,23.44c-5.31,0-14.32-3.91-14.32-23.44
			c0-9.83,6.41-15.85,14.32-15.85C123.85,53.47,130.26,59.48,130.26,69.31z"/>
	</g>
	<path class="st31" d="M104.37,72.98c0.58,3.09-0.1,5.81-1.53,6.08c-1.42,0.27-3.05-2.02-3.63-5.11c-0.58-3.09,0.1-5.81,1.53-6.08
		C102.16,67.59,103.79,69.88,104.37,72.98z"/>
	<path class="st31" d="M127.52,72.98c-0.58,3.09,0.1,5.81,1.53,6.08c1.42,0.27,3.05-2.02,3.63-5.11c0.58-3.09-0.1-5.81-1.53-6.08
		C129.73,67.59,128.1,69.88,127.52,72.98z"/>
	<path class="st27" d="M130.19,67.66c-5.67-7.63-22.43-9.21-28.5,0.1c0,0.01,0,0.02,0,0.03C101.68,67.8,113.33,57.19,130.19,67.66z"
		/>
	<path class="st33" d="M129.3,63.22c-0.65,17.95-4.23,26.86-13.36,26.86c-9.17,0-12.71-8.91-13.36-26.86
		c-0.61,1.82-0.96,3.85-0.96,6.1c0,19.54,9.01,24.35,14.32,24.35c5.31,0,14.32-4.81,14.32-24.35
		C130.26,67.07,129.91,65.04,129.3,63.22z"/>
	<path class="st28" d="M101.63,55.31v12.54c6.03-9.42,22.91-7.84,28.58-0.17V54.9c-2.9-3.94-8.74-10-14.56-10.01
		C110.1,44.88,104.57,50.71,101.63,55.31z"/>
	<path class="st29" d="M115.69,45.69c-3.66-0.04-10.32,5.2-13.07,10.13c0,0,0,2.69,0,4.66C113.15,54.38,115.69,45.69,115.69,45.69z"
		/>
	<polygon class="st33" points="114.29,87.79 112.1,89.98 114.19,92.07 117.89,92.07 119.98,89.98 117.79,87.79 	"/>
	<path class="st33" d="M110.85,82.12c-1.49,1.49,0,8.45,0,8.45h1.04c0,0-1.2-5.57,0-6.76c1.45-1.45,6.77-1.45,8.23,0
		c1.2,1.2,0,6.76,0,6.76h1.04c0,0,1.49-6.96,0-8.45C119.34,80.3,112.67,80.3,110.85,82.12z"/>
	<path class="st23" d="M94.73,229.04c-0.7-0.01-1.4-0.03-2.1-0.04c1.82,19.45,3.34,35.02,4.73,49.28c0.12,1.27,0.48,7.12,0.59,8.24
		c0.1,1.03-1.74,6.54-1.65,7.43c0.45,4.56,2.59,5.98,2.59,5.98l12.06,0.79l1.2-5.68l-0.95-6.18l1.23-59.48
		C106.53,229.28,100.63,229.16,94.73,229.04z"/>
	<path class="st23" d="M117.7,229.47l2.75,59.98l-1.22,5.39l1.72,5.56l10.83,0.18c0,0,2.05-1.72,2.46-6.31
		c0.11-1.24-1.59-7.33-1.46-8.82c1.27-14.02,3.51-34.81,5.39-55.71C131.35,229.69,124.53,229.59,117.7,229.47z"/>
	<g>
		<g>
			<g>
				<path class="st28" d="M141.47,242.17c0-16.35-0.12-54.44,2.1-85.39c1.8-25.11,6.03-45.58,6.03-45.58
					c0-4.16-3.39-8.76-7.56-10.26l-16.13-5.83l-10.31,21.03l-9.8-21.03l-16.13,5.83c-4.17,1.5-7.56,6.1-7.56,10.26
					c0,0,3.75,16.23,5.69,46.09c1.78,27.36,1.77,67.72,1.77,84.8C89.58,249.61,141.47,249.41,141.47,242.17z"/>
				<path class="st34" d="M123.97,102.93l2.5-6.7l15.24,5.51C145.3,103.03,123.97,102.93,123.97,102.93z"/>
				<path class="st34" d="M90.01,101.74l15.23-5.5l4.98,10.58C110.22,106.82,76.96,108.14,90.01,101.74z"/>
			</g>
		</g>
		<g>
			<g>
				<rect x="125.37" y="118.66" class="st7" width="11.43" height="5.73"/>
				<rect x="125.68" y="118.97" class="st11" width="10.82" height="5.11"/>
				<rect x="130.34" y="118.05" class="st15" width="1.5" height="1.26"/>
			</g>
			<rect x="126.4" y="119.47" class="st15" width="3.43" height="4.21"/>
		</g>
	</g>
	<g>
		<path class="st24" d="M110.96,307.94c0,1.83-2.11,3.32-4.72,3.32h-3.15c-2.61,0-4.72-1.49-4.72-3.32v-7.08
			c0-1.83,2.11-2.13,4.72-2.13h3.15c2.61,0,4.72,0.3,4.72,2.13V307.94z"/>
		<path class="st25" d="M110.96,306.03c0,1.37-2.11,2.49-4.72,2.49h-3.15c-2.61,0-4.72-1.11-4.72-2.49v-5.31
			c0-1.37,2.11-4.33,4.72-4.33h3.15c2.61,0,4.72,2.95,4.72,4.33V306.03z"/>
	</g>
	<g>
		<path class="st24" d="M132.71,307.94c0,1.83-2.11,3.32-4.72,3.32h-3.15c-2.61,0-4.72-1.49-4.72-3.32v-7.08
			c0-1.83,2.11-2.13,4.72-2.13h3.15c2.61,0,4.72,0.3,4.72,2.13V307.94z"/>
		<path class="st25" d="M132.71,306.03c0,1.37-2.11,2.49-4.72,2.49h-3.15c-2.61,0-4.72-1.11-4.72-2.49v-5.31
			c0-1.37,2.11-4.33,4.72-4.33h3.15c2.61,0,4.72,2.95,4.72,4.33V306.03z"/>
	</g>
	<path class="st23" d="M141.47,129.48c2.23,18.6-1.07,22.76-8.9,48.96c-0.11,0.07-3.99,3.97-4.08,4.1c3.04,1.85,5.62,5.62,6.13,9.73
		c2.03-1.73,4.72-1.33,7.47-5.23c0.68-18.73,4.6-43.3,5.42-57.57H141.47z"/>
	<path class="st28" d="M141.09,185.46c-1.84,1.15-9.26-8.48-6.74-10.12c10.77-26.17,12.72-26.8,7.08-46.29
		c1.75-7.68-1.54-23.29,1.05-24.09l0.19-3.87c9,4.8,8.89,9.74,11.92,18.44C159.18,132.77,165.84,154.57,141.09,185.46z"/>
	<path class="st26" d="M126.42,187.3c2.69,1.72,5.37,3.46,8.21,4.97c0.9-1.68,4.43-4.76,5.24-7c-0.99-0.47-4-3.89-5.14-6.03
		c-2.03,0.99-5.77,2.5-6.31,3.41C127.34,184.46,127.03,186.5,126.42,187.3z"/>
	<path class="st23" d="M90.8,129.48c-3.24,19.77,1.48,27.59,13.57,54.16c0.11,0.07-6.21,4.53-6.73,8.64
		c-2.05,0.24-5.87-1.91-8.62-5.81c-0.68-18.73-3.45-42.73-4.27-56.99H90.8z"/>
	<path class="st28" d="M91.18,185.46c1.84,1.15,9.26-8.48,6.75-10.12c-10.77-26.17-12.72-26.8-7.08-46.29
		c-1.75-7.68,1.54-23.29-1.05-24.09l-0.19-3.87c-9,4.8-8.89,9.74-11.92,18.44C73.09,132.77,66.43,154.57,91.18,185.46z"/>
	<path class="st26" d="M105.85,187.3c-2.69,1.72-5.37,3.46-8.21,4.97c-0.9-1.68-4.42-4.78-5.22-7.01c1.91-1.34,3.88-4.22,5.12-6
		c2.03,0.99,5.78,2.48,6.32,3.39C104.93,184.46,105.24,186.5,105.85,187.3z"/>
	<path class="st34" d="M104.83,205.27c1.23-6,1-15.91,1-26.68c-3.24,3.69-14.89,9.29-14.89,9.29c0,8.52,0.59,13.95,1.67,17.4H104.83
		z"/>
	<path class="st34" d="M127.05,205.27c-1.23-6-1-15.91-1-26.68c3.24,3.69,14.89,9.29,14.89,9.29c0,8.52-0.59,13.95-1.67,17.4H127.05
		z"/>
</g>
<ellipse class="st1" cx="262.19" cy="329.91" rx="50.14" ry="11.07"/>
<ellipse class="st1" cx="188.61" cy="316.89" rx="37.79" ry="8.34"/>
<ellipse class="st1" cx="335.45" cy="316.89" rx="37.79" ry="8.34"/>
<g>
	<path class="st26" d="M172.95,170.12l16.2,6.49l15.85-5.7c0,0,4.21,12.27,4.21,24.5c0,6.11-6.15,54.67-6.15,55.04l-7.39,57.74
		l-4.93,3.25l0.32-34.27l0.23-34.5c0,0-0.61-29.24-0.32-36.87c0.09-2.5,0.85-9.97,0.85-9.97l-1.69-0.05l-3.07-0.01
		c0,0,0.83,7.39,0.93,9.86c0.32,7.65-0.35,36.92-0.35,36.92l0.35,34.29l-0.22,34.46l-4.91-2.06l-7.21-57.91
		c0-2.52-6.04-51.65-6.33-56.04C168.91,189.19,172.95,170.12,172.95,170.12z"/>
	<path class="st35" d="M207.17,170.41l-0.27-7.02h-36l-0.17,6.42c-0.21,0.68-5.21,17.38-5.03,23.19c0.07,2.2,2.29,15.97,4.55,30.02
		c1.03,6.37,3.03,15.04,3.03,18.99c0,8.06,31.84,8.05,32.24,0c0.7-14,7.49-44.5,7.29-48.94
		C212.29,181.62,207.22,170.52,207.17,170.41z"/>
	<path class="st36" d="M176.56,230.82c-2.99-11.99-6.58-26.43-7-29.04c-0.82-5.19-0.28-19.91,0.13-28.38
		c-1.5,5.35-4.12,15.38-3.99,19.59c0.07,2.2,1.65,15.81,3.92,29.86c1.03,6.37,2.14,13.13,3.01,18.92c0.61,4.07,7.13,5.2,7.13,5.2
		C178.96,243.7,177.55,234.78,176.56,230.82z"/>
	<path class="st36" d="M208.4,173.42c0.71,6.53,1.62,18.18,0.55,28.45c-0.59,5.7-7.98,33.63-11.01,45.31c0,0,4.99-0.89,6.89-3.36
		c2.64-3.43,8.2-46.31,7.99-50.76C212.46,185.19,209.95,177.47,208.4,173.42z"/>
	<path class="st37" d="M181.31,306.06c0,0-2.98,4.9-3.22,6.54c-0.24,1.64-0.77,6.26,0.58,6.84c1.35,0.58,7.01,0.68,7.78,0.19
		c0.77-0.48,2.42-3.75,2.56-5.58c0.15-1.84-0.96-9.19-0.96-9.19L181.31,306.06z"/>
	<path class="st26" d="M181.44,305.46c0,0-3.07,6.13-1.07,8.56c0.8,0.98,7.98-0.88,7.68-9.1
		C187.74,296.7,181.44,305.46,181.44,305.46z"/>
	<path class="st37" d="M197.22,306.06c0,0,2.98,4.9,3.22,6.54c0.24,1.64,0.77,6.26-0.58,6.84c-1.35,0.58-7.01,0.68-7.78,0.19
		c-0.77-0.48-2.42-3.75-2.56-5.58c-0.14-1.84,0.96-9.19,0.96-9.19L197.22,306.06z"/>
	<path class="st26" d="M197.09,305.46c0,0,3.07,6.13,1.07,8.56c-0.8,0.98-7.98-0.88-7.68-9.1
		C190.79,296.7,197.09,305.46,197.09,305.46z"/>
	<g>
		<g>
			<g>
				<g>
					<g>
						<g>
							<g>
								<path class="st38" d="M197.82,48.32c-7-5.79-29.41-1.08-29.41,26.72c0,21.1,8.2,23.09-2.59,36.18
									c7.7,6.58,30.25,9.45,35.54,5.12c5.29-4.33,9.81-19.04,10.4-33.68C212.38,67.04,208.42,50.94,197.82,48.32z"/>
							</g>
						</g>
					</g>
					<path class="st39" d="M207.15,80.04c0-10.55-7.69-17.01-17.18-17.01c-9.49,0-17.18,6.46-17.18,17.01
						c0,20.97,10.81,25.17,17.18,25.17S207.15,101.01,207.15,80.04z"/>
					<g>
						<g>
							<path class="st26" d="M205.88,152.98l11.16-39.43c0-3.61-2.73-7.6-6.11-8.89l-14.35-5.53V80.08h-13.86v19.05l-14.35,5.53
								c-3.37,1.3-6.11,5.28-6.11,8.89l11.16,39.43H205.88z"/>
							<path class="st29" d="M206.79,165.66l10.25-50.79c0-3.94-2.73-8.29-6.11-9.71l-14.35-6.03c-3.21,5.67-6.99,8.28-6.99,8.28
								s-3.76-2.79-6.87-8.28l-14.35,6.03c-3.37,1.42-6.11,5.76-6.11,9.71l11.09,50.79H206.79z"/>
							<path class="st9" d="M187.04,220.52l-7.63-120.59l-11.21,4.32c-3.52,1.36-6.39,5.53-6.39,9.3c0,0,6.61,33.09,6.61,44.12
								c0,10.04-7.74,33.43-8.41,46.9C159.51,214.57,187.04,220.52,187.04,220.52z"/>
							<path class="st9" d="M219.27,207.5c-1.38-12.9-9.25-39.36-9.34-49.49c-0.11-11.27,8.1-43.72,8.1-43.72
								c0-3.77-3.42-8.68-6.94-10.04l-11.21-4.32l-6.01,120.26C193.87,220.19,220.25,216.61,219.27,207.5z"/>
						</g>
						<path class="st40" d="M182.72,94c2.81,3.3,6.22,4.26,8.76,4.26c1.5,0,3.3-0.34,5.11-1.29V83.15l-13.86,0V94z"/>
						<g>
							<g>
								<g>
									<path class="st11" d="M204.44,106.52l-0.75-4.64l8,3.21C215.11,106.42,204.44,106.52,204.44,106.52z"/>
								</g>
							</g>
						</g>
						<g>
							<path class="st41" d="M204.78,71.42c0,19.62-9.32,23.55-14.82,23.55c-5.5,0-14.82-3.92-14.82-23.55
								c0-9.87,6.63-15.92,14.82-15.92S204.78,61.54,204.78,71.42z"/>
						</g>
						<path class="st41" d="M202.38,74.31c-0.64,3.41,0.11,6.42,1.69,6.72c1.57,0.3,3.37-2.23,4.01-5.65
							c0.64-3.41-0.11-6.42-1.69-6.72C204.82,68.37,203.02,70.9,202.38,74.31z"/>
					</g>
					<polygon class="st11" points="184.54,181.05 179.41,99.93 176.61,101.01 175.01,110.89 177.16,114.98 173.76,118.61 					"/>
					<polygon class="st11" points="205.28,119.04 202.86,115.31 204.17,111.48 202.64,100.99 199.89,99.93 195.92,179.26 					"/>
					<path class="st41" d="M202.38,74.31c-0.64,3.41,0.11,6.42,1.69,6.72c1.57,0.3,3.37-2.23,4.01-5.65
						c0.64-3.41-0.11-6.42-1.69-6.72C204.82,68.37,203.02,70.9,202.38,74.31z"/>
					<path class="st42" d="M189.66,107.41c-1.39,1.44-9.17,4.25-8.53-8.15c1.32-0.66,1.53-0.91,1.53-0.91L189.66,107.41z"/>
					<path class="st42" d="M189.59,107.41c1.39,1.44,9.17,4.25,8.53-8.15c-1.32-0.66-1.53-0.91-1.53-0.91L189.59,107.41z"/>
				</g>
				<path class="st39" d="M189.96,52.83c-8.18,0-16.4,11.26-16.4,17.81c7.16,1.41,23.68,4.39,26.94-9.37
					c0.16-0.67,2.93,2.53,4.18,8.08C211.61,66.62,196.34,52.83,189.96,52.83z"/>
				<path class="st41" d="M176.81,74.31c0.64,3.41-0.11,6.42-1.69,6.72c-1.57,0.3-3.37-2.23-4.01-5.65
					c-0.64-3.41,0.11-6.42,1.69-6.72C174.38,68.37,176.17,70.9,176.81,74.31z"/>
				<path class="st38" d="M207.65,78.85h2.68c3.21-6.45-1.26-14.28-10.91-28.91c-1.86-1.24-20.79-6.58-27.08,9.92
					c-3.7,9.7-1.88,10.05-1.88,10.05s25.04,7.47,28.97-10.88C199.77,57.45,208,69.55,207.65,78.85z"/>
				<path class="st43" d="M179.81,50.73c-0.89,0.74-7.29,8.97-4.06,9.63c7.18,1.46,22.42-10.88,19.07-12.12
					C192.83,47.5,186.09,45.49,179.81,50.73z"/>
			</g>
		</g>
		<g>
			<g>
				<rect x="201.63" y="124.61" class="st7" width="11.72" height="5.87"/>
				<rect x="201.94" y="124.92" class="st11" width="11.09" height="5.24"/>
				<rect x="206.72" y="123.98" class="st15" width="1.54" height="1.29"/>
			</g>
			<rect x="202.69" y="125.43" class="st15" width="3.51" height="4.32"/>
		</g>
		<g>
			<g>
				<g>
					<path class="st15" d="M196.78,135.04c-2.56-2.99-4.3-8.54-4.31-14.92H193c0.01,5.91,1.52,11.08,3.79,14.03V135.04z"/>
					<path class="st15" d="M205.57,133.99c2.2-2.97,3.65-8.07,3.66-13.87h0.52c-0.01,6.27-1.69,11.74-4.19,14.77V133.99z"/>
					<path class="st15" d="M205,134.99c0,0.21,0.17,0.37,0.37,0.37l0,0c0.21,0,0.37-0.17,0.37-0.37v-1.12
						c0-0.21-0.17-0.37-0.37-0.37l0,0c-0.21,0-0.37,0.17-0.37,0.37V134.99z"/>
					<path class="st15" d="M196.6,134.99c0,0.21,0.17,0.37,0.37,0.37l0,0c0.21,0,0.37-0.17,0.37-0.37v-1.12
						c0-0.21-0.17-0.37-0.37-0.37l0,0c-0.21,0-0.37,0.17-0.37,0.37V134.99z"/>
					<path class="st15" d="M203.69,134.55c0,0.37,0.3,0.68,0.68,0.68h0.09c0.37,0,0.68-0.3,0.68-0.68l0,0c0-0.37-0.3-0.68-0.68-0.68
						h-0.09C203.99,133.87,203.69,134.18,203.69,134.55L203.69,134.55z"/>
					<path class="st15" d="M197.16,134.55c0,0.37,0.3,0.68,0.68,0.68h0.09c0.37,0,0.68-0.3,0.68-0.68l0,0c0-0.37-0.3-0.68-0.68-0.68
						h-0.09C197.46,133.87,197.16,134.18,197.16,134.55L197.16,134.55z"/>
					<path class="st7" d="M193.26,120.5l0-0.26c0.02-9.02,3.54-16.36,7.86-16.36c4.31,0,7.83,7.34,7.86,16.36l0,0.26h1.05l0-0.26
						c-0.02-9.67-4.02-17.54-8.91-17.54s-8.88,7.87-8.91,17.54l0,0.26H193.26z"/>
				</g>
				<path class="st7" d="M196.57,97.38c2.34,1.59,4.11,3.73,5.02,6.21h-0.87c-0.82-2.02-2.27-3.79-4.15-5.17V97.38z"/>
			</g>
			<g>
				<path class="st7" d="M177.9,130.46l0.97,0c-1.31-12.32,1.99-30.62,3.86-32v-1.04C180.4,99,176.99,113.55,177.9,130.46z"/>
				<g>
					<path class="st7" d="M178.41,141.35c3.11,0,5.64-2.53,5.64-5.64c0-3.11-2.53-5.64-5.64-5.64c-3.11,0-5.64,2.53-5.64,5.64
						C172.77,138.82,175.3,141.35,178.41,141.35z"/>
					<path class="st15" d="M183.69,135.71c0-2.91-2.36-5.27-5.27-5.27c-2.91,0-5.27,2.36-5.27,5.27s2.36,5.27,5.27,5.27
						C181.32,140.98,183.69,138.62,183.69,135.71z"/>
					<path class="st44" d="M179.69,135.71c0-0.71-0.57-1.28-1.28-1.28c-0.71,0-1.28,0.57-1.28,1.28c0,0.71,0.57,1.28,1.28,1.28
						C179.12,136.99,179.69,136.41,179.69,135.71z"/>
					<path class="st9" d="M176.21,136.68c0.51,0.66,1.3,1.09,2.2,1.09c0.9,0,1.69-0.43,2.2-1.09h1.68
						c-0.15,2.02-1.83,3.61-3.88,3.61s-3.73-1.59-3.88-3.61H176.21z"/>
				</g>
			</g>
		</g>
	</g>
	<path class="st40" d="M192.59,81.11c-0.45,0.65-1.37,1.1-2.44,1.1c-1.07,0-1.99-0.45-2.44-1.1H192.59z"/>
	<path class="st45" d="M168.42,157.36c0,0.1,0.01,0.21,0.01,0.31c0,2.81-0.52,7.2-1.27,12.06l14.55-0.02l-0.49-12.45L168.42,157.36z
		"/>
	
		<rect x="169.46" y="142.03" transform="matrix(0.9879 -0.1551 0.1551 0.9879 -22.8488 30.3159)" class="st46" width="26.71" height="39.06"/>
	<path class="st26" d="M196.15,153.61c-1.58,0.63-4.56,2.44-5.53,1.3c-0.98-1.14-6.19,4.88-6.19,4.88l-1.95,5.21
		c0,0,11.72,0.65,14.79-0.63C200.34,163.11,197.74,152.98,196.15,153.61z"/>
	<path class="st9" d="M185.08,166.88c2.06-0.43,1.15-10.8-1.71-10.26c-32.15,3.99-24.29-10.4-17.58-31.01
		c0.97-2.98,4.21-20.3,1.67-21.03l0,0c-11.3,6.99-13.89,17.36-16.4,26.89C145.5,152.61,142.27,169.57,185.08,166.88z"/>
	<path class="st11" d="M167.27,105.6l8.05-3.12l-1.24,7.79C174.09,110.26,159.92,109.6,167.27,105.6z"/>
	<path class="st11" d="M180.51,188.61c0,0,1.63,24.74-0.65,24.42c-2.28-0.33-11.72-2.95-13.67-6.84c-1.96-3.89,1.95-12.7,1.95-12.7
		L180.51,188.61z"/>
	<g class="st16">
		<path class="st17" d="M213.23,177.88c-1.66,3.59-3.77,7.56-6.44,12.02c-2.43,1.61,3.01,8.39,4.79,7.26
			c1.68-2.12,3.19-4.23,4.57-6.34C215.2,186.56,214.17,182.13,213.23,177.88z"/>
	</g>
	<path class="st26" d="M208.68,187.06c-1.98,0.96-6.02,3.07-5.41,4.03c0.81,1.26-1.78,3.59-2.84,4.93
		c-1.06,1.33,7.89,6.74,9.99,4.17c1.08-1.32,2.32-4.93,3.27-8.16C212.33,191.79,209.95,189.34,208.68,187.06z"/>
	<path class="st11" d="M200.47,188.94c0,0-1.38,24.74,0.9,24.42c2.28-0.33,11.72-2.94,13.67-6.84c1.96-3.89-1.95-12.7-1.95-12.7
		L200.47,188.94z"/>
	<path class="st9" d="M214.32,191.96c-1.78,1.13-8.38-6.91-5.95-8.53c17.49-29.25,12.6-32.42,5.89-53.03
		c1.34-7.96-4.11-19.52-1.57-20.25l-0.02-4.81c9.28,5.38,9.44,11.3,12.94,20.51C230.94,139.87,234.77,166.15,214.32,191.96z"/>
</g>
<g>
	<path class="st25" d="M356.48,172.13l-21.56,7.21l-21.09-6.33c0,0-1.44,13.63-1.44,27.22c0,6.79,6.27,109.66,6.27,109.66
		l10.57-0.27l4.34-108.93l0.06-0.06l2.21-0.01l5.07,110.37l11.2,0.19c0,0,5.85-107.34,6.24-112.22
		C358.89,192.19,356.48,172.13,356.48,172.13z"/>
	<g>
		<g>
			<g>
				<g>
					<g>
						<path class="st26" d="M357.51,159.5l13.25-51.47c0-4.66-3.58-9.8-8-11.47l-17.23-6.53V62.55h-21.32v27.47l-17.23,6.53
							c-4.42,1.68-8,6.81-8,11.47l13.25,51.47H357.51z"/>
					</g>
				</g>
			</g>
			<path class="st47" d="M355.63,187.18l14.54-79.44c0-4.73-3.55-9.97-7.91-11.67l-16.87-6.63l-10.78,23.92l-10.25-23.92
				l-16.87,6.63c-4.36,1.7-7.91,6.93-7.91,11.67l14.54,79.44H355.63z"/>
			<path class="st38" d="M335.05,76.17c-1.65,0-3.2-0.25-4.63-0.63c0.64-0.9,1.99-1.16,4.73-1.16c2.69,0,4.04,0.25,4.69,1.11
				C338.36,75.9,336.75,76.17,335.05,76.17z"/>
			<g>
				<g>
					<path class="st48" d="M350.42,57.46c0,21.49-9.61,25-15.27,25s-15.27-4.17-15.27-25c0-10.48,6.84-16.9,15.27-16.9
						C343.59,40.56,350.42,46.97,350.42,57.46z"/>
				</g>
			</g>
			<path class="st48" d="M321.74,61.36c0.62,3.3-0.11,6.2-1.63,6.49c-1.52,0.29-3.25-2.16-3.87-5.45c-0.62-3.3,0.11-6.2,1.63-6.49
				C319.38,55.62,321.12,58.06,321.74,61.36z"/>
			<path class="st48" d="M348.31,61.36c-0.62,3.3,0.11,6.2,1.63,6.49c1.52,0.29,3.25-2.16,3.87-5.45s-0.11-6.2-1.63-6.49
				C350.66,55.62,348.93,58.06,348.31,61.36z"/>
			<path class="st40" d="M324.32,80.24c0.9,6.6,5.73,9.84,12.14,9.84c4.07,0,6.95-1.14,9.07-3.22v-5.52L324.32,80.24z"/>
			<path class="st33" d="M341.98,75c-0.32-2.18-1.76-3.46-6.82-3.46c-5.12,0-6.53,1.31-6.83,3.53c-5.9,0-8.6-16.07-8.6-16.07
				c-0.09,16.41,2.5,27.71,15.43,27.71c13.5,0,16.55-15.06,15.27-29.02C350.42,57.7,348.51,75,341.98,75z M335.05,76.41
				c-1.65,0-3.2-0.25-4.63-0.63c0.64-0.9,1.99-1.16,4.73-1.16c2.69,0,4.04,0.25,4.69,1.11C338.36,76.14,336.75,76.41,335.05,76.41z"
				/>
			<path class="st26" d="M348.97,50.96c0.11-0.13,0.2-0.26,0.31-0.38c-2.28-6.34-7.74-10.02-14.13-10.02
				c-5.97,0-11.13,3.23-13.64,8.83c0.22,0.32,0.47,0.61,0.79,0.82C325.59,52.46,342.48,58.07,348.97,50.96z"/>
			<path class="st33" d="M321.53,49.32c-3.33-2.08-1.49-9.71,6.96-11.76c10.67-2.6,20.07,3.44,19.93-3.05
				c3.17,2.02,6.43,9.75,0.65,15.51C342.37,56.72,324.92,51.44,321.53,49.32z"/>
			<path class="st9" d="M366.06,218.53c0-36.82,4.8-111.31,4.8-111.31c0-4.76-3.62-10.03-8.06-11.75l-15.32-5.94
				c0,0-7.04,85.66,7.02,93.91C356.02,224.96,366.06,224.67,366.06,218.53z"/>
			<path class="st11" d="M354.36,112.68l-2.52-7.84l1.98-1.27l-1.32-12.41c0,0-4.82-3.29-5.03-1.96
				c-4.31,27.59-1.35,61.41-1.35,61.41L354.36,112.68z"/>
			<path class="st32" d="M339.2,41.9c-13.33,0.58-18.24,7.5-18.24,3.75c0-3.75,4.79-7.29,10.7-7.91
				C337.57,37.12,342.95,41.73,339.2,41.9z"/>
			<path class="st20" d="M363.09,96.06l-9.58-3.4l1.02,5.38C359.33,97.71,365.57,97.09,363.09,96.06z"/>
		</g>
		<g>
			<g>
				<rect x="351.93" y="116.57" class="st7" width="11.82" height="5.92"/>
				<rect x="352.25" y="116.89" class="st11" width="11.18" height="5.29"/>
				<rect x="357.06" y="115.94" class="st15" width="1.55" height="1.3"/>
			</g>
			<rect x="353" y="117.4" class="st15" width="3.54" height="4.36"/>
		</g>
	</g>
	<g>
		<path class="st24" d="M330.57,319.75c0,1.9-2.19,3.43-4.88,3.43h-3.26c-2.7,0-4.88-1.54-4.88-3.43v-7.32
			c0-1.9,2.19-2.21,4.88-2.21h3.26c2.7,0,4.88,0.31,4.88,2.21V319.75z"/>
		<path class="st9" d="M330.57,317.77c0,1.42-2.19,2.57-4.88,2.57h-3.26c-2.7,0-4.88-1.15-4.88-2.57v-5.49
			c0-1.42,2.19-4.47,4.88-4.47h3.26c2.7,0,4.88,3.05,4.88,4.47V317.77z"/>
	</g>
	<g>
		<path class="st24" d="M353.06,319.75c0,1.9-2.19,3.43-4.88,3.43h-3.26c-2.7,0-4.88-1.54-4.88-3.43v-7.32
			c0-1.9,2.19-2.21,4.88-2.21h3.26c2.7,0,4.88,0.31,4.88,2.21V319.75z"/>
		<path class="st9" d="M353.06,317.77c0,1.42-2.19,2.57-4.88,2.57h-3.26c-2.7,0-4.88-1.15-4.88-2.57v-5.49
			c0-1.42,2.19-4.47,4.88-4.47h3.26c2.7,0,4.88,3.05,4.88,4.47V317.77z"/>
	</g>
	<path class="st15" d="M362.96,127.53c2.47,20.54-1.18,25.13-9.82,54.07c-0.13,0.08-0.23,0.21-0.33,0.35
		c0.53,0.63,1.09,1.13,1.69,1.49c0.23,6.38,0.67,11.77,1.24,16.31c4.36-4.5,8-8.92,11.04-13.22c0.75-20.69,1.96-43.25,2.86-59
		H362.96z"/>
	<path class="st9" d="M362.54,189.35c-2.03,1.27-10.22-9.37-7.45-11.17c11.9-28.89,14.05-29.59,7.81-51.12
		c1.94-8.48-1.7-25.72,1.16-26.6l0.21-4.27c9.94,5.3,9.82,10.75,13.16,20.36C382.51,131.16,389.87,155.24,362.54,189.35z"/>
	<path class="st26" d="M346.34,191.39c2.97,1.9,5.93,3.83,9.07,5.49c0.99-1.86,4.43-6.42,5.32-8.88c-1.5-0.19-4-2.68-5.26-5.04
		c-2.24,1.1-6.33,2.3-6.93,3.3C347.36,188.25,347.01,190.5,346.34,191.39z"/>
	<path class="st9" d="M303.9,218.53c0-36.82-4.8-111.31-4.8-111.31c0-4.76,3.62-10.03,8.06-11.75l15.32-5.94
		c0,0,7.04,85.66-7.02,93.91C313.95,224.96,303.9,224.67,303.9,218.53z"/>
	<path class="st11" d="M315.61,112.68l2.52-7.84l-1.98-1.27l1.32-12.41c0,0,4.82-3.29,5.03-1.96c4.31,27.59,1.35,61.41,1.35,61.41
		L315.61,112.68z"/>
	<path class="st20" d="M306.87,96.06l9.58-3.4l-1.02,5.38C310.63,97.71,304.4,97.09,306.87,96.06z"/>
	<path class="st15" d="M307,127.53c-2.47,20.54,1.18,25.13,9.82,54.07c0.13,0.08,0.23,0.21,0.33,0.35
		c-0.53,0.63-1.09,1.13-1.69,1.49c-0.23,6.38-0.67,11.77-1.24,16.31c-4.36-4.5-8-8.92-11.04-13.22c-0.75-20.69-1.96-43.25-2.86-59
		H307z"/>
	<path class="st9" d="M307.42,189.35c2.03,1.27,10.22-9.37,7.45-11.17c-11.9-28.89-14.05-29.59-7.81-51.12
		c-1.94-8.48,1.7-25.72-1.16-26.6l-0.21-4.27c-9.94,5.3-9.82,10.75-13.16,20.36C287.45,131.16,280.1,155.24,307.42,189.35z"/>
	<path class="st26" d="M323.62,191.39c-2.97,1.9-5.93,3.83-9.07,5.49c-0.99-1.86-4.43-6.42-5.32-8.88c1.5-0.19,4-2.68,5.26-5.04
		c2.24,1.1,6.33,2.3,6.93,3.3C322.61,188.25,322.95,190.5,323.62,191.39z"/>
	<g>
		<g>
			<path class="st15" d="M323.98,129.19c2.86-3.34,4.8-9.54,4.82-16.67h-0.59c-0.02,6.6-1.7,12.38-4.23,15.67V129.19z"/>
			<path class="st15" d="M314.17,128.02c-2.45-3.32-4.08-9.01-4.09-15.5h-0.59c0.02,7.01,1.89,13.12,4.68,16.5V128.02z"/>
			<path class="st15" d="M314.81,129.14c0,0.23-0.19,0.42-0.42,0.42l0,0c-0.23,0-0.42-0.19-0.42-0.42v-1.25
				c0-0.23,0.19-0.42,0.42-0.42l0,0c0.23,0,0.42,0.19,0.42,0.42V129.14z"/>
			<path class="st15" d="M324.19,129.14c0,0.23-0.19,0.42-0.42,0.42l0,0c-0.23,0-0.42-0.19-0.42-0.42v-1.25
				c0-0.23,0.19-0.42,0.42-0.42l0,0c0.23,0,0.42,0.19,0.42,0.42V129.14z"/>
			<path class="st15" d="M316.27,128.65c0,0.42-0.34,0.76-0.76,0.76h-0.1c-0.42,0-0.76-0.34-0.76-0.76l0,0
				c0-0.42,0.34-0.76,0.76-0.76h0.1C315.93,127.89,316.27,128.23,316.27,128.65L316.27,128.65z"/>
			<path class="st15" d="M323.56,128.65c0,0.42-0.34,0.76-0.76,0.76h-0.1c-0.42,0-0.76-0.34-0.76-0.76l0,0
				c0-0.42,0.34-0.76,0.76-0.76h0.1C323.22,127.89,323.56,128.23,323.56,128.65L323.56,128.65z"/>
			<path class="st7" d="M327.92,112.95l0-0.29c-0.02-10.07-3.96-18.27-8.77-18.27c-4.82,0-8.75,8.2-8.77,18.27l0,0.29h-1.17l0-0.29
				c0.02-10.8,4.49-19.59,9.95-19.59c5.46,0,9.92,8.79,9.95,19.59l0,0.29H327.92z"/>
			<path class="st7" d="M324.22,88.29c-2.1,1.54-3.72,3.52-4.64,5.77h-0.97c1.01-2.76,3-5.16,5.61-6.94V88.29z M345.54,87.14v1.16
				c2.09,1.54,5.77,21.98,4.31,35.74l1.08,0C351.95,105.16,348.14,88.91,345.54,87.14z"/>
			<path class="st7" d="M350.36,136.21c-3.48,0-6.3-2.83-6.3-6.3c0-3.48,2.83-6.3,6.3-6.3c3.48,0,6.3,2.83,6.3,6.3
				C356.66,133.38,353.83,136.21,350.36,136.21z"/>
			<path class="st15" d="M344.47,129.91c0-3.25,2.64-5.89,5.89-5.89c3.25,0,5.89,2.64,5.89,5.89c0,3.25-2.64,5.89-5.89,5.89
				C347.11,135.8,344.47,133.16,344.47,129.91z"/>
			<path class="st44" d="M348.93,129.91c0-0.79,0.64-1.43,1.43-1.43s1.43,0.64,1.43,1.43c0,0.79-0.64,1.43-1.43,1.43
				S348.93,130.7,348.93,129.91z"/>
		</g>
		<path class="st9" d="M352.82,130.99c-0.57,0.74-1.46,1.22-2.46,1.22c-1,0-1.89-0.48-2.46-1.22h-1.88
			c0.17,2.25,2.04,4.03,4.34,4.03s4.17-1.78,4.34-4.03H352.82z"/>
	</g>
</g>
<g>
	<path class="st9" d="M239.51,241.72c-0.77-0.02-1.54-0.03-2.32-0.05c2.01,21.48,3.68,38.67,5.23,54.42
		c0.14,1.41,0.53,7.86,0.65,9.1c0.11,1.13-1.92,7.22-1.82,8.2c0.5,5.04,2.86,6.61,2.86,6.61l13.32,0.87l1.32-6.27l-1.05-6.83
		l1.36-65.69C252.54,241.98,246.02,241.86,239.51,241.72z"/>
	<path class="st9" d="M264.87,242.2l3.04,66.24l-1.34,5.96l1.9,6.14l11.96,0.2c0,0,2.26-1.89,2.72-6.97
		c0.12-1.37-1.76-8.09-1.61-9.74c1.4-15.49,3.87-38.44,5.96-61.52C279.96,242.44,272.41,242.33,264.87,242.2z"/>
	<g>
		<g>
			<g>
				<g>
					<g>
						<g>
							<g>
								<g>
									<path class="st27" d="M298.15,105.22c-1.36-2.87-3.78-5.36-6.55-6.42l-16.62-6.4V65.47h-20.56v26.92l-16.62,6.4
										c-2.76,1.06-5.18,3.56-6.54,6.42l33.08,13.97L298.15,105.22z"/>
									<g>
										<path class="st31" d="M281.74,60.18c0,23.24-10.72,27.89-17.04,27.89c-6.32,0-17.04-4.65-17.04-27.89
											c0-11.7,7.63-18.85,17.04-18.85C274.11,41.32,281.74,48.48,281.74,60.18z"/>
									</g>
								</g>
							</g>
							<path class="st31" d="M250.93,64.54c0.69,3.68-0.12,6.92-1.82,7.24c-1.69,0.32-3.63-2.41-4.32-6.08
								c-0.69-3.68,0.12-6.92,1.82-7.24C248.31,58.13,250.24,60.86,250.93,64.54z"/>
							<path class="st31" d="M278.48,64.54c-0.69,3.68,0.12,6.92,1.82,7.24c1.7,0.32,3.63-2.41,4.32-6.08
								c0.69-3.68-0.12-6.92-1.82-7.24C281.1,58.13,279.17,60.86,278.48,64.54z"/>
						</g>
					</g>
				</g>
				<path class="st14" d="M247.67,38.16v20.27c7.18-11.21,27.25-9.33,34-0.2V37.68C274.92,28.52,254.85,26.96,247.67,38.16z"/>
				<path class="st14" d="M292.98,254.67c0-18.05-0.13-60.11,2.32-94.3c1.99-27.73,6.66-50.33,6.66-50.33
					c0-4.6-3.74-9.68-8.35-11.33l-17.81-6.44l-11.38,23.22L253.6,92.27l-17.81,6.44c-4.6,1.65-8.35,6.73-8.35,11.33
					c0,0,4.14,17.92,6.28,50.89c1.97,30.22,1.95,74.78,1.95,93.64C235.68,262.88,292.98,262.66,292.98,254.67z"/>
				<path class="st14" d="M264.4,32.07c-6.15-0.02-12.28,2.1-15.55,6.88v5.54L264.4,32.07z"/>
				<path class="st14" d="M273.66,100.91l2.76-7.4l16.83,6.08C297.2,101.01,273.66,100.91,273.66,100.91z"/>
				<path class="st14" d="M236.16,99.59l16.81-6.08l5.5,11.68C258.47,105.2,221.75,106.66,236.16,99.59z"/>
				<path class="st27" d="M281.65,58.22c-6.74-9.08-26.68-10.96-33.91,0.12c0,0.01,0,0.02,0,0.04
					C247.74,58.38,261.6,45.75,281.65,58.22z"/>
				<path class="st30" d="M254.42,68.85v14.93c3.14,5.25,7.38,7.46,10.28,7.98c2.9,0.52,7.14,0.15,10.28-3.78V72.53L264.7,68.1
					L254.42,68.85z"/>
				<polygon class="st19" points="247.67,57.63 246.93,58.43 249.53,68.94 250.04,67.2 				"/>
				<polygon class="st19" points="281.67,57.63 282.42,58.43 279.82,68.94 279.31,67.2 				"/>
				<path class="st7" d="M279.41,57.39c-0.09-0.29-0.26-0.47-0.58-0.47c0,0-9.71,0-10.75,0c-0.91,0-2.28,0.59-3.5,0.59
					s-2.6-0.59-3.5-0.59c-1.05,0-10.75,0-10.75,0c-0.32,0-0.5,0.18-0.58,0.47h-2.98v0.98h2.97c0.35,2.24,1.53,6.3,2.13,6.3h8.33
					c0.97,0,2.39-1.96,2.91-3.21c0.32-0.77,1-1.11,1.49-1.11s1.16,0.34,1.49,1.11c0.52,1.25,1.94,3.21,2.91,3.21h8.33
					c0.6,0,1.78-4.06,2.13-6.3h2.97v-0.98H279.41z M260.2,64.37c-0.77,0-7.28,0.01-7.93,0.01c-0.65,0-2.72-6.68-0.99-6.68
					c0,0,8.19,0,9.02,0C265.1,57.71,260.97,64.37,260.2,64.37z M276.87,64.38c-0.65,0-7.16-0.01-7.93-0.01
					c-0.77,0-4.9-6.66-0.1-6.66c0.83,0,9.02,0,9.02,0C279.59,57.71,277.52,64.38,276.87,64.38z"/>
				<path class="st8" d="M260.2,64.37c-0.77,0-7.28,0.01-7.93,0.01c-0.65,0-2.72-6.68-0.99-6.68c0,0,8.19,0,9.02,0
					C265.1,57.71,260.97,64.37,260.2,64.37z"/>
				<path class="st8" d="M276.87,64.38c-0.65,0-7.16-0.01-7.93-0.01c-0.77,0-4.9-6.66-0.1-6.66c0.83,0,9.02,0,9.02,0
					C279.59,57.71,277.52,64.38,276.87,64.38z"/>
				<path class="st19" d="M280.08,67.23l-15.38-3.44l-15.37,3.44c0.52,4.96,1.94,12.13,1.94,12.13c3.66,6.75,9.57,8.72,13.43,8.72
					c3.86,0,9.77-1.52,13.43-8.11C278.13,79.97,279.56,72.12,280.08,67.23z"/>
				<path class="st20" d="M264.7,64.52v6.67c0,0-12.52,3.02-14.49-3.29L264.7,64.52z"/>
			</g>
		</g>
		<g>
			<g>
				<rect x="273.35" y="119.84" class="st7" width="12.63" height="6.33"/>
				<rect x="273.69" y="120.17" class="st11" width="11.95" height="5.65"/>
				<rect x="278.83" y="119.16" class="st15" width="1.66" height="1.39"/>
			</g>
			<rect x="274.49" y="120.73" class="st15" width="3.78" height="4.65"/>
		</g>
	</g>
	<g>
		<path class="st24" d="M257.43,328.85c0,2.03-2.34,3.67-5.22,3.67h-3.48c-2.88,0-5.22-1.64-5.22-3.67v-7.82
			c0-2.03,2.34-2.36,5.22-2.36h3.48c2.88,0,5.22,0.33,5.22,2.36V328.85z"/>
		<path class="st25" d="M257.43,326.74c0,1.52-2.34,2.75-5.22,2.75h-3.48c-2.88,0-5.22-1.23-5.22-2.75v-5.86
			c0-1.52,2.34-4.78,5.22-4.78h3.48c2.88,0,5.22,3.26,5.22,4.78V326.74z"/>
	</g>
	<g>
		<path class="st24" d="M281.45,328.85c0,2.03-2.34,3.67-5.22,3.67h-3.48c-2.88,0-5.22-1.64-5.22-3.67v-7.82
			c0-2.03,2.34-2.36,5.22-2.36h3.48c2.88,0,5.22,0.33,5.22,2.36V328.85z"/>
		<path class="st25" d="M281.45,326.74c0,1.52-2.34,2.75-5.22,2.75h-3.48c-2.88,0-5.22-1.23-5.22-2.75v-5.86
			c0-1.52,2.34-4.78,5.22-4.78h3.48c2.88,0,5.22,3.26,5.22,4.78V326.74z"/>
	</g>
	<path class="st14" d="M225.88,112.43c-0.03,0.11-0.07,0.22-0.1,0.33c0.83,5.25,4.25,27.66,6.36,52.75
		c15.92-2.11,51.3-12.13,56.13-13.6c-1.22-5.92-12.9-11.03-12.9-11.03s-38.81,3.6-38.61,0.54c0.2-3.06,2.19-19.66,2.19-19.66
		L225.88,112.43z"/>
	<path class="st14" d="M225.88,109.37c-4.95,16.36-13.32,48.81-6.78,52.9c6.53,4.08,56.67-9.6,63.4-11.64
		c-1.22-5.92-7.34-7.84-7.34-7.84s-41.98,5.81-41.78,2.75c0.2-3.06,5.92-25.1,5.92-25.1L225.88,109.37z"/>
	<path class="st14" d="M299.74,112.43c0.03,0.11,0.07,0.22,0.1,0.33c-0.83,5.25-4.75,31.04-6.85,56.14
		c-15.92-2.11-42.87-17.81-47.7-19.27c1.22-5.92,3.18-8.07,3.18-8.07s41.94,9.9,41.73,6.84c-0.2-3.06-3.53-26.61-3.53-26.61
		L299.74,112.43z"/>
	<path class="st14" d="M299.74,109.37c4.95,16.36,13.32,48.81,6.79,52.9c-6.53,4.08-52.81-11.9-59.55-13.94
		c1.22-5.92,2.48-11.08,2.48-11.08s40.45,8.52,42.76,8.99c2.67,0.55-0.1-3.43-5.9-25.8L299.74,109.37z"/>
	<path class="st14" d="M250.26,138.99c0.84,0.57,36.5,6.86,43.2,7.55C314.15,156.28,267.85,148.51,250.26,138.99z"/>
	<path class="st11" d="M301.94,142.05c-5.51-4.69-11.33-4.88-11.33-4.88l-0.38-1.56c-1.99-0.13-15.08,7.18-15.08,7.18
		s19.3,3.06,23.47,5.41C300.51,149.25,305.04,144.68,301.94,142.05z"/>
	<path class="st0" d="M290.88,137.69c5.58,2.37,11.45,7.34,11.32,5.81C302.07,141.97,296.92,138.07,290.88,137.69z"/>
	<path class="st11" d="M243.45,134.26l-4.48,1.07c0,0-0.89-0.48-3.48,0.12c-0.89,3.78-1.59,6.98-1.66,8.02
		c-0.01,0.12,0.06,0.23,0.18,0.33c5.35-0.37,13.56,1.71,13.56,1.71l1.89-8.26C249.47,137.24,245.41,134.67,243.45,134.26z"/>
	<path class="st0" d="M235.25,136.26c-0.14,0.6-0.27,1.17-0.4,1.73c2.21-0.64,4.84-1.36,7.3-1.67
		C239.74,135.79,237.31,135.88,235.25,136.26z"/>
</g>
</svg>
